<svg width="140" height="168" viewBox="0 0 140 168" fill="none" xmlns="http://www.w3.org/2000/svg">
<path d="M134.291 7.95422L133.765 8.34253C133.162 8.78722 132.559 9.2319 131.964 9.68598C131.701 9.88822 131.529 10.1869 131.485 10.5164C131.442 10.8459 131.531 11.1791 131.733 11.4428C131.935 11.7065 132.233 11.8791 132.562 11.9225C132.891 11.966 133.224 11.8768 133.487 11.6745C134.069 11.2299 134.66 10.7946 135.247 10.3593L135.776 9.97096C136.042 9.77355 136.22 9.47832 136.269 9.1501C136.318 8.82188 136.235 8.48751 136.038 8.2204C135.842 7.95309 135.547 7.77491 135.22 7.72499C134.892 7.67508 134.558 7.75753 134.291 7.95422Z" fill="#8C8184"/>
<path d="M127.568 13.1025C125.767 14.5274 123.863 16.0869 121.393 18.1507C121.26 18.2537 121.149 18.3825 121.067 18.5294C120.985 18.6763 120.933 18.8382 120.915 19.0056C120.897 19.173 120.913 19.3423 120.961 19.5035C121.01 19.6647 121.09 19.8144 121.198 19.9437C121.306 20.073 121.438 20.1792 121.588 20.2561C121.737 20.3329 121.901 20.3787 122.068 20.3908C122.236 20.403 122.404 20.3811 122.563 20.3266C122.723 20.272 122.869 20.1859 122.994 20.0734C125.448 18.0223 127.337 16.4784 129.119 15.0629C129.256 14.9515 129.367 14.8115 129.444 14.6527C129.567 14.3999 129.602 14.1129 129.543 13.838C129.483 13.5631 129.333 13.3162 129.116 13.1372C128.9 12.9582 128.629 12.8575 128.348 12.8512C128.068 12.8449 127.793 12.9334 127.568 13.1025Z" fill="#8C8184"/>
<path d="M117.357 21.5703C115.18 23.4305 113.014 25.3001 110.856 27.179C107.942 29.6843 104.931 32.3117 101.942 34.8357C101.816 34.9418 101.713 35.0717 101.637 35.2179C101.562 35.364 101.516 35.5237 101.502 35.6877C101.488 35.8517 101.506 36.0169 101.556 36.1737C101.606 36.3306 101.686 36.4761 101.792 36.6019C101.898 36.7278 102.028 36.8315 102.174 36.9071C102.319 36.9828 102.479 37.0289 102.643 37.0429C102.806 37.0568 102.971 37.0384 103.128 36.9885C103.285 36.9386 103.43 36.8584 103.555 36.7522C106.557 34.2157 109.574 31.6008 112.491 29.0736C114.649 27.1947 116.812 25.3282 118.979 23.4743C119.108 23.369 119.214 23.2392 119.292 23.0923C119.423 22.8341 119.462 22.5383 119.4 22.2552C119.338 21.9721 119.18 21.7192 118.953 21.5397C118.725 21.3602 118.443 21.2651 118.154 21.2707C117.864 21.2763 117.586 21.3822 117.366 21.5703H117.357Z" fill="#8C8184"/>
<path d="M136.01 39.079L132.168 40.8045C131.87 40.9438 131.64 41.1944 131.525 41.5025C131.411 41.8106 131.422 42.1513 131.556 42.4513C131.69 42.7512 131.937 42.9863 132.242 43.1059C132.548 43.2255 132.888 43.22 133.19 43.0906L137.033 41.3651C137.33 41.2258 137.561 40.9751 137.675 40.6671C137.79 40.359 137.778 40.0183 137.644 39.7183C137.51 39.4184 137.264 39.1833 136.958 39.0637C136.652 38.9441 136.312 38.9496 136.01 39.079Z" fill="#8C8184"/>
<path d="M114.011 48.4237C113.701 48.542 113.45 48.7789 113.315 49.0822C113.179 49.3856 113.169 49.7305 113.287 50.0411C113.405 50.3517 113.642 50.6026 113.945 50.7386C114.248 50.8745 114.592 50.8844 114.902 50.7661C118.341 49.4508 121.887 48.0103 125.733 46.3631C126.004 46.25 126.226 46.0434 126.358 45.7806C126.474 45.5515 126.517 45.2924 126.481 45.0381C126.445 44.7839 126.331 44.547 126.156 44.3594C125.981 44.1718 125.753 44.0425 125.502 43.9892C125.251 43.9359 124.99 43.9611 124.754 44.0614C120.937 45.6929 117.422 47.1209 114.011 48.4237Z" fill="#8C8184"/>
<path d="M102.32 4.69738C102.337 4.6659 102.352 4.63348 102.364 4.6003L103.543 1.71298C103.653 1.40827 103.641 1.07274 103.509 0.776852C103.377 0.480967 103.136 0.247742 102.836 0.126155C102.536 0.00456719 102.201 0.0040756 101.901 0.124783C101.601 0.245491 101.359 0.478007 101.226 0.773505L100.054 3.66709C99.9536 3.9615 99.9665 4.28265 100.09 4.56806C100.213 4.85347 100.438 5.08273 100.721 5.21124C101.004 5.33975 101.324 5.35832 101.62 5.26335C101.915 5.16837 102.165 4.96663 102.32 4.69738Z" fill="#8C8184"/>
<path d="M97.7712 9.26322C96.6721 11.9905 95.7918 14.8011 95.1385 17.6684C95.074 17.9662 95.1202 18.2773 95.2683 18.5435C95.4164 18.8097 95.6563 19.0127 95.9431 19.1145C96.2299 19.2162 96.5439 19.2098 96.8263 19.0964C97.1087 18.9829 97.3401 18.7703 97.4773 18.4983C97.5255 18.3984 97.5622 18.2933 97.5867 18.1851C98.2121 15.4492 99.0537 12.7674 100.104 10.1651C100.223 9.85532 100.216 9.51054 100.082 9.20662C99.9476 8.9027 99.6985 8.66453 99.3892 8.54452C99.0799 8.42451 98.7357 8.43247 98.4322 8.56667C98.1288 8.70086 97.891 8.95029 97.7712 9.26009V9.26322Z" fill="#8C8184"/>
<path d="M126.211 70.4606L120.18 71.2873C119.851 71.333 119.554 71.5076 119.354 71.7728C119.153 72.038 119.067 72.3719 119.112 72.7012C119.158 73.0306 119.332 73.3282 119.597 73.5288C119.862 73.7294 120.195 73.8164 120.524 73.7707C122.531 73.493 124.54 73.2174 126.549 72.9439C130.614 72.3896 134.8 71.8166 138.924 71.2216C139.123 71.193 139.312 71.117 139.476 70.9998C139.639 70.8826 139.772 70.7277 139.862 70.5483C139.98 70.3188 140.023 70.0581 139.984 69.803C139.937 69.4747 139.762 69.1785 139.497 68.9795C139.232 68.7805 138.899 68.6948 138.571 68.7414C134.447 69.327 130.264 69.9 126.211 70.4606Z" fill="#8C8184"/>
<path d="M47.3786 110.019L43.0012 100.217L47.4036 75.7123L61.9082 66.7027L69.0683 78.8063L59.3193 106.242L47.3786 110.019ZM45.2868 99.9413L48.5855 107.332L57.6028 104.485L66.642 79.0505L61.1484 69.7623L49.4015 77.062L45.2868 99.9413Z" fill="white"/>
<path d="M54.8293 107.332L52.8845 106.308L64.4939 84.1863L60.6574 68.7414L62.7898 68.2121L66.8295 84.4682L54.8293 107.332Z" fill="white"/>
<path d="M65.6039 85.4546L50.5208 81.1111L47.5192 77.0401L49.2857 75.7342L51.8434 79.204L66.2104 83.3408L65.6039 85.4546Z" fill="white"/>
<path d="M47.391 105.146L45.2367 104.723L50.1612 79.6643L60.3854 67.6203L62.0582 69.0451L52.2029 80.6508L47.391 105.146Z" fill="white"/>
<path d="M96.977 88.4328L84.7517 82.5704L65.088 51.6711L75.184 36.7773L93.0374 40.3066L101.404 75.7843L96.977 88.4328ZM86.2681 80.8575L95.7169 85.392L99.1156 75.6684L91.2239 42.2012L76.1846 39.2293L67.7144 51.7212L86.2681 80.8575Z" fill="white"/>
<path d="M96.8144 82.9588L85.0268 48.0072L75.2872 38.8817L76.788 37.2752L86.931 46.7764L98.8936 82.2541L96.8144 82.9588Z" fill="white"/>
<path d="M75.381 52.8799L66.3918 52.8016L66.4106 50.6032L74.9621 50.6753L85.3614 46.457L91.3552 40.4788L92.9029 42.0384L86.5964 48.3266L75.381 52.8799Z" fill="white"/>
<path d="M91.1988 85.4139L74.0677 52.0313L74.3898 38.2773L76.5847 38.3274L76.2783 51.5239L93.1498 84.4087L91.1988 85.4139Z" fill="white"/>
<path d="M53.216 34.8764C51.4198 35.5496 49.7878 36.5991 48.429 37.9546C47.0703 39.3101 46.016 40.9404 45.3367 42.7367C44.6595 40.9418 43.6078 39.3122 42.2517 37.9568C40.8957 36.6013 39.2666 35.5512 37.4731 34.8764C39.2661 34.1991 40.8946 33.1473 42.2504 31.791C43.6062 30.4347 44.6583 28.8049 45.3367 27.0099C46.0169 28.8064 47.0713 30.4372 48.4299 31.7936C49.7886 33.15 51.4201 34.201 53.216 34.8764Z" fill="#8C8184"/>
<path d="M101.542 113.254L98.6841 115.161L99.6158 111.851L96.9207 109.721L100.351 109.587L101.542 106.358L102.73 109.587L106.16 109.721L103.465 111.851L104.397 115.161L101.542 113.254Z" fill="#8C8184"/>
<path d="M50.9305 167.104L51.1181 166.478C51.3307 165.758 51.5464 165.041 51.7434 164.317C51.8321 163.997 51.7902 163.655 51.6269 163.366C51.4636 163.076 51.1923 162.864 50.8726 162.775C50.5529 162.686 50.2111 162.728 49.9223 162.892C49.6335 163.055 49.4215 163.327 49.3327 163.647C49.1357 164.355 48.9263 165.056 48.7074 165.758L48.5198 166.384C48.4644 166.57 48.4537 166.766 48.4885 166.957C48.5377 167.235 48.6788 167.487 48.8892 167.675C49.0995 167.862 49.3667 167.973 49.6477 167.989C49.9286 168.005 50.2068 167.926 50.4373 167.765C50.6678 167.603 50.8371 167.368 50.918 167.098L50.9305 167.104Z" fill="#8C8184"/>
<path d="M53.2035 158.94C53.7851 156.717 54.3698 154.324 55.1014 151.187C55.1742 150.864 55.1166 150.526 54.9414 150.246C54.7662 149.965 54.4875 149.766 54.166 149.691C53.8446 149.616 53.5065 149.671 53.2255 149.844C52.9444 150.018 52.7432 150.295 52.6658 150.617C51.9404 153.748 51.3588 156.106 50.7897 158.308C50.7208 158.624 50.7769 158.955 50.9464 159.231C51.1159 159.507 51.3856 159.707 51.6988 159.788C52.012 159.869 52.3443 159.825 52.6261 159.666C52.9078 159.507 53.117 159.244 53.2098 158.934L53.2035 158.94Z" fill="#8C8184"/>
<path d="M56.2801 146.023C56.9055 143.226 57.4995 140.426 58.0998 137.627C58.9097 133.869 59.7445 129.954 60.6168 126.134C60.6534 125.972 60.6577 125.805 60.6297 125.641C60.6016 125.478 60.5416 125.321 60.4532 125.181C60.3648 125.041 60.2497 124.919 60.1144 124.823C59.9791 124.728 59.8263 124.659 59.6647 124.623C59.5032 124.586 59.336 124.582 59.1727 124.61C59.0095 124.638 58.8533 124.698 58.7133 124.787C58.5732 124.875 58.4519 124.991 58.3563 125.126C58.2607 125.262 58.1927 125.415 58.1561 125.576C57.2838 129.41 56.4458 133.318 55.636 137.098C55.0357 139.891 54.4385 142.684 53.8194 145.478C53.7868 145.639 53.7868 145.805 53.8194 145.966C53.8688 146.253 54.0161 146.513 54.236 146.702C54.4559 146.892 54.7347 146.999 55.0248 147.005C55.3148 147.012 55.598 146.917 55.8259 146.737C56.0538 146.557 56.2121 146.303 56.2739 146.019L56.2801 146.023Z" fill="#8C8184"/>
<path d="M30.8416 143.295L32.8739 139.6C33.0186 139.31 33.0459 138.976 32.95 138.667C32.8541 138.358 32.6425 138.098 32.3596 137.942C32.0766 137.786 31.7443 137.745 31.4321 137.829C31.12 137.912 30.8523 138.114 30.6852 138.391L28.6529 142.086C28.5154 142.337 28.4679 142.628 28.5184 142.91C28.5638 143.165 28.687 143.399 28.871 143.581C29.0549 143.763 29.2906 143.883 29.5457 143.926C29.8007 143.968 30.0626 143.93 30.2952 143.817C30.5278 143.704 30.7198 143.522 30.8447 143.295H30.8416Z" fill="#8C8184"/>
<path d="M42.801 122.561C42.9773 122.279 43.0346 121.939 42.9604 121.615C42.8862 121.291 42.6866 121.01 42.4055 120.834C42.1244 120.657 41.7848 120.6 41.4614 120.674C41.138 120.748 40.8574 120.948 40.6812 121.23C38.7239 124.361 36.7603 127.643 34.6811 131.273C34.5152 131.561 34.4703 131.903 34.5562 132.224C34.6421 132.544 34.8518 132.818 35.1391 132.984C35.4265 133.15 35.7679 133.195 36.0884 133.109C36.4088 133.023 36.682 132.813 36.8479 132.525C38.9146 128.918 40.8594 125.661 42.801 122.561Z" fill="#8C8184"/>
<path d="M78.4077 150.422C78.4077 150.457 78.4077 150.491 78.4327 150.526L79.2269 153.541C79.3187 153.855 79.529 154.12 79.8131 154.28C80.0971 154.44 80.4324 154.483 80.7474 154.399C81.0625 154.316 81.3325 154.112 81.5 153.832C81.6674 153.552 81.719 153.217 81.6438 152.9L80.8496 149.884C80.771 149.567 80.5721 149.293 80.2951 149.121C80.0182 148.949 79.6851 148.892 79.3668 148.962C79.0485 149.033 78.7702 149.225 78.591 149.497C78.4119 149.77 78.3461 150.102 78.4077 150.422Z" fill="#8C8184"/>
<path d="M79.305 144.053C78.5435 141.212 77.5575 138.436 76.3565 135.751C76.216 135.45 75.9618 135.217 75.6498 135.104C75.3379 134.99 74.9938 135.006 74.6932 135.147C74.3926 135.287 74.1601 135.542 74.0469 135.854C73.9338 136.167 73.9492 136.512 74.0897 136.813C75.2367 139.374 76.1777 142.024 76.9037 144.735C76.9941 145.055 77.2076 145.326 77.4973 145.488C77.7869 145.65 78.129 145.69 78.4483 145.6C78.7675 145.509 79.0378 145.295 79.1997 145.005C79.3615 144.715 79.4016 144.373 79.3113 144.053H79.305Z" fill="#8C8184"/>
<path d="M19.82 112.327C21.2624 110.897 22.7017 109.468 24.1379 108.04C24.2592 107.925 24.3564 107.787 24.4236 107.634C24.4908 107.481 24.5267 107.316 24.5293 107.149C24.5319 106.981 24.501 106.815 24.4385 106.66C24.376 106.505 24.2832 106.364 24.1655 106.246C24.0478 106.127 23.9076 106.034 23.7531 105.97C23.5986 105.907 23.4331 105.875 23.2662 105.877C23.0993 105.878 22.9344 105.914 22.7812 105.98C22.6281 106.047 22.4898 106.143 22.3745 106.264L18.0597 110.545C15.1519 113.435 12.1471 116.42 9.21118 119.382C9.09049 119.498 8.9941 119.636 8.92769 119.79C8.86129 119.943 8.82621 120.108 8.82453 120.275C8.82284 120.442 8.85459 120.608 8.91789 120.763C8.9812 120.918 9.07478 121.058 9.19312 121.176C9.31147 121.294 9.45218 121.387 9.60696 121.449C9.76175 121.512 9.92747 121.543 10.0944 121.54C10.2613 121.538 10.426 121.502 10.5788 121.434C10.7316 121.367 10.8693 121.27 10.984 121.148C13.9137 118.195 16.9184 115.211 19.82 112.327Z" fill="#8C8184"/>
<path d="M10.2367 71.4471L15.1269 68.7696L10.2367 66.0889L7.56343 59.2997L4.89012 66.0889L0 68.7696L4.89012 71.4471L7.56343 78.2395L10.2367 71.4471Z" fill="#8C8184"/>
</svg>
