<svg width="159" height="238" viewBox="0 0 159 238" fill="none" xmlns="http://www.w3.org/2000/svg">
<g clip-path="url(#clip0_288_43)">
<path d="M9.30957 25.6509C9.52232 25.5271 9.76422 25.4619 10.0105 25.462C10.2596 25.4615 10.5044 25.5266 10.7202 25.6508C10.9359 25.775 11.115 25.9538 11.2392 26.1692C14.5344 31.8949 25.0525 40.389 33.5 47.2157C41.2788 53.4958 45.7342 57.1603 46.85 59.4506C49.2026 64.2722 53.7909 69.9296 57.4003 71.1028C61.4287 72.3967 69.7755 73.5378 71.7534 73.4695C73.2641 73.4132 76.0759 73.152 77.6187 73.0034C78.2065 72.9489 78.7886 72.8454 79.359 72.694L80.7931 72.3203H81.0227C81.9889 72.4072 82.961 72.4072 83.9272 72.3203C84.6805 72.1074 87.4842 71.2113 87.5124 71.2033L87.875 71.0868L88.2456 71.1671C88.3262 71.1671 96.4877 72.9431 99.5573 72.9793C100.629 72.9793 101.857 73.0596 103.163 73.132C105.684 73.2726 108.541 73.4333 109.93 73.132C110.631 72.9833 113.077 71.5247 113.483 69.7729C114.076 67.2455 113.286 66.4901 113.028 66.245C112.436 65.7106 108.819 64.6378 106.357 64.2682C105.149 64.0874 103.211 63.4646 101.346 62.8578C99.9158 62.3958 98.1232 61.8172 97.5512 61.7649C97.1483 61.7248 96.532 61.7087 95.7545 61.6846C91.0091 61.548 81.1355 61.2627 71.3667 55.3803C71.0644 55.1784 70.8517 54.8681 70.7729 54.5139C70.6941 54.1597 70.7552 53.7888 70.9435 53.4783C71.1318 53.1678 71.4329 52.9417 71.784 52.847C72.1352 52.7522 72.5094 52.7961 72.829 52.9695C81.9613 58.4702 91.3313 58.7394 95.8351 58.8679C96.6649 58.892 97.3215 58.9121 97.817 58.9563C98.6509 59.0367 100.037 59.4706 102.216 60.1617C103.709 60.6911 105.234 61.1298 106.78 61.4756C108.041 61.6645 113.463 62.7453 114.986 64.2039C115.854 65.0428 116.387 66.1682 116.485 67.3701C122.293 67.3942 124.489 64.6258 124.582 64.5012L125.415 63.4123L126.543 64.2159C127.037 64.5611 127.556 64.87 128.094 65.1401C131.317 66.675 135.692 67.0928 137.795 67.2937C138.173 67.3299 138.479 67.358 138.701 67.3862C139.527 67.5295 140.315 67.8428 141.013 68.3063C143.155 69.549 145.449 70.5119 147.837 71.1712C152.377 72.5333 154.605 70.4198 155.491 69.122L154.972 68.7202C154.268 68.7487 153.567 68.6225 152.917 68.3505C151.602 67.7587 150.494 66.7892 149.735 65.566C149.534 65.4844 149.328 65.4147 149.118 65.3571C147.594 64.8729 146.132 64.2107 144.764 63.3842C142.663 62.1476 140.42 61.1681 138.085 60.4671C135.523 59.6866 133.036 58.6809 130.652 57.4616C129.182 56.7504 127.909 56.1357 127.172 56.0473C125.661 55.8745 120.324 56.2321 117.504 56.421C116.597 56.4852 115.892 56.5335 115.49 56.5536C114.184 56.6178 112.009 55.549 108.573 53.8012C106.732 52.865 104.645 51.7922 103.678 51.5551C102.366 51.2054 101.007 51.0631 99.6499 51.1332C99.0618 51.1332 98.3931 51.1332 97.5673 51.1332C95.8028 51.085 89.1802 49.6425 80.0197 47.6054C75.0809 46.5085 70.416 45.4718 69.0303 45.279C64.9415 44.7124 55.6681 38.0465 49.1865 31.031C45.6173 27.1657 42.6525 23.9673 40.1428 21.2672C30.4988 10.8726 27.5863 7.73449 23.5741 2.23782C23.3529 1.93518 23.2613 1.5573 23.3195 1.18732C23.3777 0.81734 23.5808 0.485561 23.8842 0.264971C24.1877 0.0443824 24.5665 -0.0469471 24.9374 0.0110744C25.3084 0.069096 25.641 0.271716 25.8622 0.57436C29.7536 5.94245 32.6379 9.0524 42.1771 19.3546C44.6827 22.0588 47.6557 25.2571 51.2208 29.1225C57.5816 36.0134 66.3554 42.0686 69.3767 42.4905C70.8752 42.6954 75.379 43.6959 80.5917 44.8571C87.0814 46.2955 95.968 48.2724 97.5995 48.3166C98.4052 48.3166 99.0336 48.3166 99.6137 48.3166C101.211 48.2509 102.809 48.4242 104.355 48.8309C105.624 49.1564 107.662 50.193 109.826 51.294C111.602 52.198 114.583 53.7048 115.336 53.7409L117.302 53.6164C121.568 53.3271 125.871 53.0619 127.502 53.2547C128.711 53.3954 130.117 54.0584 131.889 54.9303C134.123 56.0828 136.455 57.0361 138.858 57.7791C141.392 58.5414 143.826 59.6016 146.109 60.9372C147.293 61.6609 148.557 62.246 149.876 62.6811C153.243 63.5811 158.013 67.5027 158.194 67.6795L159 68.3344L158.625 69.2827C157.638 71.7819 153.94 75.9606 147.02 73.8833C145.686 73.4815 144.574 73.0797 143.632 72.7181C144.868 75.3941 146.343 78.8536 146.669 80.8024C147.205 84.0168 148.071 96.8745 148.107 97.4049L148.204 98.8433L146.77 98.9156C146.516 98.9156 140.457 99.1929 138.032 95.0302C136.916 92.9947 136.167 90.7792 135.821 88.4848C134.789 93.0172 133.343 99.0282 133.251 99.3978L132.904 100.836L131.482 100.434C128.836 99.663 123.945 96.7379 124.348 91.193C124.642 87.0906 125.617 84.5472 126.298 83.2212C125.776 82.6417 125.312 82.0133 124.912 81.3448C124.853 81.5355 124.782 81.7221 124.698 81.9033C123.832 83.7958 117.584 94.99 117.318 95.4682L116.803 96.3883L115.776 96.1593C115.054 95.9629 114.378 95.6265 113.787 95.1694C113.196 94.7123 112.702 94.1434 112.331 93.4953C111.151 91.4863 111.054 88.8023 112.041 85.4954C112.601 83.5466 113.501 81.7117 114.7 80.0751C113.578 78.5643 112.883 76.7815 112.686 74.9119C112.02 75.3644 111.286 75.7063 110.51 75.9245C108.75 76.3022 105.825 76.1374 102.993 75.9847C101.721 75.9124 100.52 75.8481 99.5089 75.8321C96.5199 75.7959 89.6958 74.3936 88.0079 74.036C87.2023 74.2891 85.321 74.8878 84.6805 75.0727C83.8305 75.3097 82.0097 75.2495 81.0549 75.1972L80.0559 75.4584C79.3396 75.6484 78.6096 75.7828 77.8725 75.8602C76.2974 76.0089 73.4413 76.262 71.83 76.3303C69.3807 76.4147 60.7318 75.1972 56.502 73.8311C51.966 72.3685 46.9185 66.1366 44.2799 60.7363C43.3816 58.9001 37.4317 54.1026 31.6912 49.4577C22.6395 42.0726 12.347 33.7512 8.78587 27.5755C8.59949 27.251 8.54996 26.866 8.64816 26.505C8.74637 26.1441 8.98428 25.8369 9.30957 25.6509ZM134.189 81.164C132.432 79.9357 130.838 78.4912 129.444 76.8647C128.18 75.3018 127.285 73.4754 126.825 71.5207C126.447 71.5649 126.02 71.6051 125.52 71.6372C125.458 72.5201 125.458 73.4062 125.52 74.2891C126.197 79.7175 128.807 81.7185 128.916 81.7988L130.08 82.6667L129.194 83.8119C129.194 83.8119 127.538 86.062 127.156 91.3537C126.926 94.54 129.283 96.3039 130.874 97.1236C130.914 96.9669 130.954 96.7941 130.995 96.6173C130.361 95.7939 130.061 94.7622 130.157 93.7284C130.495 90.9157 131.768 90.1483 131.768 90.1483L132.469 90.2889C133.182 87.2232 133.847 84.2619 133.996 83.3538C134.141 82.6332 134.206 81.8988 134.189 81.164ZM129.287 68.6197L129.383 69.8251C129.642 71.7363 130.417 73.5415 131.623 75.0485C133.33 76.9858 135.333 78.6428 137.557 79.9586L138.338 80.4046L138.266 81.3006C138.266 81.3769 137.694 88.8224 140.478 93.5958C141.473 95.3034 143.7 95.8459 145.175 96.0066C145.175 95.8861 145.175 95.7575 145.15 95.6289C144.324 95.01 143.736 94.126 143.487 93.1257C143.194 91.6706 143.353 90.1612 143.942 88.7982L144.627 88.7018C144.373 85.5878 144.091 82.5462 143.877 81.2644C143.475 78.9701 140.776 73.2043 139.539 70.7252C139.174 70.4786 138.773 70.2902 138.351 70.1666L137.525 70.0823C135.736 69.9135 132.413 69.5921 129.287 68.5996V68.6197ZM123.272 68.8527C124.756 68.9295 126.244 68.8297 127.704 68.5554L128.574 68.3746C128.004 68.1737 127.445 67.9444 126.898 67.6875C126.559 67.5268 126.229 67.342 125.935 67.1692C125.131 67.847 124.235 68.4071 123.272 68.8327V68.8527ZM114.752 86.283C114.019 88.738 114.015 90.7028 114.752 91.9966C114.948 92.3414 115.206 92.6466 115.514 92.8966L115.796 92.3904C115.607 91.9497 115.509 91.4754 115.509 90.9961C115.509 90.5168 115.607 90.0425 115.796 89.6019C116.879 87.3076 118.052 86.9138 118.052 86.9138L118.656 87.2593C120.299 84.2659 121.798 81.5015 122.161 80.71C122.644 79.5568 122.745 76.3424 122.716 74.5503C122.642 73.577 122.632 72.5998 122.688 71.6252C120.856 71.5346 119.067 71.0377 117.451 70.1707C117.073 70.1707 116.682 70.1908 116.279 70.1707L116.231 70.3876C116.091 70.9694 115.86 71.5254 115.546 72.035C114.93 76.6035 117.383 78.8416 117.488 78.938L118.652 79.9626L117.528 81.0314C117.528 81.0314 115.804 82.7471 114.752 86.2629V86.283Z" fill="white"/>
<path d="M103.771 71.2357C104.254 71.4514 104.751 71.6366 105.257 71.7901C105.366 71.7901 108.15 72.5656 109.286 72.1236C110.422 71.6817 111.534 70.866 111.812 69.7128C112.037 68.7726 112.106 67.3462 111.256 66.864C109.928 66.1221 108.484 65.6087 106.986 65.3452C105.467 65.1604 104.214 65.1162 103.275 65.9399C102.647 66.4944 102.236 67.7078 102.313 68.7123C102.331 69.2196 102.474 69.7147 102.728 70.1545C102.982 70.5943 103.34 70.9655 103.771 71.2357Z" fill="white"/>
<path d="M70.1461 198.177C70.5211 198.177 70.8807 198.029 71.1459 197.764C71.4111 197.5 71.5601 197.141 71.5601 196.767V104.22C71.5332 103.865 71.373 103.534 71.1115 103.292C70.8501 103.05 70.5067 102.916 70.1501 102.916C69.7936 102.916 69.4502 103.05 69.1888 103.292C68.9273 103.534 68.7671 103.865 68.7402 104.22V196.767C68.7402 197.14 68.8881 197.497 69.1515 197.761C69.4149 198.026 69.7725 198.175 70.1461 198.177Z" fill="#8C8184"/>
<path opacity="0.29" d="M55.4465 193.352C55.7939 193.377 56.1374 193.265 56.4022 193.039C56.667 192.813 56.8317 192.492 56.8605 192.146V163.751C56.804 163.419 56.6314 163.117 56.3733 162.9C56.1153 162.682 55.7884 162.563 55.4505 162.563C55.1127 162.563 54.7858 162.682 54.5278 162.9C54.2697 163.117 54.0971 163.419 54.0406 163.751V192.146C54.0694 192.491 54.233 192.811 54.496 193.036C54.7591 193.262 55.1005 193.375 55.4465 193.352Z" fill="#8C8184"/>
<path d="M-1.33514e-05 220.164C2.08542 220.947 3.97961 222.165 5.55637 223.735C7.13314 225.306 8.3563 227.194 9.1444 229.273C9.93225 227.192 11.1562 225.304 12.7346 223.733C14.313 222.162 16.2093 220.945 18.2969 220.164C16.2099 219.379 14.3144 218.161 12.7363 216.589C11.1582 215.017 9.93379 213.128 9.1444 211.047C8.3559 213.127 7.13269 215.015 5.55606 216.587C3.97941 218.159 2.08544 219.378 -1.33514e-05 220.164Z" fill="#8C8184"/>
<path opacity="0.29" d="M85.2123 176.472C85.9938 176.472 86.6302 176.134 86.6302 175.721V158.065C86.6302 157.663 85.9938 157.318 85.2123 157.318C84.4308 157.318 83.7983 157.651 83.7983 158.065V175.721C83.7983 176.134 84.4308 176.472 85.2123 176.472Z" fill="#8C8184"/>
<path d="M125.484 162.549C123.391 163.328 121.489 164.543 119.905 166.114C118.321 167.685 117.092 169.575 116.299 171.658C115.512 169.578 114.288 167.69 112.71 166.119C111.133 164.548 109.237 163.331 107.151 162.549C109.237 161.764 111.132 160.545 112.709 158.973C114.286 157.401 115.51 155.513 116.299 153.432C117.092 155.516 118.321 157.407 119.905 158.979C121.489 160.552 123.391 161.769 125.484 162.549Z" fill="#8C8184"/>
<path d="M13.2292 147.289C11.8577 147.801 10.6115 148.599 9.57427 149.63C8.53702 150.661 7.7326 151.901 7.21487 153.268C6.69689 151.903 5.89332 150.664 4.85766 149.633C3.822 148.602 2.57802 147.803 1.20856 147.289C2.5779 146.774 3.82165 145.974 4.85721 144.942C5.89278 143.911 6.69646 142.671 7.21487 141.306C7.73326 142.673 8.53786 143.913 9.57498 144.945C10.6121 145.976 11.8579 146.776 13.2292 147.289Z" fill="#8C8184"/>
<path d="M94.0344 207.7C95.4052 208.213 96.6506 209.012 97.6877 210.043C98.7248 211.074 99.5297 212.313 100.049 213.679C100.566 212.314 101.369 211.074 102.405 210.043C103.441 209.012 104.685 208.213 106.055 207.7C104.685 207.183 103.44 206.382 102.404 205.348C101.369 204.314 100.566 203.072 100.049 201.705C99.5307 203.073 98.7263 204.315 97.6893 205.349C96.6522 206.383 95.4063 207.184 94.0344 207.7Z" fill="#8C8184"/>
<path d="M34.7407 194.103C36.1139 194.617 37.361 195.417 38.3984 196.451C39.4357 197.485 40.2393 198.729 40.755 200.098C41.273 198.733 42.0766 197.494 43.1123 196.463C44.1479 195.432 45.3919 194.633 46.7614 194.119C45.392 193.604 44.1483 192.804 43.1127 191.772C42.0771 190.741 41.2735 189.501 40.755 188.136C40.2347 189.5 39.4293 190.737 38.3923 191.766C37.3552 192.795 36.1104 193.591 34.7407 194.103Z" fill="#8C8184"/>
<path d="M34.6077 82.5424C35.9791 83.0558 37.2249 83.855 38.262 84.8867C39.2991 85.9184 40.1037 87.1588 40.6221 88.5253C41.1361 87.1608 41.9359 85.9214 42.9681 84.8897C44.0004 83.858 45.2414 83.0578 46.6083 82.5424C45.2376 82.0294 43.9927 81.2303 42.9568 80.1985C41.921 79.1667 41.1181 77.926 40.602 76.5596C40.0858 77.924 39.2843 79.1632 38.2507 80.1948C37.2172 81.2264 35.9754 82.0266 34.6077 82.5424Z" fill="#8C8184"/>
<path d="M79.2019 105.08C80.5731 105.592 81.8188 106.39 82.856 107.421C83.8932 108.453 84.6978 109.692 85.2162 111.058C85.7342 109.693 86.5378 108.454 87.5734 107.423C88.6091 106.392 89.8531 105.593 91.2225 105.08C89.8532 104.564 88.6094 103.764 87.5739 102.733C86.5383 101.701 85.7346 100.462 85.2162 99.0967C84.6974 100.463 83.8926 101.703 82.8556 102.735C81.8185 103.766 80.5729 104.566 79.2019 105.08Z" fill="#8C8184"/>
<path d="M79.2019 147.289C80.5731 147.801 81.8188 148.6 82.856 149.631C83.8932 150.662 84.6978 151.902 85.2162 153.268C85.7342 151.903 86.5378 150.664 87.5734 149.633C88.6091 148.602 89.8531 147.803 91.2225 147.289C89.8532 146.774 88.6094 145.974 87.5739 144.942C86.5383 143.911 85.7346 142.671 85.2162 141.306C84.6974 142.672 83.8926 143.912 82.8556 144.944C81.8185 145.976 80.5729 146.775 79.2019 147.289Z" fill="#8C8184"/>
<path d="M49.4282 147.968C50.7999 148.481 52.0461 149.28 53.0833 150.311C54.1205 151.343 54.9248 152.584 55.4425 153.951C55.9598 152.585 56.7631 151.345 57.7988 150.313C58.8345 149.282 60.0789 148.482 61.4489 147.968C60.0793 147.453 58.8353 146.653 57.7997 145.622C56.764 144.59 55.9605 143.351 55.4425 141.985C54.9242 143.352 54.1196 144.592 53.0824 145.624C52.0453 146.655 50.7995 147.455 49.4282 147.968Z" fill="#8C8184"/>
<path d="M94.7595 127.701C96.1303 128.214 97.3757 129.013 98.4128 130.044C99.4499 131.075 100.255 132.314 100.774 133.68C101.292 132.315 102.095 131.076 103.131 130.045C104.167 129.014 105.411 128.215 106.78 127.701C105.411 127.186 104.167 126.386 103.132 125.354C102.096 124.323 101.292 123.083 100.774 121.718C100.254 123.084 99.4493 124.324 98.4124 125.355C97.3754 126.387 96.1302 127.187 94.7595 127.701Z" fill="#8C8184"/>
<path opacity="0.3" d="M26.0354 70.6932C26.0354 69.901 26.6783 69.2588 27.4715 69.2588C28.2646 69.2588 28.9076 69.901 28.9076 70.6932V157.495C28.9076 158.287 28.2646 158.929 27.4715 158.929C26.6783 158.929 26.0354 158.287 26.0354 157.495V70.6932Z" fill="#8C8184"/>
<path opacity="0.3" d="M39.18 99.2333C39.18 98.4411 39.823 97.7989 40.6161 97.7989C41.4093 97.7989 42.0522 98.4411 42.0522 99.2333V145.85C42.0522 146.643 41.4093 147.285 40.6161 147.285C39.823 147.285 39.18 146.643 39.18 145.85V99.2333Z" fill="#8C8184"/>
<path opacity="0.3" d="M53.956 118.669C53.956 117.876 54.599 117.234 55.3921 117.234C56.1853 117.234 56.8282 117.876 56.8282 118.669V135.821C56.8282 136.614 56.1853 137.256 55.3921 137.256C54.599 137.256 53.956 136.614 53.956 135.821V118.669Z" fill="#8C8184"/>
<path opacity="0.3" d="M83.7782 117.604C83.7782 116.812 84.4211 116.169 85.2143 116.169C86.0074 116.169 86.6504 116.812 86.6504 117.604V134.757C86.6504 135.549 86.0074 136.191 85.2143 136.191C84.4211 136.191 83.7782 135.549 83.7782 134.757V117.604Z" fill="#8C8184"/>
<path opacity="0.3" d="M114.893 120.284C114.893 119.492 115.536 118.849 116.329 118.849C117.123 118.849 117.766 119.492 117.766 120.284V147.08C117.766 147.872 117.123 148.514 116.329 148.514C115.536 148.514 114.893 147.872 114.893 147.08V120.284Z" fill="#8C8184"/>
<path opacity="0.3" d="M99.3358 139.048C99.3358 138.256 99.9787 137.614 100.772 137.614C101.565 137.614 102.208 138.256 102.208 139.048V188.14C102.208 188.932 101.565 189.575 100.772 189.575C99.9787 189.575 99.3358 188.932 99.3358 188.14V139.048Z" fill="#8C8184"/>
</g>
<defs>
<clipPath id="clip0_288_43">
<rect width="159" height="238" fill="white" transform="matrix(-1 0 0 1 159 0)"/>
</clipPath>
</defs>
</svg>
