<svg width="173" height="216" viewBox="0 0 173 216" fill="none" xmlns="http://www.w3.org/2000/svg">
<path d="M148.677 75.9484C147.034 75.9484 145.701 74.6228 145.701 72.9876C145.701 71.3524 147.034 70.0269 148.677 70.0269C150.32 70.0269 151.652 71.3524 151.652 72.9876C151.652 74.6228 150.32 75.9484 148.677 75.9484Z" fill="#8C8184"/>
<path d="M164.454 90.0119L160.372 87.7913L164.454 85.5681L166.685 79.9375L168.917 85.5681L172.999 87.7913L168.917 90.0119L166.685 95.6451L164.454 90.0119Z" fill="#8C8184"/>
<path d="M146.685 99.4164C154.468 107.429 158.185 116.848 162.126 126.819C163.59 130.525 165.104 134.351 166.847 138.116C166.904 138.241 166.936 138.376 166.941 138.513C166.945 138.649 166.923 138.786 166.874 138.914C166.826 139.042 166.752 139.16 166.658 139.259C166.564 139.359 166.451 139.439 166.325 139.496C166.188 139.558 166.04 139.59 165.889 139.589C165.693 139.589 165.5 139.533 165.334 139.429C165.168 139.325 165.035 139.176 164.95 139C163.183 135.174 161.659 131.312 160.181 127.572C156.319 117.799 152.67 108.566 145.185 100.853C136.554 91.9599 124.263 86.615 112.378 81.4467C103.606 77.6314 95.1181 73.9357 88.481 69.0011C88.3902 69.2162 88.2293 69.3946 88.0243 69.5076L87.3587 69.8608L87.3222 69.8789C80.325 73.5279 71.686 76.8913 63.6344 76.8913C59.1818 76.8913 54.9041 75.8524 51.1902 73.2708C50.1801 72.5656 49.2374 71.7692 48.374 70.8918C48.2669 70.7834 48.185 70.6529 48.1341 70.5095C48.0832 70.3661 48.0646 70.2133 48.0795 70.062C48.0944 69.9106 48.1426 69.7644 48.2205 69.6336C48.2985 69.5028 48.4043 69.3906 48.5306 69.305L48.6089 69.253C58.9678 62.3212 72.8501 61.3421 85.4274 66.5078C82.1911 63.6068 79.5707 60.2747 77.8116 56.314C75.8367 56.4387 73.9393 56.501 72.1193 56.501C51.2006 56.501 40.325 48.5719 32.4351 40.6091C32.3176 40.4902 32.2305 40.3449 32.1813 40.1855C32.1321 40.0261 32.1221 39.8572 32.1523 39.6931C32.1825 39.5291 32.252 39.3747 32.3548 39.243C32.4576 39.1113 32.5908 39.0062 32.7431 38.9365C35.875 37.5133 37.9421 36.9185 40.3563 36.5133C38.6509 35.6863 37.0006 34.7511 35.4157 33.7136C34.0533 32.8618 32.7301 32.0359 31.3494 31.3528C30.9406 32.0526 30.3629 32.64 29.6686 33.0617C28.7156 33.6463 27.5919 33.8928 26.4802 33.7611C25.3686 33.6294 24.3344 33.1273 23.5459 32.3364C22.7575 31.5455 22.2612 30.5125 22.1378 29.4052C22.0143 28.298 22.271 27.1818 22.8661 26.2382C23.4612 25.2946 24.3596 24.5791 25.4152 24.2081C26.4709 23.8372 27.6216 23.8326 28.6801 24.1951C29.7387 24.5577 30.6429 25.266 31.2455 26.2048C31.8482 27.1437 32.1138 28.2578 31.9993 29.366C33.5564 30.145 35.0674 31.0121 36.5249 31.9631C38.2788 33.0591 40.0823 34.1837 42.0554 34.994C41.6352 34.0928 41.2724 33.1474 40.9122 32.2151C40.526 31.2022 40.1606 30.2438 39.7482 29.4205C39.6734 29.2717 39.6356 29.1073 39.638 28.9409C39.6403 28.7745 39.6828 28.6112 39.7619 28.4646C39.8409 28.318 39.9542 28.1924 40.0921 28.0984C40.2301 28.0045 40.3887 27.9448 40.5547 27.9246C44.1303 27.4908 47.1552 28.057 50.3393 28.6751C48.8258 27.596 47.3798 26.426 46.0094 25.1716C44.8063 24.1119 43.637 23.0783 42.3868 22.1823C41.6029 23.1273 40.4953 23.7503 39.2774 23.9313C38.0595 24.1124 36.8173 23.8387 35.7901 23.163C34.7628 22.4872 34.0231 21.4572 33.7133 20.2712C33.4035 19.0852 33.5456 17.8271 34.1122 16.7391C34.6787 15.6511 35.6298 14.8102 36.7821 14.3782C37.9345 13.9462 39.2067 13.9536 40.3539 14.3992C41.501 14.8447 42.442 15.6968 42.9956 16.7914C43.5492 17.8859 43.6764 19.1456 43.3525 20.3279C44.7614 21.3471 46.1111 22.4449 47.3953 23.6159C48.6393 24.7543 49.9463 25.8225 51.3102 26.8156C49.4241 23.5104 48.2674 19.8431 47.9173 16.0582C47.9031 15.8972 47.9268 15.7351 47.9866 15.5848C48.0464 15.4346 48.1407 15.3002 48.2618 15.1926C48.3829 15.0849 48.5276 15.0068 48.6844 14.9646C48.8412 14.9223 49.0057 14.9171 49.1649 14.9492C52.9173 15.6942 56.6145 16.692 60.231 17.9359C59.3358 16.5049 58.6024 15.0245 57.8821 13.5753C57.2123 12.1628 56.4719 10.7846 55.6636 9.44583C54.5775 10.021 53.316 10.1759 52.122 9.88077C50.9279 9.58564 49.8859 8.86134 49.1964 7.84734C48.507 6.83335 48.2189 5.60138 48.3878 4.38868C48.5566 3.17599 49.1703 2.06833 50.1108 1.27902C51.0513 0.489715 52.252 0.0745814 53.4817 0.113568C54.7114 0.152554 55.8831 0.642903 56.7711 1.49018C57.6592 2.33746 58.2009 3.48175 58.2918 4.70268C58.3827 5.92362 58.0164 7.13484 57.2635 8.10311C58.1802 9.57706 59.0123 11.1014 59.756 12.6689C60.6147 14.4038 61.5021 16.1828 62.6452 17.8165C62.7157 16.8166 62.8044 15.827 62.9375 14.8713C63.1447 13.3365 63.4436 11.8153 63.8327 10.3159C63.8721 10.1631 63.9459 10.0213 64.0486 9.90116C64.1512 9.78101 64.28 9.6857 64.4252 9.62244C64.5688 9.55959 64.7248 9.52975 64.8816 9.53514C65.0384 9.54054 65.1919 9.58103 65.3308 9.65361C71.8348 13.0507 76.5066 16.6062 79.2758 20.2552C79.1426 18.3715 79.1295 16.4813 79.2366 14.596C79.2966 12.9987 79.3567 11.443 79.2601 9.92111C78.0293 9.91795 76.8432 9.4618 75.9301 8.64048C75.0171 7.81917 74.4416 6.69076 74.3146 5.47252C74.1876 4.25428 74.5179 3.03234 75.2421 2.04198C75.9663 1.05163 77.033 0.362869 78.2369 0.108324C79.4409 -0.14622 80.6969 0.0514454 81.7631 0.663263C82.8294 1.27508 83.6305 2.25779 84.0122 3.42219C84.3939 4.58658 84.3292 5.85033 83.8306 6.97011C83.332 8.08989 82.4347 8.98653 81.3115 9.48739C81.415 11.2172 81.4193 12.9514 81.3246 14.6817C81.2086 16.594 81.2296 18.5121 81.3872 20.4214C83.2846 17.9255 85.2499 15.3751 87.3927 13.0377C87.5243 12.8954 87.6932 12.7925 87.8804 12.7405C88.0676 12.6886 88.2656 12.6896 88.4523 12.7436C88.6389 12.7976 88.8067 12.9024 88.9367 13.0461C89.0667 13.1898 89.1539 13.3668 89.1883 13.5571C89.6633 16.2426 91.1405 25.504 90.2453 32.0385C89.217 39.539 86.0251 46.5254 79.6281 55.2726C81.4681 59.5241 84.4095 63.0251 88.1026 66.0559C88.7446 53.9091 91.9862 38.8404 103.483 33.6227C104.605 33.1171 105.771 32.7146 106.967 32.4202C107.117 32.3816 107.273 32.3764 107.425 32.405C107.576 32.4336 107.72 32.4954 107.844 32.5858C107.969 32.6762 108.072 32.793 108.146 32.9279C108.22 33.0627 108.263 33.2122 108.272 33.3656C108.272 33.3656 108.272 33.4487 108.272 33.4539C109.055 46.5098 102.141 59.5657 90.1957 67.6766C96.5901 72.3203 104.767 75.8784 113.21 79.5507C115.559 80.5688 117.908 81.5973 120.257 82.6673C115.961 72.4216 112.814 58.5839 120.257 47.959C120.995 46.9057 121.813 45.9107 122.705 44.9827C122.816 44.8655 122.953 44.7759 123.105 44.7213C123.256 44.6667 123.419 44.6486 123.58 44.6684C123.74 44.6863 123.895 44.7411 124.031 44.8285C124.167 44.9159 124.28 45.0336 124.362 45.1722C130.462 55.4881 129.911 70.2945 122.953 83.8906C131.73 87.9889 140.163 92.6949 146.685 99.4164ZM52.3881 71.5827C60.6434 77.3328 72.2237 74.5512 81.8961 70.2114L81.1445 70.2374C75.1207 70.4451 65.2238 70.7334 51.7278 71.0996C51.9444 71.2658 52.1585 71.4269 52.3881 71.5827V71.5827ZM53.2259 68.9855C71.6704 68.4843 79.9648 68.2064 83.6944 68.0739C73.3721 64.1107 62.2459 64.4613 53.2259 68.9803V68.9855ZM87.4866 16.079C85.798 18.058 84.1981 20.1643 82.64 22.216C82.0945 22.9354 81.5516 23.6523 81.0088 24.3561C80.8994 24.4983 80.7549 24.6099 80.5894 24.6801C80.4238 24.7504 80.2429 24.7769 80.064 24.757C79.8852 24.7371 79.7146 24.6716 79.5687 24.5668C79.4228 24.462 79.3066 24.3214 79.2314 24.1587C77.3679 20.1513 72.6491 16.0036 65.5422 12.1235C65.3256 13.1026 65.1481 14.1155 65.0046 15.1466C64.7673 16.912 64.6357 18.6898 64.6105 20.4707C64.6078 20.6462 64.5604 20.8182 64.4728 20.9705C64.3852 21.1229 64.2603 21.2507 64.1096 21.3419C63.959 21.4332 63.7876 21.4851 63.6114 21.4926C63.4351 21.5001 63.2599 21.4631 63.1019 21.3849C60.1083 19.9046 55.447 18.432 50.1619 17.2866C50.8013 21.5589 52.61 25.5975 55.7889 29.9036C55.9102 30.0673 55.9806 30.2629 55.9913 30.466C56.0019 30.6691 55.9524 30.8709 55.8489 31.0463C55.7456 31.221 55.5932 31.3617 55.4105 31.4513C55.2277 31.5408 55.0227 31.5752 54.8206 31.5502C53.1659 31.345 51.6234 31.0463 50.1227 30.7555C47.4867 30.236 44.9785 29.7608 42.2302 29.875C42.4495 30.3945 42.6557 30.9502 42.8592 31.4853C43.5404 33.2721 44.2451 35.1213 45.2917 36.3445C45.4145 36.4876 45.4959 36.6611 45.5273 36.8466C45.5588 37.032 45.539 37.2225 45.4701 37.3977C45.4013 37.5729 45.2859 37.7261 45.1363 37.8412C44.9868 37.9562 44.8087 38.0287 44.6209 38.0509C40.5755 38.5339 38.4824 38.7859 34.9955 40.2325C42.8514 47.8551 53.9045 55.0856 74.9563 54.3817C72.7144 53.7273 70.5846 53.1247 68.5097 52.5378C61.656 50.6003 56.243 49.068 52.4195 47.1643C52.2926 47.1058 52.1788 47.0227 52.0848 46.9197C51.9908 46.8166 51.9186 46.6959 51.8724 46.5646C51.8262 46.4332 51.807 46.294 51.8159 46.1552C51.8248 46.0164 51.8617 45.8807 51.9243 45.7563C51.9869 45.6319 52.074 45.5213 52.1803 45.431C52.2867 45.3407 52.4102 45.2726 52.5436 45.2307C52.6769 45.1889 52.8173 45.1741 52.9565 45.1872C53.0957 45.2004 53.2308 45.2412 53.3538 45.3073C56.9242 47.0838 62.1128 48.5667 68.6611 50.4211C62.5017 46.6682 57.6759 42.0037 55.1468 39.5572L54.7684 39.191C54.5764 38.9977 54.4681 38.7373 54.4668 38.4655C54.4656 38.1937 54.5714 37.9322 54.7616 37.7372C54.9518 37.5421 55.2113 37.429 55.4843 37.4221C55.7573 37.4152 56.0222 37.5151 56.2221 37.7002L56.5954 38.0664C59.7012 41.0713 66.3774 47.5305 74.6248 51.234C68.2331 43.4425 63.5404 34.5291 61.6117 30.8723C61.4833 30.6282 61.4576 30.3432 61.5403 30.0802C61.623 29.8172 61.8074 29.5976 62.0528 29.4699C62.2981 29.3421 62.5845 29.3166 62.8488 29.3989C63.1131 29.4812 63.3337 29.6646 63.4621 29.9088C65.4692 33.6695 70.428 43.0867 77.1121 50.9561C76.029 40.5285 72.8475 33.6799 69.6294 27.5558C69.501 27.3116 69.4753 27.0267 69.5581 26.7636C69.6408 26.5006 69.8251 26.2811 70.0705 26.1533C70.3159 26.0255 70.6022 26 70.8665 26.0823C71.1308 26.1646 71.3515 26.348 71.4799 26.5922C74.3795 32.1112 77.2531 38.1989 78.6755 46.85C79.0696 45.2294 79.5237 43.5283 80.0039 41.7362C81.0061 37.9989 82.0423 34.137 82.7339 30.1218C82.7437 29.9769 82.7838 29.8357 82.8517 29.7073C82.9197 29.5788 83.0139 29.466 83.1283 29.376C83.2428 29.286 83.3749 29.2209 83.5162 29.1848C83.6575 29.1488 83.8048 29.1426 83.9487 29.1666C84.0925 29.1907 84.2297 29.2445 84.3514 29.3246C84.4731 29.4046 84.5765 29.5092 84.6551 29.6315C84.7337 29.7538 84.7856 29.8911 84.8076 30.0346C84.8296 30.1781 84.8211 30.3245 84.7827 30.4646C84.0728 34.5733 83.0236 38.482 82.011 42.2634C81.1132 45.6138 80.3041 48.6524 79.8604 51.3327C84.7827 44.1256 87.3065 38.1184 88.1757 31.7632C88.8673 26.7377 88.0634 19.902 87.4866 16.079ZM106.184 37.56C97.2583 53.626 93.2833 60.8746 91.5112 64.1444C100.181 57.3035 105.521 47.5798 106.184 37.56ZM90.9265 60.8564C93.7975 55.5868 98.5737 46.9617 105.112 35.1966C104.851 35.3005 104.605 35.407 104.357 35.5186C95.186 39.6741 91.72 51.0236 90.569 61.5161C90.676 61.3058 90.7856 61.085 90.9213 60.8564H90.9265ZM123.253 47.4811C122.797 48.0187 122.369 48.5719 121.974 49.1381C115.215 58.7865 117.973 71.5515 121.93 81.2363C127.513 69.3076 128.014 56.6698 123.253 47.4811Z" fill="#8C8184"/>
<path d="M84.1198 156.141C72.3125 150.604 60.2754 144.96 52.396 137.384C52.3255 137.398 52.2539 137.406 52.182 137.408C51.9668 137.409 51.7568 137.342 51.5817 137.218C44.3574 132.148 39.6125 128.084 37.0052 121.36C31.1432 117.155 26.8264 111.717 24.7932 99.284C24.5566 97.8331 24.333 96.428 24.1225 95.0688C20.7391 91.6558 17.8229 87.8135 15.4496 83.6414C13.7819 80.7845 12.7927 73.4969 15.5462 71.4919C17.3131 70.1933 19.7743 71.2581 22.854 74.6292L22.8906 74.6682C22.9115 74.5877 22.9298 74.4968 22.9506 74.4085C23.7023 71.8321 25.1351 71.1672 26.2078 71.0634C28.7264 70.8166 31.5452 73.5878 33.0302 76.4498C33.8941 78.1146 34.6118 80.9481 35.3165 84.4205C35.4309 83.9965 35.5722 83.5801 35.7393 83.1739C36.7833 80.704 38.2814 80.2157 39.3698 80.2313C41.8962 80.2832 44.3704 83.3661 45.5057 86.3814C46.1608 88.1214 46.5341 90.9471 46.829 94.5312C60.1553 103.05 73.654 108.475 83.5404 112.452C88.5776 114.472 92.7118 116.134 95.7341 117.729C95.4992 116.215 95.2121 114.547 94.7632 112.665C90.4829 110.587 83.2298 105.816 80.6016 101.811C74.0089 98.5282 70.5795 92.5262 70.9448 84.875C70.9704 84.3148 71.1358 83.7698 71.4261 83.2892C71.7163 82.8086 72.1223 82.4074 72.6074 82.122C73.0957 81.8309 73.6494 81.6655 74.2181 81.641C74.7869 81.6166 75.3528 81.7337 75.8646 81.9818C143.144 114.386 151.417 150.243 159.427 184.917C161.604 194.397 163.864 204.188 167.333 213.657C167.427 213.916 167.414 214.201 167.297 214.451C167.18 214.7 166.969 214.893 166.709 214.987C166.595 215.03 166.473 215.052 166.351 215.052C166.137 215.052 165.928 214.987 165.752 214.864C165.577 214.742 165.443 214.569 165.37 214.369C161.86 204.788 159.584 194.924 157.381 185.382C149.491 151.183 141.332 115.823 74.9563 83.8517C74.755 83.7538 74.5322 83.7077 74.3083 83.7176C74.0844 83.7276 73.8666 83.7934 73.6748 83.9089C73.4872 84.02 73.3306 84.1761 73.2193 84.3631C73.1081 84.55 73.0457 84.7618 73.038 84.9789C72.811 89.8408 74.1472 96.4064 81.797 100.081C81.9783 100.168 82.1306 100.305 82.2355 100.476C84.3234 103.91 90.9631 108.426 95.2852 110.605L95.3374 110.587C95.4705 110.554 95.6089 110.547 95.7446 110.567C95.8803 110.588 96.0107 110.634 96.1283 110.705C96.2458 110.775 96.3483 110.868 96.4298 110.978C96.5113 111.088 96.5702 111.213 96.6032 111.345C97.2367 113.947 97.7341 116.58 98.0935 119.233C99.0487 125.726 99.5289 128.99 108.974 135.478C109.087 135.556 109.183 135.656 109.256 135.771C109.33 135.886 109.38 136.014 109.404 136.149C109.428 136.283 109.425 136.421 109.395 136.554C109.366 136.688 109.31 136.814 109.231 136.926C109.153 137.038 109.053 137.133 108.937 137.206C108.821 137.28 108.692 137.33 108.557 137.354C108.422 137.377 108.284 137.374 108.15 137.345C108.016 137.315 107.889 137.26 107.776 137.182C97.9838 130.458 97.0756 126.7 96.136 120.324C93.1972 118.555 88.5907 116.706 82.7705 114.371C73.132 110.501 60.0849 105.257 47.0326 97.1102C47.123 98.4313 47.21 99.8251 47.2935 101.292C47.3118 101.577 47.3301 101.873 47.3484 102.164C48.1313 101.346 48.9535 100.954 49.8121 100.99C51.3964 101.042 52.7353 102.481 53.7949 105.273L53.8288 105.364C54.6118 107.26 55.0529 109.231 55.4314 111.166C55.5909 111.154 55.751 111.18 55.8985 111.241C59.2601 112.646 65.2813 114.358 67.2257 114.825C67.4747 114.885 67.6932 115.033 67.8395 115.242C67.9858 115.451 68.0497 115.707 68.0191 115.96C67.9885 116.213 67.8654 116.446 67.6734 116.615C67.4814 116.783 67.2338 116.876 66.9777 116.875C66.8941 116.874 66.8108 116.864 66.7298 116.843C65.1142 116.449 59.5994 114.921 55.8829 113.467C56.164 115.022 56.585 116.548 57.1409 118.028C63.0237 121.046 66.7716 122.762 68.2697 123.128C68.5187 123.188 68.7372 123.336 68.8835 123.545C69.0297 123.755 69.0937 124.01 69.0631 124.263C69.0324 124.516 68.9094 124.749 68.7174 124.918C68.5254 125.086 68.2778 125.179 68.0217 125.178C67.9381 125.177 67.8548 125.167 67.7738 125.146C66.3252 124.793 63.4413 123.528 58.8112 121.207C61.2541 124.998 65.3178 128.967 69.0996 130.117C69.2314 130.157 69.3541 130.222 69.4606 130.308C69.5671 130.395 69.6553 130.502 69.7202 130.622C69.7851 130.743 69.8254 130.875 69.8387 131.012C69.8521 131.148 69.8383 131.285 69.798 131.416C69.7578 131.547 69.6919 131.669 69.6043 131.774C69.5166 131.88 69.4088 131.967 69.2872 132.031C69.1655 132.095 69.0324 132.134 68.8954 132.147C68.7584 132.159 68.6202 132.145 68.4889 132.104C63.269 130.52 57.8377 124.552 55.588 119.7C55.5227 119.56 55.4679 119.42 55.4079 119.282C55.3727 119.217 55.3439 119.15 55.3217 119.079C54.4161 116.906 53.9724 114.631 53.5496 112.42C53.1268 110.21 52.7248 108.138 51.9001 106.151C51.8871 106.122 51.8688 106.07 51.8401 106C50.77 103.175 49.8461 103.063 49.7521 103.06C49.5668 103.06 48.5907 103.193 47.103 106.47C45.7981 109.327 45.7041 112.729 45.618 115.727C45.6058 116.236 45.5901 116.732 45.571 117.215C44.8298 135.395 64.3469 144.55 85.0098 154.24C105.939 164.067 127.586 174.214 126.49 194.838C126.179 200.734 125.707 207.64 124.663 214.169C124.623 214.412 124.498 214.633 124.31 214.793C124.121 214.953 123.882 215.041 123.634 215.042C123.578 215.041 123.521 215.037 123.465 215.029C123.329 215.007 123.2 214.959 123.083 214.887C122.966 214.815 122.865 214.721 122.785 214.611C122.704 214.5 122.647 214.375 122.615 214.242C122.584 214.109 122.579 213.971 122.601 213.837C123.645 207.406 124.104 200.57 124.412 194.729C125.422 175.5 104.425 165.654 84.1198 156.141ZM21.322 76.0239C18.8165 73.2943 17.3105 72.7775 16.7807 73.167C15.3296 74.2241 15.8464 80.1794 17.2557 82.5999C19.0583 85.764 21.1807 88.7367 23.5901 91.4718C22.747 85.4983 22.3034 80.6676 22.5174 77.3069C22.118 76.8784 21.7187 76.455 21.322 76.0239ZM31.1876 77.4082C29.9166 74.9643 27.7268 72.993 26.4218 73.1359C25.6389 73.2112 25.203 74.1877 24.9681 74.9928C23.9946 78.3328 24.8376 85.9658 26.1269 94.3806C26.3583 95.9042 26.5967 97.4288 26.842 98.9542C28.4889 109.01 31.5399 114.083 35.8933 117.848C35.2017 115.075 34.7763 111.875 34.6092 108.094C34.3091 101.224 34.176 95.3987 34.4213 90.9238C33.333 84.8958 32.3751 79.7015 31.1876 77.4082V77.4082ZM43.483 117.145C43.5039 116.672 43.517 116.184 43.5326 115.682C43.624 112.491 43.7284 108.873 45.2004 105.631C45.2839 105.448 45.3709 105.269 45.4614 105.094C45.3805 103.834 45.3022 102.606 45.2291 101.427C44.8167 94.7935 44.4905 89.5525 43.5718 87.1189C42.6009 84.5426 40.6669 82.3454 39.3254 82.3168C38.5555 82.3168 38.0204 83.2258 37.6837 83.9894C37.06 85.4568 36.7076 87.8695 36.538 90.8666C36.5393 90.8917 36.5393 90.9169 36.538 90.9419C36.277 95.6454 36.4518 101.78 36.7233 108.005C36.9451 113.036 37.6185 116.929 38.8112 120.165C38.8888 120.288 38.9394 120.426 38.96 120.57C40.7087 125.087 43.5039 128.31 47.5415 131.593C44.6704 127.332 43.248 122.267 43.483 117.142V117.145Z" fill="#8C8184"/>
<path d="M125.276 150.687C118.801 143.732 95.1859 142.324 85.101 141.724C84.9639 141.716 84.8298 141.681 84.7062 141.622C84.5826 141.562 84.472 141.479 84.3808 141.377C84.2896 141.274 84.2194 141.155 84.1744 141.026C84.1294 140.897 84.1103 140.761 84.1184 140.624C84.1264 140.488 84.1614 140.354 84.2213 140.231C84.2812 140.108 84.3649 139.998 84.4675 139.907C84.5702 139.817 84.6898 139.747 84.8195 139.702C84.9493 139.657 85.0866 139.638 85.2237 139.646C96.4465 140.314 119.764 141.706 126.808 149.271C126.996 149.474 127.095 149.742 127.084 150.017C127.074 150.292 126.954 150.552 126.75 150.739C126.548 150.926 126.278 151.025 126.002 151.015C125.725 151.005 125.464 150.886 125.276 150.684V150.687Z" fill="#8C8184"/>
<path d="M139.195 161.423C139.232 161.227 139.325 161.046 139.462 160.901C139.6 160.757 139.777 160.654 139.971 160.607C140.166 160.559 140.37 160.568 140.56 160.633C140.749 160.697 140.916 160.815 141.04 160.971C141.413 161.439 141.773 161.912 142.136 162.387C143.506 164.192 144.811 165.89 146.594 167.267C146.72 167.364 146.822 167.488 146.892 167.631C146.962 167.773 146.998 167.929 146.999 168.088V168.417C146.999 168.677 146.901 168.928 146.724 169.119C146.547 169.311 146.305 169.43 146.045 169.452C145.785 169.475 145.525 169.399 145.318 169.241C145.111 169.083 144.971 168.853 144.926 168.597C143.253 167.22 141.972 165.602 140.75 164.007C139.971 167.022 138.644 169.869 136.835 172.409C136.739 172.545 136.611 172.655 136.462 172.731C136.314 172.807 136.149 172.846 135.982 172.846C135.767 172.846 135.557 172.779 135.382 172.653C135.156 172.494 135.004 172.252 134.957 171.981C134.911 171.71 134.974 171.431 135.134 171.207C137.198 168.284 138.585 164.943 139.195 161.423V161.423Z" fill="#8C8184"/>
<path d="M0.57563 148.96L1.06108 148.716C1.6196 148.438 2.17813 148.157 2.74188 147.89C2.99176 147.771 3.27885 147.756 3.53998 147.847C3.8011 147.939 4.01488 148.131 4.13429 148.379C4.25369 148.628 4.26894 148.914 4.17668 149.173C4.08441 149.433 3.8922 149.646 3.64231 149.765C3.09161 150.024 2.54614 150.3 1.99805 150.572L1.51261 150.817C1.26514 150.94 0.978461 150.961 0.715621 150.874C0.452782 150.788 0.235318 150.601 0.111069 150.354C-0.0131812 150.108 -0.0340399 149.823 0.0530838 149.561C0.140207 149.3 0.328169 149.083 0.57563 148.96V148.96Z" fill="#8C8184"/>
<path d="M6.94387 145.918C8.6847 145.121 10.5612 144.298 13.0303 143.246C13.157 143.187 13.2942 143.155 13.4338 143.15C13.5734 143.145 13.7125 143.168 13.8429 143.218C13.9733 143.268 14.0924 143.343 14.1931 143.439C14.2938 143.536 14.374 143.651 14.429 143.779C14.484 143.907 14.5127 144.044 14.5134 144.183C14.5141 144.322 14.4867 144.46 14.433 144.588C14.3792 144.716 14.3001 144.833 14.2004 144.93C14.1007 145.027 13.9823 145.104 13.8524 145.155C11.4016 146.194 9.53814 147.017 7.81558 147.806C7.56396 147.921 7.27674 147.932 7.01708 147.837C6.75742 147.741 6.5466 147.546 6.43101 147.296C6.31541 147.046 6.3045 146.76 6.40067 146.501C6.49685 146.243 6.69225 146.033 6.94387 145.918V145.918Z" fill="#8C8184"/>
<path d="M17.0992 141.542C19.3046 140.631 21.5152 139.724 23.7258 138.839C26.7011 137.631 29.7809 136.384 32.7875 135.119C33.0418 135.017 33.3266 135.018 33.5802 135.122C33.8338 135.227 34.0359 135.426 34.1426 135.678C34.2493 135.93 34.2521 136.213 34.1504 136.467C34.0487 136.72 33.8507 136.924 33.5992 137.034C30.5795 138.301 27.4946 139.553 24.514 140.763C22.306 141.657 20.1015 142.556 17.9004 143.462C17.7739 143.514 17.6381 143.54 17.5011 143.539C17.26 143.539 17.0264 143.456 16.84 143.304C16.6536 143.152 16.5258 142.94 16.4785 142.705C16.4311 142.469 16.4671 142.225 16.5802 142.013C16.6934 141.801 16.8767 141.635 17.0992 141.542Z" fill="#8C8184"/>
<path d="M23.0393 161.945L25.7771 159.751C25.9942 159.596 26.2626 159.53 26.5273 159.566C26.7919 159.602 27.0326 159.737 27.1998 159.945C27.367 160.152 27.4479 160.415 27.4261 160.68C27.4042 160.945 27.2811 161.192 27.0821 161.369L24.3443 163.563C24.1272 163.718 23.8588 163.785 23.5941 163.749C23.3295 163.712 23.0888 163.577 22.9216 163.37C22.7544 163.162 22.6735 162.899 22.6953 162.634C22.7172 162.369 22.8403 162.123 23.0393 161.945Z" fill="#8C8184"/>
<path d="M38.3127 149.165C38.4144 149.073 38.5331 149.002 38.6622 148.957C38.7913 148.911 38.9283 148.891 39.0652 148.897C39.2021 148.904 39.3364 148.938 39.4603 148.996C39.5842 149.054 39.6953 149.136 39.7874 149.238C39.8794 149.339 39.9505 149.457 39.9966 149.585C40.0427 149.714 40.063 149.85 40.0562 149.986C40.0494 150.123 40.0157 150.256 39.9571 150.379C39.8984 150.503 39.8159 150.613 39.7143 150.705C37.4332 152.759 35.0164 154.84 32.3464 157.068C32.2412 157.155 32.1197 157.221 31.9888 157.262C31.858 157.303 31.7203 157.318 31.5838 157.305C31.4472 157.293 31.3144 157.254 31.1929 157.191C31.0714 157.128 30.9636 157.041 30.8757 156.937C30.7878 156.832 30.7215 156.711 30.6805 156.581C30.6395 156.451 30.6248 156.314 30.637 156.178C30.6493 156.042 30.6883 155.91 30.7518 155.789C30.8154 155.668 30.9023 155.561 31.0075 155.473C33.6644 153.263 36.0525 151.206 38.3127 149.165Z" fill="#8C8184"/>
<path d="M56.0186 179.816C56.1119 179.564 56.2999 179.358 56.543 179.24C56.7861 179.123 57.0653 179.104 57.3221 179.188C57.5789 179.271 57.7932 179.45 57.92 179.688C58.0468 179.925 58.0763 180.202 58.0022 180.46L57.1957 182.92C57.1274 183.128 56.9948 183.31 56.8166 183.438C56.6385 183.567 56.4241 183.637 56.2039 183.637C56.0939 183.637 55.9845 183.62 55.8803 183.585C55.6198 183.499 55.4036 183.315 55.2786 183.072C55.1536 182.829 55.1297 182.547 55.2121 182.286L56.0186 179.816Z" fill="#8C8184"/>
<path d="M57.5845 175.053C58.3541 172.736 59.3089 170.484 60.4398 168.319C60.5842 168.102 60.8048 167.947 61.0583 167.885C61.3117 167.822 61.5796 167.856 61.809 167.98C62.0384 168.105 62.2126 168.31 62.2974 168.556C62.3821 168.802 62.3712 169.07 62.2668 169.308C61.1919 171.374 60.2834 173.522 59.5498 175.731C59.4792 175.936 59.3462 176.113 59.1693 176.239C58.9925 176.364 58.7806 176.432 58.5633 176.432C58.4467 176.433 58.3309 176.412 58.2214 176.373C57.9617 176.281 57.7491 176.091 57.6298 175.843C57.5105 175.596 57.4943 175.312 57.5845 175.053V175.053Z" fill="#8C8184"/>
<path d="M10.2663 124.071H10.1776L7.58591 123.856C7.30903 123.832 7.05271 123.701 6.87332 123.49C6.69393 123.279 6.60618 123.005 6.62937 122.73C6.65256 122.454 6.78479 122.199 6.99697 122.021C7.20915 121.842 7.48391 121.755 7.76079 121.778L10.3498 121.993C10.6267 122.004 10.8879 122.124 11.0758 122.327C11.2638 122.53 11.3631 122.798 11.3521 123.074C11.341 123.349 11.2204 123.609 11.0168 123.796C10.8131 123.983 10.5432 124.082 10.2663 124.071V124.071Z" fill="#8C8184"/>
<path d="M15.3583 122.414C17.8011 122.626 20.2229 123.032 22.6009 123.627C22.844 123.693 23.055 123.843 23.1951 124.052C23.3352 124.26 23.3948 124.512 23.363 124.761C23.3312 125.009 23.2101 125.238 23.0221 125.405C22.8341 125.572 22.5918 125.665 22.3399 125.668C22.2518 125.668 22.1641 125.656 22.0789 125.634C19.8097 125.068 17.4986 124.682 15.1678 124.481C15.0307 124.468 14.8976 124.427 14.7762 124.363C14.6548 124.298 14.5474 124.21 14.4601 124.104C14.3729 123.997 14.3075 123.875 14.2677 123.744C14.2279 123.613 14.2145 123.475 14.2282 123.339C14.2419 123.202 14.2825 123.07 14.3476 122.949C14.4127 122.828 14.5011 122.721 14.6078 122.634C14.7144 122.548 14.8372 122.483 14.9691 122.443C15.101 122.403 15.2395 122.39 15.3766 122.404L15.3583 122.414Z" fill="#8C8184"/>
<path d="M96.1176 193.477C96.126 193.341 96.1613 193.207 96.2216 193.084C96.2818 192.962 96.3657 192.852 96.4686 192.761C96.5715 192.671 96.6913 192.601 96.8211 192.557C96.951 192.512 97.0884 192.494 97.2255 192.502C97.3626 192.51 97.4967 192.545 97.6202 192.605C97.7436 192.665 97.854 192.749 97.945 192.851C98.036 192.954 98.1059 193.073 98.1506 193.202C98.1953 193.331 98.214 193.468 98.2056 193.604C98.1438 194.549 98.0103 195.487 97.8062 196.412C97.7562 196.644 97.6279 196.852 97.4428 197.001C97.2576 197.15 97.0267 197.232 96.7884 197.233C96.7138 197.233 96.6394 197.225 96.5665 197.209C96.2959 197.151 96.0595 196.989 95.9092 196.758C95.759 196.526 95.7072 196.245 95.7653 195.976C95.9457 195.153 96.0634 194.318 96.1176 193.477V193.477Z" fill="#8C8184"/>
<path d="M98.2606 188.345C98.2635 188.482 98.2393 188.617 98.1896 188.745C98.1398 188.872 98.0653 188.988 97.9705 189.086C97.8756 189.185 97.7621 189.264 97.6366 189.319C97.511 189.374 97.3759 189.403 97.2388 189.406C97.1017 189.409 96.9653 189.385 96.8376 189.336C96.7098 189.286 96.5931 189.212 96.4941 189.118C96.3951 189.023 96.3157 188.91 96.2606 188.785C96.2054 188.66 96.1755 188.526 96.1726 188.39L96.1569 187.727C96.1047 185.478 96.0525 183.154 96.324 180.845C96.335 180.706 96.3742 180.57 96.4392 180.446C96.5041 180.322 96.5935 180.213 96.702 180.124C96.8105 180.035 96.9359 179.969 97.0706 179.93C97.2054 179.89 97.3467 179.878 97.4862 179.895C97.6256 179.911 97.7604 179.955 97.8823 180.024C98.0043 180.094 98.1109 180.187 98.1959 180.298C98.2808 180.409 98.3424 180.536 98.3768 180.672C98.4113 180.807 98.4179 180.948 98.3963 181.086C98.1353 183.25 98.1953 185.502 98.2449 187.681L98.2606 188.345Z" fill="#8C8184"/>
<path d="M73.372 204.128C73.5157 203.91 73.7369 203.753 73.9914 203.689C74.246 203.626 74.5153 203.66 74.7457 203.785C74.9761 203.91 75.1506 204.117 75.2346 204.365C75.3186 204.612 75.3059 204.882 75.199 205.12C74.844 205.772 74.4734 206.406 74.061 207.105C73.9138 207.324 73.688 207.48 73.4294 207.54C73.1708 207.6 72.8989 207.56 72.6691 207.428C72.4393 207.295 72.2688 207.081 72.1923 206.828C72.1159 206.575 72.1392 206.302 72.2576 206.066C72.6699 205.37 73.0379 204.752 73.372 204.128Z" fill="#8C8184"/>
<path d="M75.4052 200.313C76.2952 198.578 77.1747 196.758 78.1012 194.745C78.1583 194.621 78.2394 194.509 78.3399 194.416C78.4403 194.323 78.5582 194.251 78.6868 194.203C78.9464 194.107 79.2339 194.117 79.4858 194.232C79.7378 194.347 79.9336 194.556 80.0303 194.815C80.127 195.073 80.1165 195.359 80.0013 195.61C79.0617 197.648 78.1743 199.505 77.2661 201.256C77.1404 201.501 76.9219 201.687 76.6586 201.773C76.3952 201.858 76.1087 201.835 75.8619 201.71C75.6151 201.585 75.4284 201.368 75.3427 201.106C75.2571 200.844 75.2795 200.559 75.4052 200.313V200.313Z" fill="#8C8184"/>
<path d="M79.7898 190.989C81.7212 186.574 83.6682 181.764 85.7405 176.256C85.8433 176.006 86.0398 175.805 86.2884 175.697C86.537 175.589 86.8181 175.581 87.0723 175.676C87.3265 175.77 87.5337 175.96 87.65 176.204C87.7663 176.448 87.7826 176.727 87.6954 176.983C85.6074 182.528 83.65 187.371 81.6925 191.82C81.6113 192.005 81.4778 192.163 81.3081 192.274C81.1385 192.384 80.9401 192.443 80.7373 192.444C80.5937 192.443 80.4517 192.414 80.3197 192.358C80.0673 192.246 79.8699 192.039 79.7706 191.783C79.6713 191.526 79.6782 191.241 79.7898 190.989Z" fill="#8C8184"/>
<path d="M35.7158 186.463C35.7991 186.354 35.9031 186.263 36.0217 186.194C36.1404 186.126 36.2714 186.081 36.4074 186.063C36.5433 186.045 36.6815 186.054 36.8141 186.089C36.9467 186.124 37.071 186.185 37.18 186.268C37.289 186.351 37.3805 186.454 37.4493 186.572C37.5182 186.69 37.5629 186.821 37.5811 186.956C37.5993 187.091 37.5905 187.229 37.5553 187.361C37.52 187.493 37.459 187.616 37.3758 187.725L36.0447 189.457C35.8765 189.676 35.6277 189.82 35.3531 189.856C35.0786 189.893 34.8006 189.819 34.5805 189.652C34.3604 189.484 34.2161 189.237 34.1794 188.964C34.1427 188.69 34.2166 188.414 34.3848 188.195L35.7158 186.463Z" fill="#8C8184"/>
<path d="M41.7814 178.24C41.9426 178.015 42.1868 177.864 42.4602 177.819C42.7335 177.774 43.0137 177.839 43.239 177.999C43.4643 178.16 43.6163 178.403 43.6616 178.675C43.7069 178.947 43.6417 179.226 43.4804 179.45C42.105 181.361 40.9723 182.915 39.9179 184.338C39.7535 184.56 39.5073 184.707 39.2334 184.748C38.9595 184.79 38.6805 184.721 38.4576 184.557C38.2347 184.394 38.0863 184.149 38.0449 183.876C38.0035 183.604 38.0727 183.326 38.2371 183.104C39.2863 181.689 40.4138 180.143 41.7814 178.24Z" fill="#8C8184"/>
<path d="M50.0574 166.48L52.9544 162.324C53.1126 162.098 53.3546 161.944 53.6273 161.895C53.8999 161.846 54.1808 161.907 54.4082 162.065C54.6356 162.222 54.7908 162.463 54.8398 162.734C54.8887 163.006 54.8273 163.285 54.6692 163.511C53.7018 164.897 52.737 166.282 51.7748 167.667C49.8277 170.461 47.8129 173.352 45.811 176.183C45.7142 176.319 45.5859 176.43 45.4369 176.506C45.2879 176.583 45.1226 176.622 44.955 176.622C44.74 176.622 44.5304 176.555 44.3547 176.432C44.2421 176.354 44.146 176.255 44.0719 176.14C43.9978 176.025 43.9472 175.897 43.9229 175.763C43.8987 175.628 43.9013 175.491 43.9306 175.357C43.9599 175.224 44.0153 175.098 44.0937 174.986C46.1007 172.16 48.113 169.272 50.0574 166.48Z" fill="#8C8184"/>
<path d="M101.959 70.902C101.682 70.902 101.416 70.7926 101.221 70.5978C101.025 70.4029 100.915 70.1387 100.915 69.8632V69.4788C100.915 69.2033 101.025 68.939 101.221 68.7442C101.416 68.5494 101.682 68.4399 101.959 68.4399C102.236 68.4399 102.501 68.5494 102.697 68.7442C102.893 68.939 103.003 69.2033 103.003 69.4788V69.8736C103 70.1473 102.889 70.4089 102.693 70.6014C102.498 70.794 102.234 70.9021 101.959 70.902Z" fill="#8C8184"/>
<path d="M20.0066 51.6003C19.7297 51.6003 19.4641 51.4908 19.2684 51.296C19.0726 51.1012 18.9626 50.8369 18.9626 50.5614V50.177C18.9626 49.9015 19.0726 49.6373 19.2684 49.4425C19.4641 49.2476 19.7297 49.1382 20.0066 49.1382C20.2834 49.1382 20.549 49.2476 20.7448 49.4425C20.9405 49.6373 21.0505 49.9015 21.0505 50.177V50.5718C21.0478 50.8455 20.9366 51.1071 20.7411 51.2997C20.5456 51.4923 20.2816 51.6003 20.0066 51.6003Z" fill="#8C8184"/>
<path d="M170.339 157.18C170.616 157.18 170.881 157.289 171.077 157.484C171.273 157.679 171.383 157.943 171.383 158.219V158.613C171.383 158.889 171.273 159.153 171.077 159.348C170.881 159.543 170.616 159.652 170.339 159.652C170.062 159.652 169.797 159.543 169.601 159.348C169.405 159.153 169.295 158.889 169.295 158.613V158.219C169.295 157.943 169.405 157.679 169.601 157.484C169.797 157.289 170.062 157.18 170.339 157.18Z" fill="#8C8184"/>
<path d="M143.196 49.0031C142.919 49.0031 142.653 48.8937 142.458 48.6988C142.262 48.504 142.152 48.2398 142.152 47.9643V47.5799C142.152 47.3044 142.262 47.0401 142.458 46.8453C142.653 46.6505 142.919 46.541 143.196 46.541C143.473 46.541 143.738 46.6505 143.934 46.8453C144.13 47.0401 144.24 47.3044 144.24 47.5799V47.9746C144.237 48.2484 144.126 48.5099 143.93 48.7025C143.735 48.8951 143.471 49.0031 143.196 49.0031Z" fill="#8C8184"/>
<path d="M133.278 87.5236C133.001 87.5236 132.736 87.4142 132.54 87.2193C132.344 87.0245 132.234 86.7603 132.234 86.4848V86.1004C132.234 85.8249 132.344 85.5606 132.54 85.3658C132.736 85.171 133.001 85.0615 133.278 85.0615C133.555 85.0615 133.82 85.171 134.016 85.3658C134.212 85.5606 134.322 85.8249 134.322 86.1004V86.4952C134.319 86.7689 134.208 87.0304 134.013 87.223C133.817 87.4156 133.553 87.5236 133.278 87.5236Z" fill="#8C8184"/>
<path d="M148.677 75.9484C147.034 75.9484 145.701 74.6228 145.701 72.9876C145.701 71.3524 147.034 70.0269 148.677 70.0269C150.32 70.0269 151.652 71.3524 151.652 72.9876C151.652 74.6228 150.32 75.9484 148.677 75.9484Z" fill="#8C8184"/>
<path d="M164.454 90.0119L160.372 87.7913L164.454 85.5681L166.685 79.9375L168.917 85.5681L172.999 87.7913L168.917 90.0119L166.685 95.6451L164.454 90.0119Z" fill="#8C8184"/>
<path d="M146.685 99.4164C154.468 107.429 158.185 116.848 162.126 126.819C163.59 130.525 165.104 134.351 166.847 138.116C166.904 138.241 166.936 138.376 166.941 138.513C166.945 138.649 166.923 138.786 166.874 138.914C166.826 139.042 166.752 139.16 166.658 139.259C166.564 139.359 166.451 139.439 166.325 139.496C166.188 139.558 166.04 139.59 165.889 139.589C165.693 139.589 165.5 139.533 165.334 139.429C165.168 139.325 165.035 139.176 164.95 139C163.183 135.174 161.659 131.312 160.181 127.572C156.319 117.799 152.67 108.566 145.185 100.853C136.554 91.9599 124.263 86.615 112.378 81.4467C103.606 77.6314 95.1181 73.9357 88.481 69.0011C88.3902 69.2162 88.2293 69.3946 88.0243 69.5076L87.3587 69.8608L87.3222 69.8789C80.325 73.5279 71.686 76.8913 63.6344 76.8913C59.1818 76.8913 54.9041 75.8524 51.1902 73.2708C50.1801 72.5656 49.2374 71.7692 48.374 70.8918C48.2669 70.7834 48.185 70.6529 48.1341 70.5095C48.0832 70.3661 48.0646 70.2133 48.0795 70.062C48.0944 69.9106 48.1426 69.7644 48.2205 69.6336C48.2985 69.5028 48.4043 69.3906 48.5306 69.305L48.6089 69.253C58.9678 62.3212 72.8501 61.3421 85.4274 66.5078C82.1911 63.6068 79.5707 60.2747 77.8116 56.314C75.8367 56.4387 73.9393 56.501 72.1193 56.501C51.2006 56.501 40.325 48.5719 32.4351 40.6091C32.3176 40.4902 32.2305 40.3449 32.1813 40.1855C32.1321 40.0261 32.1221 39.8572 32.1523 39.6931C32.1825 39.5291 32.252 39.3747 32.3548 39.243C32.4576 39.1113 32.5908 39.0062 32.7431 38.9365C35.875 37.5133 37.9421 36.9185 40.3563 36.5133C38.6509 35.6863 37.0006 34.7511 35.4157 33.7136C34.0533 32.8618 32.7301 32.0359 31.3494 31.3528C30.9406 32.0526 30.3629 32.64 29.6686 33.0617C28.7156 33.6463 27.5919 33.8928 26.4802 33.7611C25.3686 33.6294 24.3344 33.1273 23.5459 32.3364C22.7575 31.5455 22.2612 30.5125 22.1378 29.4052C22.0143 28.298 22.271 27.1818 22.8661 26.2382C23.4612 25.2946 24.3596 24.5791 25.4152 24.2081C26.4709 23.8372 27.6216 23.8326 28.6801 24.1951C29.7387 24.5577 30.6429 25.266 31.2455 26.2048C31.8482 27.1437 32.1138 28.2578 31.9993 29.366C33.5564 30.145 35.0674 31.0121 36.5249 31.9631C38.2788 33.0591 40.0823 34.1837 42.0554 34.994C41.6352 34.0928 41.2724 33.1474 40.9122 32.2151C40.526 31.2022 40.1606 30.2438 39.7482 29.4205C39.6734 29.2717 39.6356 29.1073 39.638 28.9409C39.6403 28.7745 39.6828 28.6112 39.7619 28.4646C39.8409 28.318 39.9542 28.1924 40.0921 28.0984C40.2301 28.0045 40.3887 27.9448 40.5547 27.9246C44.1303 27.4908 47.1552 28.057 50.3393 28.6751C48.8258 27.596 47.3798 26.426 46.0094 25.1716C44.8063 24.1119 43.637 23.0783 42.3868 22.1823C41.6029 23.1273 40.4953 23.7503 39.2774 23.9313C38.0595 24.1124 36.8173 23.8387 35.7901 23.163C34.7628 22.4872 34.0231 21.4572 33.7133 20.2712C33.4035 19.0852 33.5456 17.8271 34.1122 16.7391C34.6787 15.6511 35.6298 14.8102 36.7821 14.3782C37.9345 13.9462 39.2067 13.9536 40.3539 14.3992C41.501 14.8447 42.442 15.6968 42.9956 16.7914C43.5492 17.8859 43.6764 19.1456 43.3525 20.3279C44.7614 21.3471 46.1111 22.4449 47.3953 23.6159C48.6393 24.7543 49.9463 25.8225 51.3102 26.8156C49.4241 23.5104 48.2674 19.8431 47.9173 16.0582C47.9031 15.8972 47.9268 15.7351 47.9866 15.5848C48.0464 15.4346 48.1407 15.3002 48.2618 15.1926C48.3829 15.0849 48.5276 15.0068 48.6844 14.9646C48.8412 14.9223 49.0057 14.9171 49.1649 14.9492C52.9173 15.6942 56.6145 16.692 60.231 17.9359C59.3358 16.5049 58.6024 15.0245 57.8821 13.5753C57.2123 12.1628 56.4719 10.7846 55.6636 9.44583C54.5775 10.021 53.316 10.1759 52.122 9.88077C50.9279 9.58564 49.8859 8.86134 49.1964 7.84734C48.507 6.83335 48.2189 5.60138 48.3878 4.38868C48.5566 3.17599 49.1703 2.06833 50.1108 1.27902C51.0513 0.489715 52.252 0.0745814 53.4817 0.113568C54.7114 0.152554 55.8831 0.642903 56.7711 1.49018C57.6592 2.33746 58.2009 3.48175 58.2918 4.70268C58.3827 5.92362 58.0164 7.13484 57.2635 8.10311C58.1802 9.57706 59.0123 11.1014 59.756 12.6689C60.6147 14.4038 61.5021 16.1828 62.6452 17.8165C62.7157 16.8166 62.8044 15.827 62.9375 14.8713C63.1447 13.3365 63.4436 11.8153 63.8327 10.3159C63.8721 10.1631 63.9459 10.0213 64.0486 9.90116C64.1512 9.78101 64.28 9.6857 64.4252 9.62244C64.5688 9.55959 64.7248 9.52975 64.8816 9.53514C65.0384 9.54054 65.1919 9.58103 65.3308 9.65361C71.8348 13.0507 76.5066 16.6062 79.2758 20.2552C79.1426 18.3715 79.1295 16.4813 79.2366 14.596C79.2966 12.9987 79.3567 11.443 79.2601 9.92111C78.0293 9.91795 76.8432 9.4618 75.9301 8.64048C75.0171 7.81917 74.4416 6.69076 74.3146 5.47252C74.1876 4.25428 74.5179 3.03234 75.2421 2.04198C75.9663 1.05163 77.033 0.362869 78.2369 0.108324C79.4409 -0.14622 80.6969 0.0514454 81.7631 0.663263C82.8294 1.27508 83.6305 2.25779 84.0122 3.42219C84.3939 4.58658 84.3292 5.85033 83.8306 6.97011C83.332 8.08989 82.4347 8.98653 81.3115 9.48739C81.415 11.2172 81.4193 12.9514 81.3246 14.6817C81.2086 16.594 81.2296 18.5121 81.3872 20.4214C83.2846 17.9255 85.2499 15.3751 87.3927 13.0377C87.5243 12.8954 87.6932 12.7925 87.8804 12.7405C88.0676 12.6886 88.2656 12.6896 88.4523 12.7436C88.6389 12.7976 88.8067 12.9024 88.9367 13.0461C89.0667 13.1898 89.1539 13.3668 89.1883 13.5571C89.6633 16.2426 91.1405 25.504 90.2453 32.0385C89.217 39.539 86.0251 46.5254 79.6281 55.2726C81.4681 59.5241 84.4095 63.0251 88.1026 66.0559C88.7446 53.9091 91.9862 38.8404 103.483 33.6227C104.605 33.1171 105.771 32.7146 106.967 32.4202C107.117 32.3816 107.273 32.3764 107.425 32.405C107.576 32.4336 107.72 32.4954 107.844 32.5858C107.969 32.6762 108.072 32.793 108.146 32.9279C108.22 33.0627 108.263 33.2122 108.272 33.3656C108.272 33.3656 108.272 33.4487 108.272 33.4539C109.055 46.5098 102.141 59.5657 90.1957 67.6766C96.5901 72.3203 104.767 75.8784 113.21 79.5507C115.559 80.5688 117.908 81.5973 120.257 82.6673C115.961 72.4216 112.814 58.5839 120.257 47.959C120.995 46.9057 121.813 45.9107 122.705 44.9827C122.816 44.8655 122.953 44.7759 123.105 44.7213C123.256 44.6667 123.419 44.6486 123.58 44.6684C123.74 44.6863 123.895 44.7411 124.031 44.8285C124.167 44.9159 124.28 45.0336 124.362 45.1722C130.462 55.4881 129.911 70.2945 122.953 83.8906C131.73 87.9889 140.163 92.6949 146.685 99.4164ZM52.3881 71.5827C60.6434 77.3328 72.2237 74.5512 81.8961 70.2114L81.1445 70.2374C75.1207 70.4451 65.2238 70.7334 51.7278 71.0996C51.9444 71.2658 52.1585 71.4269 52.3881 71.5827V71.5827ZM53.2259 68.9855C71.6704 68.4843 79.9648 68.2064 83.6944 68.0739C73.3721 64.1107 62.2459 64.4613 53.2259 68.9803V68.9855ZM87.4866 16.079C85.798 18.058 84.1981 20.1643 82.64 22.216C82.0945 22.9354 81.5516 23.6523 81.0088 24.3561C80.8994 24.4983 80.7549 24.6099 80.5894 24.6801C80.4238 24.7504 80.2429 24.7769 80.064 24.757C79.8852 24.7371 79.7146 24.6716 79.5687 24.5668C79.4228 24.462 79.3066 24.3214 79.2314 24.1587C77.3679 20.1513 72.6491 16.0036 65.5422 12.1235C65.3256 13.1026 65.1481 14.1155 65.0046 15.1466C64.7673 16.912 64.6357 18.6898 64.6105 20.4707C64.6078 20.6462 64.5604 20.8182 64.4728 20.9705C64.3852 21.1229 64.2603 21.2507 64.1096 21.3419C63.959 21.4332 63.7876 21.4851 63.6114 21.4926C63.4351 21.5001 63.2599 21.4631 63.1019 21.3849C60.1083 19.9046 55.447 18.432 50.1619 17.2866C50.8013 21.5589 52.61 25.5975 55.7889 29.9036C55.9102 30.0673 55.9806 30.2629 55.9913 30.466C56.0019 30.6691 55.9524 30.8709 55.8489 31.0463C55.7456 31.221 55.5932 31.3617 55.4105 31.4513C55.2277 31.5408 55.0227 31.5752 54.8206 31.5502C53.1659 31.345 51.6234 31.0463 50.1227 30.7555C47.4867 30.236 44.9785 29.7608 42.2302 29.875C42.4495 30.3945 42.6557 30.9502 42.8592 31.4853C43.5404 33.2721 44.2451 35.1213 45.2917 36.3445C45.4145 36.4876 45.4959 36.6611 45.5273 36.8466C45.5588 37.032 45.539 37.2225 45.4701 37.3977C45.4013 37.5729 45.2859 37.7261 45.1363 37.8412C44.9868 37.9562 44.8087 38.0287 44.6209 38.0509C40.5755 38.5339 38.4824 38.7859 34.9955 40.2325C42.8514 47.8551 53.9045 55.0856 74.9563 54.3817C72.7144 53.7273 70.5846 53.1247 68.5097 52.5378C61.656 50.6003 56.243 49.068 52.4195 47.1643C52.2926 47.1058 52.1788 47.0227 52.0848 46.9197C51.9908 46.8166 51.9186 46.6959 51.8724 46.5646C51.8262 46.4332 51.807 46.294 51.8159 46.1552C51.8248 46.0164 51.8617 45.8807 51.9243 45.7563C51.9869 45.6319 52.074 45.5213 52.1803 45.431C52.2867 45.3407 52.4102 45.2726 52.5436 45.2307C52.6769 45.1889 52.8173 45.1741 52.9565 45.1872C53.0957 45.2004 53.2308 45.2412 53.3538 45.3073C56.9242 47.0838 62.1128 48.5667 68.6611 50.4211C62.5017 46.6682 57.6759 42.0037 55.1468 39.5572L54.7684 39.191C54.5764 38.9977 54.4681 38.7373 54.4668 38.4655C54.4656 38.1937 54.5714 37.9322 54.7616 37.7372C54.9518 37.5421 55.2113 37.429 55.4843 37.4221C55.7573 37.4152 56.0222 37.5151 56.2221 37.7002L56.5954 38.0664C59.7012 41.0713 66.3774 47.5305 74.6248 51.234C68.2331 43.4425 63.5404 34.5291 61.6117 30.8723C61.4833 30.6282 61.4576 30.3432 61.5403 30.0802C61.623 29.8172 61.8074 29.5976 62.0528 29.4699C62.2981 29.3421 62.5845 29.3166 62.8488 29.3989C63.1131 29.4812 63.3337 29.6646 63.4621 29.9088C65.4692 33.6695 70.428 43.0867 77.1121 50.9561C76.029 40.5285 72.8475 33.6799 69.6294 27.5558C69.501 27.3116 69.4753 27.0267 69.5581 26.7636C69.6408 26.5006 69.8251 26.2811 70.0705 26.1533C70.3159 26.0255 70.6022 26 70.8665 26.0823C71.1308 26.1646 71.3515 26.348 71.4799 26.5922C74.3795 32.1112 77.2531 38.1989 78.6755 46.85C79.0696 45.2294 79.5237 43.5283 80.0039 41.7362C81.0061 37.9989 82.0423 34.137 82.7339 30.1218C82.7437 29.9769 82.7838 29.8357 82.8517 29.7073C82.9197 29.5788 83.0139 29.466 83.1283 29.376C83.2428 29.286 83.3749 29.2209 83.5162 29.1848C83.6575 29.1488 83.8048 29.1426 83.9487 29.1666C84.0925 29.1907 84.2297 29.2445 84.3514 29.3246C84.4731 29.4046 84.5765 29.5092 84.6551 29.6315C84.7337 29.7538 84.7856 29.8911 84.8076 30.0346C84.8296 30.1781 84.8211 30.3245 84.7827 30.4646C84.0728 34.5733 83.0236 38.482 82.011 42.2634C81.1132 45.6138 80.3041 48.6524 79.8604 51.3327C84.7827 44.1256 87.3065 38.1184 88.1757 31.7632C88.8673 26.7377 88.0634 19.902 87.4866 16.079ZM106.184 37.56C97.2583 53.626 93.2833 60.8746 91.5112 64.1444C100.181 57.3035 105.521 47.5798 106.184 37.56ZM90.9265 60.8564C93.7975 55.5868 98.5737 46.9617 105.112 35.1966C104.851 35.3005 104.605 35.407 104.357 35.5186C95.186 39.6741 91.72 51.0236 90.569 61.5161C90.676 61.3058 90.7856 61.085 90.9213 60.8564H90.9265ZM123.253 47.4811C122.797 48.0187 122.369 48.5719 121.974 49.1381C115.215 58.7865 117.973 71.5515 121.93 81.2363C127.513 69.3076 128.014 56.6698 123.253 47.4811Z" fill="#8C8184"/>
<path d="M84.1198 156.141C72.3125 150.604 60.2754 144.96 52.396 137.384C52.3255 137.398 52.2539 137.406 52.182 137.408C51.9668 137.409 51.7568 137.342 51.5817 137.218C44.3574 132.148 39.6125 128.084 37.0052 121.36C31.1432 117.155 26.8264 111.717 24.7932 99.284C24.5566 97.8331 24.333 96.428 24.1225 95.0688C20.7391 91.6558 17.8229 87.8135 15.4496 83.6414C13.7819 80.7845 12.7927 73.4969 15.5462 71.4919C17.3131 70.1933 19.7743 71.2581 22.854 74.6292L22.8906 74.6682C22.9115 74.5877 22.9298 74.4968 22.9506 74.4085C23.7023 71.8321 25.1351 71.1672 26.2078 71.0634C28.7264 70.8166 31.5452 73.5878 33.0302 76.4498C33.8941 78.1146 34.6118 80.9481 35.3165 84.4205C35.4309 83.9965 35.5722 83.5801 35.7393 83.1739C36.7833 80.704 38.2814 80.2157 39.3698 80.2313C41.8962 80.2832 44.3704 83.3661 45.5057 86.3814C46.1608 88.1214 46.5341 90.9471 46.829 94.5312C60.1553 103.05 73.654 108.475 83.5404 112.452C88.5776 114.472 92.7118 116.134 95.7341 117.729C95.4992 116.215 95.2121 114.547 94.7632 112.665C90.4829 110.587 83.2298 105.816 80.6016 101.811C74.0089 98.5282 70.5795 92.5262 70.9448 84.875C70.9704 84.3148 71.1358 83.7698 71.4261 83.2892C71.7163 82.8086 72.1223 82.4074 72.6074 82.122C73.0957 81.8309 73.6494 81.6655 74.2181 81.641C74.7869 81.6166 75.3528 81.7337 75.8646 81.9818C143.144 114.386 151.417 150.243 159.427 184.917C161.604 194.397 163.864 204.188 167.333 213.657C167.427 213.916 167.414 214.201 167.297 214.451C167.18 214.7 166.969 214.893 166.709 214.987C166.595 215.03 166.473 215.052 166.351 215.052C166.137 215.052 165.928 214.987 165.752 214.864C165.577 214.742 165.443 214.569 165.37 214.369C161.86 204.788 159.584 194.924 157.381 185.382C149.491 151.183 141.332 115.823 74.9563 83.8517C74.755 83.7538 74.5322 83.7077 74.3083 83.7176C74.0844 83.7276 73.8666 83.7934 73.6748 83.9089C73.4872 84.02 73.3306 84.1761 73.2193 84.3631C73.1081 84.55 73.0457 84.7618 73.038 84.9789C72.811 89.8408 74.1472 96.4064 81.797 100.081C81.9783 100.168 82.1306 100.305 82.2355 100.476C84.3234 103.91 90.9631 108.426 95.2852 110.605L95.3374 110.587C95.4705 110.554 95.6089 110.547 95.7446 110.567C95.8803 110.588 96.0107 110.634 96.1283 110.705C96.2458 110.775 96.3483 110.868 96.4298 110.978C96.5113 111.088 96.5702 111.213 96.6032 111.345C97.2367 113.947 97.7341 116.58 98.0935 119.233C99.0487 125.726 99.5289 128.99 108.974 135.478C109.087 135.556 109.183 135.656 109.256 135.771C109.33 135.886 109.38 136.014 109.404 136.149C109.428 136.283 109.425 136.421 109.395 136.554C109.366 136.688 109.31 136.814 109.231 136.926C109.153 137.038 109.053 137.133 108.937 137.206C108.821 137.28 108.692 137.33 108.557 137.354C108.422 137.377 108.284 137.374 108.15 137.345C108.016 137.315 107.889 137.26 107.776 137.182C97.9838 130.458 97.0756 126.7 96.136 120.324C93.1972 118.555 88.5907 116.706 82.7705 114.371C73.132 110.501 60.0849 105.257 47.0326 97.1102C47.123 98.4313 47.21 99.8251 47.2935 101.292C47.3118 101.577 47.3301 101.873 47.3484 102.164C48.1313 101.346 48.9535 100.954 49.8121 100.99C51.3964 101.042 52.7353 102.481 53.7949 105.273L53.8288 105.364C54.6118 107.26 55.0529 109.231 55.4314 111.166C55.5909 111.154 55.751 111.18 55.8985 111.241C59.2601 112.646 65.2813 114.358 67.2257 114.825C67.4747 114.885 67.6932 115.033 67.8395 115.242C67.9858 115.451 68.0497 115.707 68.0191 115.96C67.9885 116.213 67.8654 116.446 67.6734 116.615C67.4814 116.783 67.2338 116.876 66.9777 116.875C66.8941 116.874 66.8108 116.864 66.7298 116.843C65.1142 116.449 59.5994 114.921 55.8829 113.467C56.164 115.022 56.585 116.548 57.1409 118.028C63.0237 121.046 66.7716 122.762 68.2697 123.128C68.5187 123.188 68.7372 123.336 68.8835 123.545C69.0297 123.755 69.0937 124.01 69.0631 124.263C69.0324 124.516 68.9094 124.749 68.7174 124.918C68.5254 125.086 68.2778 125.179 68.0217 125.178C67.9381 125.177 67.8548 125.167 67.7738 125.146C66.3252 124.793 63.4413 123.528 58.8112 121.207C61.2541 124.998 65.3178 128.967 69.0996 130.117C69.2314 130.157 69.3541 130.222 69.4606 130.308C69.5671 130.395 69.6553 130.502 69.7202 130.622C69.7851 130.743 69.8254 130.875 69.8387 131.012C69.8521 131.148 69.8383 131.285 69.798 131.416C69.7578 131.547 69.6919 131.669 69.6043 131.774C69.5166 131.88 69.4088 131.967 69.2872 132.031C69.1655 132.095 69.0324 132.134 68.8954 132.147C68.7584 132.159 68.6202 132.145 68.4889 132.104C63.269 130.52 57.8377 124.552 55.588 119.7C55.5227 119.56 55.4679 119.42 55.4079 119.282C55.3727 119.217 55.3439 119.15 55.3217 119.079C54.4161 116.906 53.9724 114.631 53.5496 112.42C53.1268 110.21 52.7248 108.138 51.9001 106.151C51.8871 106.122 51.8688 106.07 51.8401 106C50.77 103.175 49.8461 103.063 49.7521 103.06C49.5668 103.06 48.5907 103.193 47.103 106.47C45.7981 109.327 45.7041 112.729 45.618 115.727C45.6058 116.236 45.5901 116.732 45.571 117.215C44.8298 135.395 64.3469 144.55 85.0098 154.24C105.939 164.067 127.586 174.214 126.49 194.838C126.179 200.734 125.707 207.64 124.663 214.169C124.623 214.412 124.498 214.633 124.31 214.793C124.121 214.953 123.882 215.041 123.634 215.042C123.578 215.041 123.521 215.037 123.465 215.029C123.329 215.007 123.2 214.959 123.083 214.887C122.966 214.815 122.865 214.721 122.785 214.611C122.704 214.5 122.647 214.375 122.615 214.242C122.584 214.109 122.579 213.971 122.601 213.837C123.645 207.406 124.104 200.57 124.412 194.729C125.422 175.5 104.425 165.654 84.1198 156.141ZM21.322 76.0239C18.8165 73.2943 17.3105 72.7775 16.7807 73.167C15.3296 74.2241 15.8464 80.1794 17.2557 82.5999C19.0583 85.764 21.1807 88.7367 23.5901 91.4718C22.747 85.4983 22.3034 80.6676 22.5174 77.3069C22.118 76.8784 21.7187 76.455 21.322 76.0239ZM31.1876 77.4082C29.9166 74.9643 27.7268 72.993 26.4218 73.1359C25.6389 73.2112 25.203 74.1877 24.9681 74.9928C23.9946 78.3328 24.8376 85.9658 26.1269 94.3806C26.3583 95.9042 26.5967 97.4288 26.842 98.9542C28.4889 109.01 31.5399 114.083 35.8933 117.848C35.2017 115.075 34.7763 111.875 34.6092 108.094C34.3091 101.224 34.176 95.3987 34.4213 90.9238C33.333 84.8958 32.3751 79.7015 31.1876 77.4082V77.4082ZM43.483 117.145C43.5039 116.672 43.517 116.184 43.5326 115.682C43.624 112.491 43.7284 108.873 45.2004 105.631C45.2839 105.448 45.3709 105.269 45.4614 105.094C45.3805 103.834 45.3022 102.606 45.2291 101.427C44.8167 94.7935 44.4905 89.5525 43.5718 87.1189C42.6009 84.5426 40.6669 82.3454 39.3254 82.3168C38.5555 82.3168 38.0204 83.2258 37.6837 83.9894C37.06 85.4568 36.7076 87.8695 36.538 90.8666C36.5393 90.8917 36.5393 90.9169 36.538 90.9419C36.277 95.6454 36.4518 101.78 36.7233 108.005C36.9451 113.036 37.6185 116.929 38.8112 120.165C38.8888 120.288 38.9394 120.426 38.96 120.57C40.7087 125.087 43.5039 128.31 47.5415 131.593C44.6704 127.332 43.248 122.267 43.483 117.142V117.145Z" fill="#8C8184"/>
<path d="M125.276 150.687C118.801 143.732 95.1859 142.324 85.101 141.724C84.9639 141.716 84.8298 141.681 84.7062 141.622C84.5826 141.562 84.472 141.479 84.3808 141.377C84.2896 141.274 84.2194 141.155 84.1744 141.026C84.1294 140.897 84.1103 140.761 84.1184 140.624C84.1264 140.488 84.1614 140.354 84.2213 140.231C84.2812 140.108 84.3649 139.998 84.4675 139.907C84.5702 139.817 84.6898 139.747 84.8195 139.702C84.9493 139.657 85.0866 139.638 85.2237 139.646C96.4465 140.314 119.764 141.706 126.808 149.271C126.996 149.474 127.095 149.742 127.084 150.017C127.074 150.292 126.954 150.552 126.75 150.739C126.548 150.926 126.278 151.025 126.002 151.015C125.725 151.005 125.464 150.886 125.276 150.684V150.687Z" fill="#8C8184"/>
<path d="M139.195 161.423C139.232 161.227 139.325 161.046 139.462 160.901C139.6 160.757 139.777 160.654 139.971 160.607C140.166 160.559 140.37 160.568 140.56 160.633C140.749 160.697 140.916 160.815 141.04 160.971C141.413 161.439 141.773 161.912 142.136 162.387C143.506 164.192 144.811 165.89 146.594 167.267C146.72 167.364 146.822 167.488 146.892 167.631C146.962 167.773 146.998 167.929 146.999 168.088V168.417C146.999 168.677 146.901 168.928 146.724 169.119C146.547 169.311 146.305 169.43 146.045 169.452C145.785 169.475 145.525 169.399 145.318 169.241C145.111 169.083 144.971 168.853 144.926 168.597C143.253 167.22 141.972 165.602 140.75 164.007C139.971 167.022 138.644 169.869 136.835 172.409C136.739 172.545 136.611 172.655 136.462 172.731C136.314 172.807 136.149 172.846 135.982 172.846C135.767 172.846 135.557 172.779 135.382 172.653C135.156 172.494 135.004 172.252 134.957 171.981C134.911 171.71 134.974 171.431 135.134 171.207C137.198 168.284 138.585 164.943 139.195 161.423V161.423Z" fill="#8C8184"/>
<path d="M0.57563 148.96L1.06108 148.716C1.6196 148.438 2.17813 148.157 2.74188 147.89C2.99176 147.771 3.27885 147.756 3.53998 147.847C3.8011 147.939 4.01488 148.131 4.13429 148.379C4.25369 148.628 4.26894 148.914 4.17668 149.173C4.08441 149.433 3.8922 149.646 3.64231 149.765C3.09161 150.024 2.54614 150.3 1.99805 150.572L1.51261 150.817C1.26514 150.94 0.978461 150.961 0.715621 150.874C0.452782 150.788 0.235318 150.601 0.111069 150.354C-0.0131812 150.108 -0.0340399 149.823 0.0530838 149.561C0.140207 149.3 0.328169 149.083 0.57563 148.96V148.96Z" fill="#8C8184"/>
<path d="M6.94387 145.918C8.6847 145.121 10.5612 144.298 13.0303 143.246C13.157 143.187 13.2942 143.155 13.4338 143.15C13.5734 143.145 13.7125 143.168 13.8429 143.218C13.9733 143.268 14.0924 143.343 14.1931 143.439C14.2938 143.536 14.374 143.651 14.429 143.779C14.484 143.907 14.5127 144.044 14.5134 144.183C14.5141 144.322 14.4867 144.46 14.433 144.588C14.3792 144.716 14.3001 144.833 14.2004 144.93C14.1007 145.027 13.9823 145.104 13.8524 145.155C11.4016 146.194 9.53814 147.017 7.81558 147.806C7.56396 147.921 7.27674 147.932 7.01708 147.837C6.75742 147.741 6.5466 147.546 6.43101 147.296C6.31541 147.046 6.3045 146.76 6.40067 146.501C6.49685 146.243 6.69225 146.033 6.94387 145.918V145.918Z" fill="#8C8184"/>
<path d="M17.0992 141.542C19.3046 140.631 21.5152 139.724 23.7258 138.839C26.7011 137.631 29.7809 136.384 32.7875 135.119C33.0418 135.017 33.3266 135.018 33.5802 135.122C33.8338 135.227 34.0359 135.426 34.1426 135.678C34.2493 135.93 34.2521 136.213 34.1504 136.467C34.0487 136.72 33.8507 136.924 33.5992 137.034C30.5795 138.301 27.4946 139.553 24.514 140.763C22.306 141.657 20.1015 142.556 17.9004 143.462C17.7739 143.514 17.6381 143.54 17.5011 143.539C17.26 143.539 17.0264 143.456 16.84 143.304C16.6536 143.152 16.5258 142.94 16.4785 142.705C16.4311 142.469 16.4671 142.225 16.5802 142.013C16.6934 141.801 16.8767 141.635 17.0992 141.542Z" fill="#8C8184"/>
<path d="M23.0393 161.945L25.7771 159.751C25.9942 159.596 26.2626 159.53 26.5273 159.566C26.7919 159.602 27.0326 159.737 27.1998 159.945C27.367 160.152 27.4479 160.415 27.4261 160.68C27.4042 160.945 27.2811 161.192 27.0821 161.369L24.3443 163.563C24.1272 163.718 23.8588 163.785 23.5941 163.749C23.3295 163.712 23.0888 163.577 22.9216 163.37C22.7544 163.162 22.6735 162.899 22.6953 162.634C22.7172 162.369 22.8403 162.123 23.0393 161.945Z" fill="#8C8184"/>
<path d="M38.3127 149.165C38.4144 149.073 38.5331 149.002 38.6622 148.957C38.7913 148.911 38.9283 148.891 39.0652 148.897C39.2021 148.904 39.3364 148.938 39.4603 148.996C39.5842 149.054 39.6953 149.136 39.7874 149.238C39.8794 149.339 39.9505 149.457 39.9966 149.585C40.0427 149.714 40.063 149.85 40.0562 149.986C40.0494 150.123 40.0157 150.256 39.9571 150.379C39.8984 150.503 39.8159 150.613 39.7143 150.705C37.4332 152.759 35.0164 154.84 32.3464 157.068C32.2412 157.155 32.1197 157.221 31.9888 157.262C31.858 157.303 31.7203 157.318 31.5838 157.305C31.4472 157.293 31.3144 157.254 31.1929 157.191C31.0714 157.128 30.9636 157.041 30.8757 156.937C30.7878 156.832 30.7215 156.711 30.6805 156.581C30.6395 156.451 30.6248 156.314 30.637 156.178C30.6493 156.042 30.6883 155.91 30.7518 155.789C30.8154 155.668 30.9023 155.561 31.0075 155.473C33.6644 153.263 36.0525 151.206 38.3127 149.165Z" fill="#8C8184"/>
<path d="M56.0186 179.816C56.1119 179.564 56.2999 179.358 56.543 179.24C56.7861 179.123 57.0653 179.104 57.3221 179.188C57.5789 179.271 57.7932 179.45 57.92 179.688C58.0468 179.925 58.0763 180.202 58.0022 180.46L57.1957 182.92C57.1274 183.128 56.9948 183.31 56.8166 183.438C56.6385 183.567 56.4241 183.637 56.2039 183.637C56.0939 183.637 55.9845 183.62 55.8803 183.585C55.6198 183.499 55.4036 183.315 55.2786 183.072C55.1536 182.829 55.1297 182.547 55.2121 182.286L56.0186 179.816Z" fill="#8C8184"/>
<path d="M57.5845 175.053C58.3541 172.736 59.3089 170.484 60.4398 168.319C60.5842 168.102 60.8048 167.947 61.0583 167.885C61.3117 167.822 61.5796 167.856 61.809 167.98C62.0384 168.105 62.2126 168.31 62.2974 168.556C62.3821 168.802 62.3712 169.07 62.2668 169.308C61.1919 171.374 60.2834 173.522 59.5498 175.731C59.4792 175.936 59.3462 176.113 59.1693 176.239C58.9925 176.364 58.7806 176.432 58.5633 176.432C58.4467 176.433 58.3309 176.412 58.2214 176.373C57.9617 176.281 57.7491 176.091 57.6298 175.843C57.5105 175.596 57.4943 175.312 57.5845 175.053V175.053Z" fill="#8C8184"/>
<path d="M10.2663 124.071H10.1776L7.58591 123.856C7.30903 123.832 7.05271 123.701 6.87332 123.49C6.69393 123.279 6.60618 123.005 6.62937 122.73C6.65256 122.454 6.78479 122.199 6.99697 122.021C7.20915 121.842 7.48391 121.755 7.76079 121.778L10.3498 121.993C10.6267 122.004 10.8879 122.124 11.0758 122.327C11.2638 122.53 11.3631 122.798 11.3521 123.074C11.341 123.349 11.2204 123.609 11.0168 123.796C10.8131 123.983 10.5432 124.082 10.2663 124.071V124.071Z" fill="#8C8184"/>
<path d="M15.3583 122.414C17.8011 122.626 20.2229 123.032 22.6009 123.627C22.844 123.693 23.055 123.843 23.1951 124.052C23.3352 124.26 23.3948 124.512 23.363 124.761C23.3312 125.009 23.2101 125.238 23.0221 125.405C22.8341 125.572 22.5918 125.665 22.3399 125.668C22.2518 125.668 22.1641 125.656 22.0789 125.634C19.8097 125.068 17.4986 124.682 15.1678 124.481C15.0307 124.468 14.8976 124.427 14.7762 124.363C14.6548 124.298 14.5474 124.21 14.4601 124.104C14.3729 123.997 14.3075 123.875 14.2677 123.744C14.2279 123.613 14.2145 123.475 14.2282 123.339C14.2419 123.202 14.2825 123.07 14.3476 122.949C14.4127 122.828 14.5011 122.721 14.6078 122.634C14.7144 122.548 14.8372 122.483 14.9691 122.443C15.101 122.403 15.2395 122.39 15.3766 122.404L15.3583 122.414Z" fill="#8C8184"/>
<path d="M96.1176 193.477C96.126 193.341 96.1613 193.207 96.2216 193.084C96.2818 192.962 96.3657 192.852 96.4686 192.761C96.5715 192.671 96.6913 192.601 96.8211 192.557C96.951 192.512 97.0884 192.494 97.2255 192.502C97.3626 192.51 97.4967 192.545 97.6202 192.605C97.7436 192.665 97.854 192.749 97.945 192.851C98.036 192.954 98.1059 193.073 98.1506 193.202C98.1953 193.331 98.214 193.468 98.2056 193.604C98.1438 194.549 98.0103 195.487 97.8062 196.412C97.7562 196.644 97.6279 196.852 97.4428 197.001C97.2576 197.15 97.0267 197.232 96.7884 197.233C96.7138 197.233 96.6394 197.225 96.5665 197.209C96.2959 197.151 96.0595 196.989 95.9092 196.758C95.759 196.526 95.7072 196.245 95.7653 195.976C95.9457 195.153 96.0634 194.318 96.1176 193.477V193.477Z" fill="#8C8184"/>
<path d="M98.2606 188.345C98.2635 188.482 98.2393 188.617 98.1896 188.745C98.1398 188.872 98.0653 188.988 97.9705 189.086C97.8756 189.185 97.7621 189.264 97.6366 189.319C97.511 189.374 97.3759 189.403 97.2388 189.406C97.1017 189.409 96.9653 189.385 96.8376 189.336C96.7098 189.286 96.5931 189.212 96.4941 189.118C96.3951 189.023 96.3157 188.91 96.2606 188.785C96.2054 188.66 96.1755 188.526 96.1726 188.39L96.1569 187.727C96.1047 185.478 96.0525 183.154 96.324 180.845C96.335 180.706 96.3742 180.57 96.4392 180.446C96.5041 180.322 96.5935 180.213 96.702 180.124C96.8105 180.035 96.9359 179.969 97.0706 179.93C97.2054 179.89 97.3467 179.878 97.4862 179.895C97.6256 179.911 97.7604 179.955 97.8823 180.024C98.0043 180.094 98.1109 180.187 98.1959 180.298C98.2808 180.409 98.3424 180.536 98.3768 180.672C98.4113 180.807 98.4179 180.948 98.3963 181.086C98.1353 183.25 98.1953 185.502 98.2449 187.681L98.2606 188.345Z" fill="#8C8184"/>
<path d="M73.372 204.128C73.5157 203.91 73.7369 203.753 73.9914 203.689C74.246 203.626 74.5153 203.66 74.7457 203.785C74.9761 203.91 75.1506 204.117 75.2346 204.365C75.3186 204.612 75.3059 204.882 75.199 205.12C74.844 205.772 74.4734 206.406 74.061 207.105C73.9138 207.324 73.688 207.48 73.4294 207.54C73.1708 207.6 72.8989 207.56 72.6691 207.428C72.4393 207.295 72.2688 207.081 72.1923 206.828C72.1159 206.575 72.1392 206.302 72.2576 206.066C72.6699 205.37 73.0379 204.752 73.372 204.128Z" fill="#8C8184"/>
<path d="M75.4052 200.313C76.2952 198.578 77.1747 196.758 78.1012 194.745C78.1583 194.621 78.2394 194.509 78.3399 194.416C78.4403 194.323 78.5582 194.251 78.6868 194.203C78.9464 194.107 79.2339 194.117 79.4858 194.232C79.7378 194.347 79.9336 194.556 80.0303 194.815C80.127 195.073 80.1165 195.359 80.0013 195.61C79.0617 197.648 78.1743 199.505 77.2661 201.256C77.1404 201.501 76.9219 201.687 76.6586 201.773C76.3952 201.858 76.1087 201.835 75.8619 201.71C75.6151 201.585 75.4284 201.368 75.3427 201.106C75.2571 200.844 75.2795 200.559 75.4052 200.313V200.313Z" fill="#8C8184"/>
<path d="M79.7898 190.989C81.7212 186.574 83.6682 181.764 85.7405 176.256C85.8433 176.006 86.0398 175.805 86.2884 175.697C86.537 175.589 86.8181 175.581 87.0723 175.676C87.3265 175.77 87.5337 175.96 87.65 176.204C87.7663 176.448 87.7826 176.727 87.6954 176.983C85.6074 182.528 83.65 187.371 81.6925 191.82C81.6113 192.005 81.4778 192.163 81.3081 192.274C81.1385 192.384 80.9401 192.443 80.7373 192.444C80.5937 192.443 80.4517 192.414 80.3197 192.358C80.0673 192.246 79.8699 192.039 79.7706 191.783C79.6713 191.526 79.6782 191.241 79.7898 190.989Z" fill="#8C8184"/>
<path d="M35.7158 186.463C35.7991 186.354 35.9031 186.263 36.0217 186.194C36.1404 186.126 36.2714 186.081 36.4074 186.063C36.5433 186.045 36.6815 186.054 36.8141 186.089C36.9467 186.124 37.071 186.185 37.18 186.268C37.289 186.351 37.3805 186.454 37.4493 186.572C37.5182 186.69 37.5629 186.821 37.5811 186.956C37.5993 187.091 37.5905 187.229 37.5553 187.361C37.52 187.493 37.459 187.616 37.3758 187.725L36.0447 189.457C35.8765 189.676 35.6277 189.82 35.3531 189.856C35.0786 189.893 34.8006 189.819 34.5805 189.652C34.3604 189.484 34.2161 189.237 34.1794 188.964C34.1427 188.69 34.2166 188.414 34.3848 188.195L35.7158 186.463Z" fill="#8C8184"/>
<path d="M41.7814 178.24C41.9426 178.015 42.1868 177.864 42.4602 177.819C42.7335 177.774 43.0137 177.839 43.239 177.999C43.4643 178.16 43.6163 178.403 43.6616 178.675C43.7069 178.947 43.6417 179.226 43.4804 179.45C42.105 181.361 40.9723 182.915 39.9179 184.338C39.7535 184.56 39.5073 184.707 39.2334 184.748C38.9595 184.79 38.6805 184.721 38.4576 184.557C38.2347 184.394 38.0863 184.149 38.0449 183.876C38.0035 183.604 38.0727 183.326 38.2371 183.104C39.2863 181.689 40.4138 180.143 41.7814 178.24Z" fill="#8C8184"/>
<path d="M50.0574 166.48L52.9544 162.324C53.1126 162.098 53.3546 161.944 53.6273 161.895C53.8999 161.846 54.1808 161.907 54.4082 162.065C54.6356 162.222 54.7908 162.463 54.8398 162.734C54.8887 163.006 54.8273 163.285 54.6692 163.511C53.7018 164.897 52.737 166.282 51.7748 167.667C49.8277 170.461 47.8129 173.352 45.811 176.183C45.7142 176.319 45.5859 176.43 45.4369 176.506C45.2879 176.583 45.1226 176.622 44.955 176.622C44.74 176.622 44.5304 176.555 44.3547 176.432C44.2421 176.354 44.146 176.255 44.0719 176.14C43.9978 176.025 43.9472 175.897 43.9229 175.763C43.8987 175.628 43.9013 175.491 43.9306 175.357C43.9599 175.224 44.0153 175.098 44.0937 174.986C46.1007 172.16 48.113 169.272 50.0574 166.48Z" fill="#8C8184"/>
<path d="M101.959 70.902C101.682 70.902 101.416 70.7926 101.221 70.5978C101.025 70.4029 100.915 70.1387 100.915 69.8632V69.4788C100.915 69.2033 101.025 68.939 101.221 68.7442C101.416 68.5494 101.682 68.4399 101.959 68.4399C102.236 68.4399 102.501 68.5494 102.697 68.7442C102.893 68.939 103.003 69.2033 103.003 69.4788V69.8736C103 70.1473 102.889 70.4089 102.693 70.6014C102.498 70.794 102.234 70.9021 101.959 70.902Z" fill="#8C8184"/>
<path d="M20.0066 51.6003C19.7297 51.6003 19.4641 51.4908 19.2684 51.296C19.0726 51.1012 18.9626 50.8369 18.9626 50.5614V50.177C18.9626 49.9015 19.0726 49.6373 19.2684 49.4425C19.4641 49.2476 19.7297 49.1382 20.0066 49.1382C20.2834 49.1382 20.549 49.2476 20.7448 49.4425C20.9405 49.6373 21.0505 49.9015 21.0505 50.177V50.5718C21.0478 50.8455 20.9366 51.1071 20.7411 51.2997C20.5456 51.4923 20.2816 51.6003 20.0066 51.6003Z" fill="#8C8184"/>
<path d="M170.339 157.18C170.616 157.18 170.881 157.289 171.077 157.484C171.273 157.679 171.383 157.943 171.383 158.219V158.613C171.383 158.889 171.273 159.153 171.077 159.348C170.881 159.543 170.616 159.652 170.339 159.652C170.062 159.652 169.797 159.543 169.601 159.348C169.405 159.153 169.295 158.889 169.295 158.613V158.219C169.295 157.943 169.405 157.679 169.601 157.484C169.797 157.289 170.062 157.18 170.339 157.18Z" fill="#8C8184"/>
<path d="M143.196 49.0031C142.919 49.0031 142.653 48.8937 142.458 48.6988C142.262 48.504 142.152 48.2398 142.152 47.9643V47.5799C142.152 47.3044 142.262 47.0401 142.458 46.8453C142.653 46.6505 142.919 46.541 143.196 46.541C143.473 46.541 143.738 46.6505 143.934 46.8453C144.13 47.0401 144.24 47.3044 144.24 47.5799V47.9746C144.237 48.2484 144.126 48.5099 143.93 48.7025C143.735 48.8951 143.471 49.0031 143.196 49.0031Z" fill="#8C8184"/>
<path d="M133.278 87.5236C133.001 87.5236 132.736 87.4142 132.54 87.2193C132.344 87.0245 132.234 86.7603 132.234 86.4848V86.1004C132.234 85.8249 132.344 85.5606 132.54 85.3658C132.736 85.171 133.001 85.0615 133.278 85.0615C133.555 85.0615 133.82 85.171 134.016 85.3658C134.212 85.5606 134.322 85.8249 134.322 86.1004V86.4952C134.319 86.7689 134.208 87.0304 134.013 87.223C133.817 87.4156 133.553 87.5236 133.278 87.5236Z" fill="#8C8184"/>
</svg>
