<svg width="96" height="32" viewBox="0 0 96 32" fill="none" xmlns="http://www.w3.org/2000/svg">
<g clip-path="url(#clip0_313_35)">
<path d="M10.7908 0.872777C11.5045 1.27814 12.0887 1.86839 12.4785 2.57786C12.887 3.32416 13.0947 4.1591 13.0823 5.00474V5.27849C13.0935 6.12673 12.8859 6.96415 12.4785 7.71396C12.0923 8.42826 11.5091 9.02343 10.7945 9.43254C10.0467 9.85064 9.19624 10.0628 8.33413 10.0463H4.76956V14.711H0V0.251632H8.33034C9.19323 0.236827 10.0439 0.451587 10.7908 0.872777ZM4.76956 6.66317H6.73335C7.23753 6.66317 7.61567 6.53714 7.86776 6.28508C7.99785 6.14646 8.09828 5.984 8.16321 5.80717C8.22813 5.63034 8.25624 5.44269 8.24589 5.25516V5.08699C8.24589 4.63934 8.11985 4.29235 7.86776 4.04602C7.61567 3.8005 7.23753 3.67775 6.73335 3.67775H4.76956V6.66317Z" fill="white"/>
<path d="M25.1221 1.12444C26.3447 1.87407 26.9704 2.9846 26.9989 4.45604V4.70892H22.5319V4.62421C22.5361 4.42603 22.4959 4.22934 22.414 4.04785C22.3322 3.86637 22.2107 3.70446 22.0579 3.57342C21.7411 3.29354 21.2592 3.15319 20.6122 3.15237C19.9795 3.15237 19.4938 3.24362 19.1551 3.42612C18.8165 3.60861 18.6484 3.83285 18.6509 4.09882C18.6509 4.47691 18.8812 4.7572 19.3417 4.9397C19.8021 5.12219 20.5429 5.31124 21.5638 5.50683C22.5614 5.6946 23.5457 5.94389 24.5108 6.25318C25.2786 6.51228 25.9706 6.94864 26.5275 7.52494C27.1023 8.11335 27.3964 8.91208 27.4098 9.92113C27.4098 11.6315 26.8162 12.9 25.6288 13.7266C24.4415 14.5531 22.8554 14.9664 20.8706 14.9664C18.5539 14.9664 16.7514 14.5883 15.4632 13.8321C14.1751 13.076 13.5314 11.7387 13.5322 9.82047H18.0421C18.0421 10.5496 18.2367 11.0366 18.6257 11.2813C19.0148 11.526 19.619 11.6487 20.4383 11.6495C20.9453 11.6627 21.4513 11.599 21.9382 11.4605C22.334 11.3345 22.5319 11.075 22.5319 10.6822C22.5319 10.332 22.3126 10.0693 21.8739 9.89412C21.4353 9.71899 20.7193 9.53077 19.7261 9.32945C18.7101 9.12805 17.7081 8.86441 16.7262 8.54013C15.9303 8.26607 15.2178 7.80177 14.654 7.18981C14.0658 6.55885 13.7717 5.70406 13.7717 4.62544C13.7717 3.04189 14.4019 1.8753 15.6624 1.12567C16.9229 0.376042 18.5148 0.000818373 20.4383 0C22.3382 0 23.8995 0.374815 25.1221 1.12444Z" fill="white"/>
<path d="M37.6182 14.7135H32.8474V9.10112L26.9561 0.251648H32.4378L35.2927 5.06613H35.3797L38.2283 0.251648H43.4302L37.6182 9.10112V14.7135Z" fill="white"/>
<path d="M67.9385 14.7135V9.22753H62.6963V14.7135H57.9268V0.251621H62.6963V5.52399H67.9385V0.245483H72.7081V14.7135H67.9385Z" fill="white"/>
<path d="M74.745 14.7135V0.251648H79.5095V14.7135H74.745Z" fill="white"/>
<path d="M10.7908 17.9064C11.5036 18.3117 12.0876 18.9009 12.4785 19.609C12.887 20.3558 13.0947 21.1911 13.0823 22.0371V22.3109C13.0938 23.1599 12.8862 23.9982 12.4785 24.7488C12.0918 25.4612 11.5086 26.0543 10.7945 26.4612C10.0477 26.8824 9.19701 27.0972 8.33413 27.0824H4.76956V31.7471H0V17.2865H8.33034C9.19304 17.2718 10.0436 17.4861 10.7908 17.9064ZM4.76956 23.698H6.73335C7.23753 23.698 7.61567 23.572 7.86776 23.3199C7.99785 23.1813 8.09828 23.0188 8.16321 22.842C8.22813 22.6652 8.25624 22.4775 8.24589 22.29V22.1218C8.24589 21.6725 8.11985 21.3264 7.86776 21.0809C7.61567 20.8353 7.23753 20.7126 6.73335 20.7126H4.76956V23.698Z" fill="white"/>
<path d="M14.4171 31.7484V17.2865H19.1867V31.7484H14.4171Z" fill="white"/>
<path d="M32.1416 18.1593C33.3642 18.9089 33.9898 20.0195 34.0184 21.4909V21.7425H29.5463V21.6591C29.5506 21.4608 29.5102 21.264 29.4282 21.0824C29.3461 20.9009 29.2242 20.7391 29.0711 20.6083C28.7552 20.3267 28.2733 20.1864 27.6254 20.1872C26.9918 20.1872 26.5061 20.2785 26.1683 20.461C25.8305 20.6435 25.6624 20.8677 25.6641 21.1337C25.6641 21.5118 25.8944 21.792 26.3548 21.9745C26.8153 22.157 27.5561 22.3461 28.577 22.5417C29.5742 22.7293 30.5581 22.9786 31.5227 23.288C32.2911 23.5461 32.9833 23.9826 33.5394 24.5598C34.115 25.1482 34.4092 25.9469 34.4218 26.956C34.4218 28.6664 33.8281 29.9348 32.6407 30.7614C31.4534 31.588 29.8669 32.0012 27.8813 32.0012C25.5645 32.0012 23.7625 31.6232 22.4752 30.867C21.1878 30.1108 20.5446 28.7719 20.5454 26.8504H25.0553C25.0553 27.5796 25.2498 28.0665 25.6389 28.3112C26.028 28.5559 26.6321 28.6786 27.4514 28.6795C27.9584 28.6919 28.4644 28.6282 28.9514 28.4904C29.3472 28.3644 29.5451 28.105 29.5451 27.7122C29.5451 27.3627 29.3253 27.1 28.8858 26.9241C28.4464 26.7481 27.7321 26.5623 26.7431 26.3667C25.7269 26.1664 24.7249 25.9032 23.7432 25.5787C22.9473 25.3046 22.2348 24.8403 21.671 24.2283C21.0828 23.5974 20.7887 22.7426 20.7887 21.664C20.7887 20.0804 21.4189 18.9138 22.6794 18.1642C23.9398 17.4146 25.5334 17.0398 27.4603 17.0398C29.3551 17.0365 30.9156 17.4097 32.1416 18.1593Z" fill="white"/>
<path d="M50.8265 17.2865H63.668V20.7556H55.6011V22.7516H62.5072V26.0734H55.5961V28.283H63.8193V31.752H50.8265V17.2865Z" fill="white"/>
<path d="M75.9474 18.1593C77.1701 18.9089 77.7961 20.0195 77.8255 21.4909V21.7425H73.3585V21.6591C73.3627 21.4608 73.3224 21.264 73.2403 21.0824C73.1582 20.9009 73.0363 20.7391 72.8833 20.6083C72.5673 20.3268 72.0854 20.1864 71.4375 20.1872C70.8039 20.1872 70.3182 20.2785 69.9804 20.461C69.6426 20.6435 69.4746 20.8677 69.4763 21.1337C69.4763 21.5118 69.7065 21.792 70.167 21.9745C70.6275 22.157 71.3686 22.3461 72.3904 22.5417C73.3876 22.7294 74.3714 22.9787 75.3361 23.288C76.1045 23.5461 76.7967 23.9826 77.3528 24.5598C77.9293 25.1482 78.2234 25.9469 78.2352 26.956C78.2352 28.6664 77.6419 29.9349 76.4554 30.7614C75.2689 31.588 73.6824 32.0012 71.6959 32.0012C69.3792 32.0012 67.5772 31.6232 66.2898 30.867C65.0025 30.1108 64.3584 28.7724 64.3575 26.8516H68.8687C68.8687 27.5808 69.0628 28.0677 69.451 28.3124C69.8393 28.5571 70.4439 28.6799 71.2648 28.6807C71.7718 28.6932 72.2778 28.6294 72.7648 28.4917C73.1606 28.3656 73.3585 28.1062 73.3585 27.7134C73.3585 27.3635 73.1379 27.0996 72.6992 26.9253C72.2606 26.751 71.5447 26.5644 70.5565 26.368C69.5403 26.1677 68.5383 25.9044 67.5566 25.5799C66.7607 25.3058 66.0482 24.8415 65.4844 24.2296C64.8962 23.5986 64.6021 22.7438 64.6021 21.6652C64.6021 20.0817 65.2323 18.9151 66.4928 18.1654C67.7532 17.4158 69.3468 17.041 71.2737 17.041C73.1677 17.0369 74.7256 17.4097 75.9474 18.1593Z" fill="white"/>
<path d="M96 8.70219C95.7911 10.2874 95.0476 11.7602 93.8862 12.8894C90.9456 15.7533 86.1344 15.7128 83.1433 12.7998C80.1523 9.88678 80.1094 5.20119 83.0513 2.3373C84.2112 1.20776 85.7227 0.484277 87.3495 0.279907C87.2877 0.335147 87.2234 0.392843 87.1667 0.450538C84.816 2.73993 84.8487 6.48276 87.2398 8.81144C89.6309 11.1401 93.4728 11.1708 95.8235 8.88264C95.884 8.82494 95.9433 8.76357 96 8.70219Z" fill="white"/>
<path d="M56.7621 8.86789C56.5543 10.4542 55.8106 11.9281 54.6483 13.0576C51.7077 15.9214 46.8965 15.8809 43.9054 12.9679C40.9144 10.0549 40.8728 5.36935 43.8134 2.50545C44.973 1.37462 46.4852 0.650565 48.1128 0.446838C48.0511 0.500851 47.9868 0.558546 47.9301 0.617469C45.5793 2.90564 45.6121 6.64847 48.0032 8.97714C50.3943 11.3058 54.2361 11.3377 56.5869 9.04834C56.6461 8.99065 56.7054 8.9305 56.7621 8.86789Z" fill="white"/>
<path d="M50.0817 25.5627C49.8738 27.1489 49.1302 28.6228 47.9679 29.7523C45.0272 32.6162 40.2161 32.5757 37.225 29.6627C34.234 26.7497 34.1924 22.0641 37.133 19.2002C38.2926 18.0694 39.8048 17.3453 41.4324 17.1416C41.3707 17.1956 41.3064 17.2533 41.2497 17.3122C38.8989 19.6004 38.9317 23.3432 41.3228 25.6719C43.7138 28.0006 47.5557 28.0325 49.9065 25.7431C49.9657 25.6854 50.0249 25.6253 50.0817 25.5627Z" fill="white"/>
</g>
<defs>
<clipPath id="clip0_313_35">
<rect width="96" height="32" fill="white"/>
</clipPath>
</defs>
</svg>
