<svg width="212" height="384" viewBox="0 0 212 384" fill="none" xmlns="http://www.w3.org/2000/svg">
<path d="M31.723 345.914C32.282 346.204 45.4998 353 55.3509 353C70.2952 353 78.5703 349.708 85.8672 346.803C91.1711 344.692 95.757 342.867 101.91 342.867C112.892 342.867 121.26 345.916 127.965 348.364C132.3 349.945 135.724 351.194 138.702 351.194C144.537 351.194 149.237 348.959 153.78 346.797C157.925 344.823 161.84 342.962 166.406 342.861C177.416 342.61 185.792 348.444 185.876 348.512C186.167 348.719 186.528 348.801 186.879 348.742C187.231 348.683 187.544 348.487 187.751 348.197C187.958 347.907 188.041 347.546 187.981 347.195C187.922 346.844 187.726 346.531 187.435 346.324C187.067 346.062 178.281 339.913 166.346 340.177C161.204 340.291 156.841 342.365 152.623 344.372C148.151 346.5 143.929 348.51 138.702 348.51C136.2 348.51 132.973 347.334 128.888 345.843C127.292 345.261 125.553 344.628 123.67 344.001C129.793 341.121 135.373 337.207 140.164 332.432C149.071 323.534 154.582 312.158 156.095 299.532L156.6 295.321L153.76 298.474C153.352 298.929 152.931 299.373 152.505 299.798C135.587 316.695 107.513 316.149 89.9263 298.583C81.3953 290.065 76.5752 278.867 76.3516 267.053C76.128 255.239 80.516 244.261 88.7052 236.088C89.1953 235.599 89.6124 235.201 90.0166 234.839L93.1878 232L88.9503 232.5C76.315 234.016 64.9289 239.52 56.026 248.411C45.1924 259.231 39.3897 273.776 39.6864 289.365C39.9831 304.954 46.3362 319.688 57.561 330.903C64.1098 337.443 72.4537 342.605 81.3674 345.68C75.0552 348.068 67.4615 350.318 55.353 350.318C46.162 350.318 33.0946 343.599 32.9635 343.531C32.647 343.367 32.2783 343.335 31.9384 343.443C31.5985 343.55 31.3153 343.788 31.1511 344.104C30.9869 344.42 30.9551 344.788 31.0627 345.128C31.1704 345.467 31.4087 345.75 31.7251 345.914H31.723Z" fill="#231F20"/>
<path d="M211.435 362.236C211.067 361.97 202.28 355.741 190.348 356.008C185.205 356.124 180.843 358.225 176.625 360.258C172.153 362.414 167.931 364.448 162.702 364.448C160.199 364.448 156.974 363.256 152.89 361.748C146.339 359.328 137.369 356.015 125.912 356.015C119.247 356.015 114.204 358.044 108.874 360.193C101.8 363.047 93.7812 366.283 79.353 366.283C70.162 366.283 57.0946 359.478 56.9635 359.408C56.647 359.242 56.2783 359.21 55.9384 359.319C55.5985 359.428 55.3153 359.669 55.1511 359.989C54.9869 360.309 54.9551 360.682 55.0627 361.026C55.1704 361.37 55.4087 361.656 55.7251 361.822C56.282 362.114 69.5019 369 79.353 369C94.2972 369 102.572 365.663 109.869 362.723C115.173 360.583 119.759 358.736 125.912 358.736C136.894 358.736 145.262 361.824 151.967 364.304C156.301 365.905 159.724 367.169 162.702 367.169C168.539 367.169 173.237 364.904 177.779 362.716C181.927 360.717 185.842 358.829 190.406 358.727C201.424 358.477 209.794 364.382 209.878 364.454C210.022 364.558 210.184 364.631 210.356 364.671C210.528 364.711 210.707 364.716 210.881 364.686C211.055 364.657 211.221 364.592 211.37 364.497C211.52 364.403 211.649 364.279 211.752 364.133C211.854 363.988 211.927 363.823 211.966 363.649C212.005 363.475 212.011 363.295 211.981 363.119C211.952 362.943 211.888 362.775 211.795 362.623C211.701 362.472 211.578 362.341 211.435 362.238V362.236Z" fill="#231F20"/>
<path d="M163.434 377.237C163.067 376.971 154.286 370.745 142.351 371.008C137.21 371.123 132.848 373.226 128.631 375.26C124.16 377.413 119.938 379.448 114.71 379.448C112.208 379.448 108.984 378.257 104.899 376.749C98.3497 374.329 89.3818 371.017 77.9267 371.017C71.2631 371.017 66.2202 373.046 60.8915 375.194C53.8172 378.046 45.8015 381.284 31.3758 381.284C22.1864 381.284 9.12137 374.481 8.99025 374.412C8.83331 374.324 8.66072 374.27 8.48263 374.251C8.30454 374.232 8.12453 374.25 7.9532 374.302C7.78187 374.355 7.62266 374.442 7.48494 374.557C7.34721 374.673 7.23375 374.816 7.15122 374.976C7.06869 375.137 7.01876 375.313 7.00435 375.494C6.98995 375.674 7.01137 375.856 7.06735 376.028C7.12333 376.2 7.21274 376.359 7.33033 376.496C7.44793 376.632 7.59132 376.744 7.7521 376.823C8.30883 377.117 21.5265 384 31.3758 384C46.3174 384 54.5911 380.666 61.8867 377.724C67.1897 375.586 71.7747 373.74 77.9267 373.74C88.9067 373.74 97.2621 376.826 103.977 379.307C108.311 380.908 111.733 382.171 114.71 382.171C120.544 382.171 125.243 379.907 129.785 377.717C133.929 375.721 137.846 373.833 142.409 373.731C153.372 373.487 161.732 379.353 161.876 379.455C162.02 379.558 162.182 379.632 162.355 379.672C162.527 379.712 162.705 379.717 162.879 379.687C163.053 379.658 163.22 379.593 163.37 379.498C163.519 379.404 163.649 379.28 163.751 379.134C163.854 378.988 163.927 378.824 163.966 378.65C164.005 378.475 164.011 378.295 163.981 378.119C163.952 377.943 163.888 377.774 163.794 377.623C163.701 377.471 163.578 377.34 163.434 377.237V377.237Z" fill="#231F20"/>
<path d="M36.504 232C37.4049 229.607 38.8071 227.433 40.6171 225.623C42.4271 223.814 44.6032 222.411 47 221.507C44.6021 220.602 42.4254 219.196 40.6154 217.384C38.8054 215.572 37.4038 213.396 36.504 211C35.6013 213.395 34.1977 215.571 32.3865 217.383C30.5753 219.195 28.3982 220.601 26 221.507C28.3971 222.412 30.5737 223.815 32.3849 225.624C34.196 227.434 35.6002 229.607 36.504 232V232Z" fill="#307CED"/>
<path d="M16.0011 333C16.5162 331.519 17.3178 330.173 18.3522 329.053C19.3867 327.933 20.6303 327.064 22 326.505C20.6296 325.944 19.3857 325.073 18.3512 323.952C17.3168 322.83 16.5156 321.483 16.0011 320C15.4857 321.483 14.684 322.83 13.6492 323.951C12.6144 325.073 11.3704 325.943 10 326.505C11.3698 327.064 12.6136 327.933 13.6484 329.053C14.6832 330.173 15.4852 331.519 16.0011 333V333Z" fill="#307CED"/>
<path d="M59.0011 35C59.5162 33.5185 60.3178 32.1729 61.3522 31.0528C62.3867 29.9327 63.6303 29.064 65 28.5046C63.6296 27.9438 62.3857 27.0735 61.3512 25.9518C60.3168 24.8302 59.5156 23.4829 59.0011 22C58.4857 23.4828 57.684 24.8298 56.6492 25.9514C55.6144 27.073 54.3704 27.9434 53 28.5046C54.3698 29.0642 55.6136 29.933 56.6484 31.0531C57.6832 32.1731 58.4852 33.5186 59.0011 35V35Z" fill="#307CED"/>
<path d="M113.002 19C113.774 16.8348 114.977 14.8681 116.528 13.231C118.08 11.594 119.945 10.3243 122 9.50669C119.944 8.68706 118.079 7.41511 116.527 5.77575C114.975 4.1364 113.773 2.16735 113.002 0C112.229 2.16714 111.026 4.13591 109.474 5.77516C107.922 7.41442 106.056 8.68651 104 9.50669C106.055 10.3247 107.92 11.5944 109.473 13.2314C111.025 14.8684 112.228 16.8349 113.002 19V19Z" fill="#307CED"/>
<path d="M158.5 176C159.881 176 161 174.881 161 173.5C161 172.119 159.881 171 158.5 171C157.119 171 156 172.119 156 173.5C156 174.881 157.119 176 158.5 176Z" fill="#307CED"/>
<path d="M148.5 192C149.881 192 151 190.881 151 189.5C151 188.119 149.881 187 148.5 187C147.119 187 146 188.119 146 189.5C146 190.881 147.119 192 148.5 192Z" fill="#307CED"/>
<path d="M118.5 290C119.881 290 121 288.881 121 287.5C121 286.119 119.881 285 118.5 285C117.119 285 116 286.119 116 287.5C116 288.881 117.119 290 118.5 290Z" fill="#307CED"/>
<path d="M146.914 220H147.086C147.328 220 147.561 219.947 147.732 219.854C147.904 219.76 148 219.633 148 219.5C148 219.367 147.904 219.24 147.732 219.146C147.561 219.053 147.328 219 147.086 219H146.914C146.672 219 146.439 219.053 146.268 219.146C146.096 219.24 146 219.367 146 219.5C146 219.633 146.096 219.76 146.268 219.854C146.439 219.947 146.672 220 146.914 220Z" fill="#231F20"/>
<path d="M127.086 270H126.914C126.672 270 126.439 270.105 126.268 270.293C126.096 270.48 126 270.735 126 271C126 271.265 126.096 271.52 126.268 271.707C126.439 271.895 126.672 272 126.914 272H127.086C127.328 272 127.561 271.895 127.732 271.707C127.904 271.52 128 271.265 128 271C128 270.735 127.904 270.48 127.732 270.293C127.561 270.105 127.328 270 127.086 270Z" fill="#231F20"/>
<path d="M150 216C150.265 216 150.52 215.911 150.707 215.754C150.895 215.596 151 215.382 151 215.159V214.841C151 214.618 150.895 214.404 150.707 214.246C150.52 214.089 150.265 214 150 214C149.735 214 149.48 214.089 149.293 214.246C149.105 214.404 149 214.618 149 214.841V215.159C149 215.382 149.105 215.596 149.293 215.754C149.48 215.911 149.735 216 150 216Z" fill="#231F20"/>
<path d="M123 267C122.735 267 122.48 267.089 122.293 267.246C122.105 267.404 122 267.618 122 267.841V268.159C122 268.382 122.105 268.596 122.293 268.754C122.48 268.911 122.735 269 123 269C123.265 269 123.52 268.911 123.707 268.754C123.895 268.596 124 268.382 124 268.159V267.841C124 267.618 123.895 267.404 123.707 267.246C123.52 267.089 123.265 267 123 267Z" fill="#231F20"/>
<path d="M152.841 212H153.159C153.382 212 153.596 211.895 153.754 211.707C153.911 211.52 154 211.265 154 211C154 210.735 153.911 210.48 153.754 210.293C153.596 210.105 153.382 210 153.159 210H152.841C152.618 210 152.404 210.105 152.246 210.293C152.089 210.48 152 210.735 152 211C152 211.265 152.089 211.52 152.246 211.707C152.404 211.895 152.618 212 152.841 212Z" fill="#231F20"/>
<path d="M103.098 140.301C101.785 152.28 114.033 164.425 120.322 169L139.186 166.504L150.259 159.018L154.36 151.115L156 141.965L145.338 144.876L146.568 141.965L149.028 133.23L147.798 128.239L133.445 133.23L132.214 131.982L130.574 122L118.681 128.239L114.17 140.301L110.479 128.239C108.566 127.268 104.41 128.322 103.098 140.301Z" fill="#307CED"/>
<path d="M166.772 250.612C166.682 250.516 166.57 250.441 166.445 250.395C166.321 250.349 166.188 250.332 166.056 250.346C157.081 251.297 148.328 257.753 142.598 267.464C143.249 263.466 143.583 259.424 143.597 255.374C143.626 247.307 142.083 239.311 139.054 231.835C148.765 226.344 160.127 217.262 160.127 204.81C160.125 203.617 160.023 202.426 159.822 201.249C159.8 201.122 159.75 201.002 159.675 200.897C159.6 200.792 159.502 200.706 159.389 200.644C159.276 200.582 159.15 200.547 159.021 200.54C158.893 200.533 158.764 200.556 158.645 200.606C148.191 205.007 140.345 215.683 137.77 228.8C135.663 224.092 133.206 219.744 130.777 215.454C126.385 207.704 122.183 200.282 120.569 191.382C129.813 190.31 141.631 186.916 146.308 176.878C146.754 175.918 147.125 174.926 147.419 173.909C147.456 173.782 147.462 173.647 147.439 173.517C147.415 173.387 147.361 173.263 147.282 173.157C147.202 173.051 147.1 172.965 146.981 172.905C146.863 172.845 146.732 172.814 146.6 172.813H146.467C136.938 172.813 126.991 178.928 120.192 188.888C119.978 187.138 119.871 185.376 119.87 183.613C119.87 179.053 120.44 174.349 121.011 169.784C121.083 169.78 121.155 169.768 121.225 169.746C121.27 169.756 121.316 169.763 121.362 169.765H121.39C121.892 169.748 133.746 169.336 139.717 166.689C145.79 163.993 150.257 160.383 153.376 155.651C156.525 150.876 157.34 141.906 157.374 141.526C157.386 141.392 157.366 141.258 157.316 141.133C157.267 141.008 157.188 140.897 157.088 140.808C156.987 140.719 156.867 140.655 156.738 140.621C156.608 140.587 156.472 140.584 156.341 140.612C153.405 141.254 150.515 142.095 147.693 143.13C150.48 140.672 154.89 136.219 156.553 131.547C157.148 131.435 157.684 131.117 158.068 130.648C158.451 130.18 158.657 129.591 158.65 128.986C158.642 128.38 158.421 127.797 158.026 127.338C157.631 126.879 157.087 126.574 156.49 126.477C155.893 126.38 155.28 126.497 154.76 126.807C154.24 127.117 153.846 127.6 153.648 128.172C153.449 128.744 153.458 129.368 153.673 129.934C153.889 130.5 154.297 130.972 154.825 131.266C153.567 134.516 150.712 137.967 147.7 140.809C149.376 137.952 150.253 134.589 149.642 128.926C149.619 128.715 149.519 128.52 149.36 128.378C149.202 128.237 148.997 128.159 148.784 128.16C148.407 128.16 140.853 128.214 134.825 131.985C137.198 129.145 139.648 126.256 142.293 123.699C142.858 123.92 143.483 123.934 144.058 123.738C144.632 123.543 145.119 123.151 145.432 122.631C145.746 122.111 145.866 121.497 145.77 120.898C145.675 120.298 145.371 119.751 144.912 119.354C144.453 118.957 143.869 118.735 143.262 118.728C142.656 118.72 142.066 118.927 141.597 119.312C141.128 119.698 140.81 120.236 140.7 120.833C140.59 121.43 140.694 122.047 140.994 122.575C138.184 125.299 135.618 128.366 133.116 131.346L132.994 131.492C133.152 128.602 132.769 125.413 131.603 121.472C131.568 121.355 131.508 121.247 131.428 121.155C131.347 121.063 131.248 120.989 131.137 120.938C131.026 120.888 130.906 120.862 130.784 120.862C130.662 120.862 130.541 120.888 130.43 120.938C130.093 121.088 124.138 123.789 119.684 127.997C121.598 124.237 123.971 120.852 126.543 118.827C127.037 119.1 127.607 119.203 128.165 119.12C128.722 119.037 129.238 118.773 129.631 118.369C130.024 117.964 130.273 117.442 130.341 116.881C130.408 116.321 130.29 115.754 130.004 115.268C129.717 114.782 129.279 114.403 128.757 114.19C128.235 113.977 127.657 113.942 127.113 114.09C126.569 114.238 126.088 114.56 125.745 115.008C125.402 115.456 125.216 116.004 125.214 116.569C125.215 116.898 125.279 117.224 125.401 117.53C119.93 121.873 116.071 131.063 114.519 136.431C114.47 136.603 114.429 136.779 114.384 136.951C111.057 125.166 111.047 125.136 111.01 125.059C110.947 124.922 110.85 124.805 110.728 124.718C110.605 124.631 110.463 124.578 110.313 124.564C110.164 124.55 110.014 124.575 109.877 124.637C109.741 124.699 109.623 124.795 109.535 124.917C108.787 125.96 107.96 126.959 107.087 128.017C104.234 131.47 101.286 135.039 101.286 139.996C101.286 149.608 110.933 164.879 119.36 169.149C118.766 173.898 118.155 178.802 118.155 183.613C118.155 184.488 118.183 185.346 118.23 186.187C113.799 176.629 106.534 166.404 95.3869 165.012C94.2038 164.865 93.0106 164.818 91.8197 164.87C91.6905 164.876 91.5643 164.912 91.4507 164.974C91.3371 165.036 91.239 165.123 91.1638 165.228C91.0873 165.334 91.0358 165.455 91.0131 165.583C90.9904 165.711 90.9972 165.843 91.033 165.968C91.033 165.968 91.0523 166.033 91.0544 166.037C94.33 177.586 104.937 187.109 118.736 190.893C120.132 199.49 123.855 206.663 127.954 213.963C119.559 207.397 108.189 201.44 97.492 205.424C96.3751 205.842 95.2952 206.352 94.2636 206.951C94.1525 207.017 94.0579 207.108 93.987 207.217C93.9161 207.325 93.8706 207.449 93.8541 207.577C93.8369 207.707 93.8488 207.84 93.8888 207.965C93.9288 208.09 93.996 208.204 94.0856 208.3L94.1242 208.339C100.416 214.988 109.947 218.635 120.325 218.635C123.582 218.631 126.83 218.283 130.014 217.599C134.396 225.353 138.75 233.397 140.75 243.536L140.64 243.467C140.585 243.42 140.524 243.381 140.458 243.352L140.428 243.334C129.845 236.685 115.038 230.565 103.254 237.886C102.115 238.596 101.04 239.403 100.039 240.297C99.9459 240.38 99.8721 240.481 99.8224 240.595C99.7728 240.709 99.7484 240.832 99.7511 240.957C99.7537 241.081 99.7833 241.203 99.8378 241.315C99.8923 241.426 99.9703 241.525 100.067 241.603L100.139 241.661C106.307 246.648 114.211 249.195 122.635 249.195C128.638 249.195 134.904 247.908 140.992 245.278C141.017 245.266 141.04 245.251 141.063 245.235C141.618 248.587 141.894 251.98 141.888 255.379C141.888 262.457 140.776 269.945 138.52 277.983C134.13 269.937 126.837 260.752 116.181 260.031C115.126 259.96 114.068 259.971 113.015 260.063C112.882 260.075 112.755 260.117 112.642 260.186C112.528 260.255 112.433 260.35 112.362 260.462C112.292 260.575 112.249 260.702 112.236 260.834C112.223 260.966 112.241 261.1 112.288 261.224C115.784 270.447 125.557 277.74 137.843 280.314C136.438 284.895 134.797 289.399 132.925 293.809C132.837 294.018 132.835 294.254 132.921 294.465C133.007 294.676 133.172 294.844 133.382 294.933C133.591 295.021 133.827 295.023 134.038 294.937C134.249 294.851 134.417 294.685 134.505 294.476C137.901 286.415 140.323 278.896 141.813 271.79C141.841 271.792 141.869 271.792 141.897 271.79C151.022 269.742 162.65 265.065 166.232 254.428C166.562 253.422 166.814 252.391 166.987 251.346C167.01 251.215 167.003 251.081 166.966 250.954C166.928 250.827 166.862 250.71 166.772 250.612ZM158.287 202.639C158.369 203.36 158.411 204.085 158.412 204.81C158.412 213.148 152.815 219.947 146.214 225.072C146.204 225.024 146.19 224.977 146.171 224.932C145.305 222.842 144.121 220.899 142.662 219.171C146.137 211.685 151.614 205.782 158.287 202.639ZM141.888 220.943C142.99 222.365 143.897 223.927 144.587 225.589C144.662 225.772 144.797 225.923 144.971 226.018C143.154 227.337 141.273 228.563 139.333 229.692C139.882 226.696 140.738 223.764 141.888 220.943ZM144.754 176.153C141.687 182.738 135.178 186.26 128.518 188.122C128.651 186.206 128.506 184.28 128.089 182.405C133.345 177.686 139.451 174.857 145.41 174.555C145.217 175.104 144.999 175.636 144.754 176.153ZM126.614 183.8C126.845 185.221 126.908 186.664 126.801 188.1C126.791 188.253 126.822 188.406 126.891 188.542C125.176 188.952 123.491 189.261 121.857 189.49C123.272 187.457 124.864 185.553 126.614 183.8ZM93.7555 168.57C107.739 180.797 113.692 186.045 116.219 188.304C105.644 184.63 97.3998 177.373 93.7555 168.577V168.57ZM115.218 185.121C110.931 181.316 103.827 175.089 94.1113 166.605C94.4715 166.629 94.8273 166.663 95.1832 166.706C105.239 167.965 112.016 177.159 116.279 186.061L115.218 185.121ZM104.159 239.338C114.071 233.182 126.494 237.322 136.289 242.856L134.059 242.672C127.688 242.152 117.165 241.348 102.761 240.284C103.221 239.948 103.687 239.633 104.159 239.338ZM103.604 242.067C125.881 243.716 134.473 244.413 137.779 244.705C125.562 249.177 112.916 248.189 103.604 242.067ZM151.938 154.707C149.005 159.154 144.78 162.56 139.016 165.119C134.942 166.925 127.675 167.646 123.845 167.907C133.811 164.475 140.137 159.711 143.768 156.187C143.926 156.027 144.015 155.812 144.016 155.588C144.017 155.363 143.93 155.147 143.774 154.986C143.617 154.825 143.404 154.732 143.18 154.726C142.956 154.72 142.738 154.803 142.574 154.956C139.258 158.173 133.605 162.463 124.811 165.741C126.985 162.903 130.01 159.061 132.274 156.618C136.227 152.356 141.234 148.313 145.35 146.063C148.399 144.396 153.301 143.096 155.526 142.558C155.196 145.129 154.21 151.26 151.938 154.707ZM142.919 144.37C142.291 145.129 141.633 145.917 140.96 146.788C137.354 149.322 134.021 152.227 131.017 155.453C128.61 158.049 125.444 162.081 123.249 164.958C125.017 160.282 129.44 151.509 138.947 141.148C139.094 140.98 139.17 140.76 139.157 140.537C139.145 140.313 139.046 140.103 138.881 139.952C138.716 139.801 138.499 139.72 138.275 139.726C138.052 139.733 137.84 139.827 137.684 139.988C131.23 147.03 127.077 153.332 124.477 158.22C125.416 154.724 126.445 151.208 127.298 149.076C127.924 147.506 128.526 146.086 129.107 144.711C130.439 141.56 131.59 138.836 132.295 136.05C132.494 136.028 132.679 135.938 132.818 135.794C137.511 130.897 145.511 130.054 148.021 129.911C148.669 137.41 146.476 140.065 142.919 144.37ZM116.166 136.908C116.486 135.801 116.902 134.724 117.409 133.69C120.007 128.42 127.622 124.252 130.241 122.944C132.668 131.873 130.704 136.517 127.527 144.025C126.942 145.408 126.338 146.837 125.705 148.42C124.318 151.888 122.533 158.684 121.351 163.456C120.458 155.668 121.061 147.781 123.126 140.22C123.181 140.003 123.149 139.773 123.037 139.58C122.925 139.386 122.742 139.244 122.527 139.184C122.311 139.123 122.081 139.149 121.885 139.256C121.689 139.363 121.542 139.543 121.476 139.756C119.281 147.78 118.691 156.158 119.737 164.411C118.417 161.449 116.805 157.414 116.196 154.158C115.351 149.634 114.427 142.92 116.166 136.903V136.908ZM103.001 139.996C103.001 135.657 105.627 132.489 108.408 129.111C108.896 128.521 109.394 127.918 109.876 127.307C110.635 129.981 112.196 135.513 113.677 140.764C113.109 145.809 113.829 150.831 114.511 154.48C114.939 156.562 115.54 158.605 116.305 160.589C112.976 155.743 110.77 150.507 109.855 145.166C109.816 144.942 109.69 144.742 109.504 144.61C109.318 144.479 109.088 144.427 108.863 144.466C108.639 144.504 108.439 144.631 108.308 144.817C108.177 145.003 108.125 145.233 108.163 145.458C109.45 152.929 113.128 160.2 118.811 166.53L119.038 167.011C111.465 162.339 103.001 148.529 103.001 139.996ZM98.0986 207.032C107.595 203.493 117.853 208.508 125.752 214.426L124.383 214.083C118.809 212.697 109.645 210.462 97.1082 207.433C97.4355 207.289 97.7657 207.155 98.0986 207.032ZM97.6978 209.342C115.746 213.703 123.45 215.61 126.739 216.445C115.66 218.073 104.995 215.454 97.6978 209.342ZM114.331 261.706C114.912 261.691 115.484 261.703 116.046 261.743C125.731 262.397 132.531 270.765 136.73 278.307C126.192 275.728 117.806 269.508 114.331 261.706ZM147.417 263.487C147.803 264.874 148.026 266.301 148.081 267.74C148.086 267.893 148.134 268.042 148.218 268.169C146.57 268.766 144.919 269.261 143.32 269.671C144.5 267.492 145.871 265.423 147.417 263.487ZM164.594 253.871C162.27 260.756 156.202 264.98 149.788 267.577C149.707 265.658 149.349 263.76 148.727 261.942C153.426 256.668 159.175 253.178 165.068 252.217C164.935 252.777 164.776 253.33 164.594 253.871Z" fill="#231F20"/>
<path d="M151.613 263.899L151.748 263.948C151.846 263.982 151.948 264 152.052 264C152.276 264 152.494 263.917 152.665 263.767C152.837 263.616 152.951 263.407 152.987 263.178C153.024 262.948 152.98 262.712 152.864 262.513C152.749 262.314 152.568 262.163 152.355 262.089L152.215 262.04C151.98 261.968 151.727 261.994 151.509 262.111C151.292 262.229 151.127 262.429 151.049 262.67C150.971 262.91 150.986 263.173 151.092 263.402C151.197 263.631 151.384 263.81 151.613 263.899V263.899Z" fill="#231F20"/>
<path d="M154.645 261.956C154.883 262.028 155.142 262.011 155.366 261.91C155.591 261.81 155.761 261.632 155.841 261.418L155.943 261.147C155.986 261.04 156.005 260.926 155.999 260.812C155.993 260.698 155.961 260.587 155.907 260.484C155.852 260.381 155.775 260.289 155.68 260.214C155.586 260.139 155.476 260.081 155.356 260.045C155.236 260.008 155.11 259.994 154.984 260.002C154.858 260.011 154.736 260.042 154.623 260.094C154.511 260.146 154.411 260.218 154.33 260.305C154.249 260.392 154.188 260.493 154.151 260.602L154.049 260.873C154.01 260.98 153.994 261.092 154.002 261.204C154.011 261.316 154.043 261.426 154.099 261.526C154.154 261.627 154.231 261.717 154.325 261.79C154.418 261.864 154.527 261.92 154.645 261.956V261.956Z" fill="#231F20"/>
<path d="M158.592 257.928L158.849 257.975C159.069 258.015 159.309 258.006 159.516 257.95C159.723 257.894 159.881 257.795 159.955 257.675C160.028 257.555 160.012 257.424 159.909 257.311C159.806 257.198 159.625 257.112 159.405 257.072L159.152 257.025C158.933 256.985 158.694 256.993 158.486 257.049C158.279 257.105 158.12 257.204 158.046 257.323C157.972 257.443 157.988 257.574 158.09 257.687C158.193 257.801 158.373 257.887 158.592 257.928V257.928Z" fill="#231F20"/>
<path d="M130.536 184.845L130.667 184.908C130.779 184.962 130.9 184.993 131.023 184.999C131.146 185.005 131.269 184.985 131.385 184.942C131.501 184.898 131.607 184.831 131.698 184.745C131.788 184.658 131.862 184.554 131.914 184.438C131.965 184.322 131.994 184.197 131.999 184.069C132.004 183.942 131.985 183.814 131.942 183.695C131.899 183.575 131.833 183.465 131.749 183.372C131.666 183.278 131.565 183.203 131.452 183.15L131.321 183.087C131.097 182.981 130.841 182.972 130.61 183.06C130.378 183.149 130.19 183.33 130.086 183.562C129.983 183.794 129.972 184.059 130.056 184.299C130.141 184.54 130.313 184.736 130.536 184.845Z" fill="#231F20"/>
<path d="M134.54 182.917C134.663 182.972 134.799 183 134.936 183C135.114 183 135.289 182.952 135.439 182.863C135.589 182.774 135.709 182.646 135.784 182.496L135.918 182.23C136.019 182.021 136.027 181.783 135.941 181.568C135.855 181.353 135.682 181.179 135.459 181.082C135.235 180.985 134.98 180.974 134.748 181.051C134.516 181.127 134.326 181.286 134.219 181.493L134.088 181.759C133.983 181.968 133.972 182.208 134.056 182.425C134.141 182.642 134.315 182.819 134.54 182.917Z" fill="#231F20"/>
<path d="M138.249 179.788L138.372 179.911C138.43 179.97 138.493 180 138.557 180C138.658 180.001 138.756 179.929 138.834 179.795C138.913 179.661 138.968 179.473 138.989 179.264C139.011 179.054 138.999 178.835 138.954 178.642C138.91 178.449 138.836 178.295 138.744 178.205L138.621 178.083C138.515 177.981 138.395 177.973 138.287 178.059C138.178 178.145 138.09 178.319 138.041 178.543C137.992 178.768 137.987 179.024 138.026 179.257C138.064 179.49 138.145 179.681 138.249 179.788V179.788Z" fill="#231F20"/>
<path d="M140.933 138C141.055 138 141.176 137.984 141.289 137.953C141.402 137.921 141.504 137.875 141.59 137.817C141.971 137.559 142.356 137.3 142.743 137.039C142.91 136.923 143.002 136.769 143 136.609C142.998 136.449 142.902 136.296 142.733 136.182C142.563 136.068 142.334 136.003 142.093 136C141.852 135.997 141.62 136.057 141.445 136.167C141.043 136.431 140.651 136.694 140.264 136.956C140.137 137.042 140.051 137.152 140.016 137.27C139.982 137.389 140.002 137.512 140.072 137.623C140.142 137.735 140.26 137.83 140.411 137.897C140.562 137.964 140.74 138 140.921 138H140.933Z" fill="#231F20"/>
<path d="M108.52 141C108.585 140.997 108.649 140.975 108.708 140.934C108.768 140.894 108.821 140.837 108.866 140.765C108.91 140.694 108.945 140.61 108.968 140.519C108.991 140.427 109.002 140.33 109 140.232C109 140.067 109 139.9 108.992 139.732C108.99 139.535 108.936 139.347 108.842 139.21C108.747 139.073 108.62 138.997 108.489 139C108.357 139.003 108.232 139.084 108.14 139.226C108.048 139.367 107.998 139.558 108 139.755C108 139.929 108 140.106 108.007 140.281C108.012 140.474 108.066 140.657 108.158 140.791C108.251 140.925 108.375 141 108.504 141H108.52Z" fill="#231F20"/>
<path d="M145.366 152.815C145.465 152.885 145.58 152.937 145.702 152.968C145.825 152.998 145.953 153.007 146.079 152.994C146.205 152.981 146.328 152.946 146.439 152.891C146.55 152.836 146.648 152.762 146.726 152.674C147.315 152.015 147.656 151.569 147.785 151.4L147.814 151.362C147.963 151.181 148.026 150.955 147.99 150.733C147.953 150.512 147.82 150.311 147.619 150.175C147.417 150.04 147.164 149.979 146.912 150.007C146.661 150.034 146.431 150.148 146.274 150.323L146.179 150.443C146.063 150.595 145.751 151.004 145.211 151.612C145.051 151.79 144.977 152.016 145.006 152.242C145.035 152.468 145.165 152.674 145.366 152.815Z" fill="#231F20"/>
<path d="M123.432 135.937C123.517 135.978 123.608 136 123.7 136C123.838 136 123.974 135.953 124.089 135.864C124.205 135.776 124.295 135.649 124.348 135.501C124.482 135.091 124.647 134.696 124.844 134.322C124.903 134.237 124.947 134.139 124.973 134.034C124.999 133.929 125.006 133.819 124.995 133.711C124.983 133.603 124.953 133.498 124.905 133.404C124.858 133.309 124.795 133.227 124.719 133.162C124.644 133.096 124.558 133.049 124.466 133.023C124.374 132.997 124.279 132.993 124.186 133.011C124.093 133.028 124.004 133.067 123.925 133.126C123.845 133.184 123.776 133.261 123.723 133.35C123.456 133.832 123.231 134.343 123.054 134.877C123.018 134.975 123 135.081 123 135.187C123 135.294 123.018 135.399 123.053 135.498C123.088 135.596 123.14 135.686 123.205 135.761C123.27 135.836 123.347 135.896 123.432 135.937Z" fill="#231F20"/>
<path d="M112 277C111.735 277 111.48 277.089 111.293 277.246C111.105 277.404 111 277.618 111 277.841V278.159C111 278.382 111.105 278.596 111.293 278.754C111.48 278.911 111.735 279 112 279C112.265 279 112.52 278.911 112.707 278.754C112.895 278.596 113 278.382 113 278.159V277.841C113 277.618 112.895 277.404 112.707 277.246C112.52 277.089 112.265 277 112 277Z" fill="#307CED"/>
<path d="M156 185.841V186.159C156 186.382 156.053 186.596 156.146 186.754C156.24 186.911 156.367 187 156.5 187C156.633 187 156.76 186.911 156.854 186.754C156.947 186.596 157 186.382 157 186.159V185.841C157 185.618 156.947 185.404 156.854 185.246C156.76 185.089 156.633 185 156.5 185C156.367 185 156.24 185.089 156.146 185.246C156.053 185.404 156 185.618 156 185.841Z" fill="#307CED"/>
<path d="M152 235.841V236.159C152 236.382 152.105 236.596 152.293 236.754C152.48 236.911 152.735 237 153 237C153.265 237 153.52 236.911 153.707 236.754C153.895 236.596 154 236.382 154 236.159V235.841C154 235.618 153.895 235.404 153.707 235.246C153.52 235.089 153.265 235 153 235C152.735 235 152.48 235.089 152.293 235.246C152.105 235.404 152 235.618 152 235.841Z" fill="#307CED"/>
<path d="M2.5 271C3.88071 271 5 269.657 5 268C5 266.343 3.88071 265 2.5 265C1.11929 265 0 266.343 0 268C0 269.657 1.11929 271 2.5 271Z" fill="#307CED"/>
<path d="M2.5 271C3.88071 271 5 269.657 5 268C5 266.343 3.88071 265 2.5 265C1.11929 265 0 266.343 0 268C0 269.657 1.11929 271 2.5 271Z" fill="#307CED"/>
<path d="M180.5 276C179.119 276 178 274.881 178 273.5C178 272.119 179.119 271 180.5 271C181.881 271 183 272.119 183 273.5C183 274.881 181.881 276 180.5 276Z" fill="#307CED"/>
<path d="M204 311.5C204 311.994 203.853 312.478 203.579 312.889C203.304 313.3 202.914 313.62 202.457 313.81C202 313.999 201.497 314.048 201.012 313.952C200.527 313.856 200.082 313.617 199.732 313.268C199.383 312.918 199.145 312.473 199.048 311.988C198.952 311.503 199.001 311 199.19 310.543C199.38 310.086 199.7 309.696 200.111 309.421C200.522 309.147 201.006 309 201.5 309C202.163 309 202.799 309.263 203.268 309.732C203.737 310.201 204 310.837 204 311.5" fill="#307CED"/>
<path d="M194 307.84V308.16C194 308.383 193.947 308.596 193.854 308.754C193.76 308.911 193.633 309 193.5 309C193.367 309 193.24 308.911 193.146 308.754C193.053 308.596 193 308.383 193 308.16V307.84C193 307.617 193.053 307.404 193.146 307.246C193.24 307.089 193.367 307 193.5 307C193.633 307 193.76 307.089 193.854 307.246C193.947 307.404 194 307.617 194 307.84Z" fill="#307CED"/>
<path d="M59.5 173C60.8807 173 62 171.881 62 170.5C62 169.119 60.8807 168 59.5 168C58.1193 168 57 169.119 57 170.5C57 171.881 58.1193 173 59.5 173Z" fill="#307CED"/>
<path d="M47 187C47 187.593 47.1759 188.173 47.5056 188.667C47.8352 189.16 48.3038 189.545 48.852 189.772C49.4001 189.999 50.0033 190.058 50.5853 189.942C51.1672 189.827 51.7018 189.541 52.1213 189.121C52.5409 188.702 52.8266 188.167 52.9424 187.585C53.0581 187.003 52.9987 186.4 52.7716 185.852C52.5446 185.304 52.1601 184.835 51.6667 184.506C51.1734 184.176 50.5933 184 50 184C49.2044 184 48.4413 184.316 47.8787 184.879C47.3161 185.441 47 186.204 47 187Z" fill="#307CED"/>
<path d="M57 183.84V184.16C57 184.383 57.1054 184.596 57.2929 184.754C57.4804 184.911 57.7348 185 58 185C58.2652 185 58.5196 184.911 58.7071 184.754C58.8946 184.596 59 184.383 59 184.16V183.84C59 183.617 58.8946 183.404 58.7071 183.246C58.5196 183.089 58.2652 183 58 183C57.7348 183 57.4804 183.089 57.2929 183.246C57.1054 183.404 57 183.617 57 183.84Z" fill="#307CED"/>
<path d="M173.501 113C174.145 111.291 175.147 109.738 176.44 108.446C177.733 107.153 179.288 106.151 181 105.505C179.287 104.858 177.732 103.854 176.439 102.56C175.146 101.266 174.144 99.7111 173.501 98C172.857 99.7109 171.855 101.265 170.562 102.559C169.268 103.853 167.713 104.858 166 105.505C167.712 106.151 169.267 107.153 170.56 108.446C171.854 109.738 172.856 111.291 173.501 113Z" fill="#307CED"/>
<path d="M88.5135 50.7228C90.1672 51.8751 90.9941 53.5332 90.9941 55.697H83.3525C83.3198 54.9222 83.0076 54.3731 82.4159 54.0495C81.7979 53.7239 81.1089 53.559 80.4115 53.57C78.4207 53.5726 77.4254 54.0462 77.4254 54.9906C77.4254 55.5168 77.7702 55.891 78.4599 56.1133C79.5722 56.4282 80.7048 56.6649 81.8497 56.8217C83.4823 57.0414 85.0985 57.371 86.6874 57.8083C87.9671 58.1748 89.1335 58.8625 90.0771 59.807C91.0477 60.7594 91.5329 62.0958 91.5329 63.8164C91.5329 66.342 90.6839 68.2151 88.9857 69.4358C87.2876 70.6565 85.0343 71.3649 82.2259 71.5609L82.557 77.2632H77.8878L78.1778 71.5175C75.5326 71.2412 73.3413 70.4711 71.604 69.207C69.8667 67.9429 68.9987 66.1874 69 63.9407H76.6416V64.1124C76.6677 65.0555 77.0596 65.7132 77.8172 66.0855C78.5691 66.459 79.3968 66.6515 80.2351 66.6478C82.5237 66.6478 83.6673 66.1065 83.666 65.024C83.666 64.4695 83.3094 64.067 82.5923 63.8164C81.8751 63.5658 80.7034 63.3034 79.0771 63.0272C77.4536 62.7691 75.8482 62.4066 74.2707 61.9419C73.0316 61.565 71.9032 60.8875 70.9849 59.9688C70.0457 59.0362 69.58 57.7372 69.5878 56.0719C69.5878 53.7423 70.3637 51.9941 71.9156 50.8274C73.4674 49.6606 75.5574 48.9667 78.1856 48.7457L77.8878 43H82.5609L82.2298 48.7043C84.7652 48.8977 86.8598 49.5705 88.5135 50.7228Z" fill="#231F20"/>
<path d="M117.457 68.0843V74.4969H96V68.0843H102.738V55.1406H96V50.3104C97.8457 50.1999 99.9129 49.7073 102.201 48.8326C104.304 48.0526 106.314 47.0409 108.195 45.8157H110.966V68.0843H117.457Z" fill="#231F20" fill-opacity="0.99"/>
<path d="M139.43 48.7911C141.457 51.0825 142.471 54.6421 142.471 59.4696C142.471 64.9391 141.471 68.8945 139.473 71.336C137.474 73.7774 134.367 74.9987 130.15 75C126.706 75 123.949 74.1601 121.882 72.4804C119.814 70.8006 118.78 68.421 118.78 65.3416H126.137V65.6317C126.104 66.6238 126.461 67.589 127.131 68.3171C127.792 69.0248 128.756 69.3786 130.025 69.3786C131.319 69.3786 132.332 68.9281 133.064 68.027C133.795 67.126 134.16 65.9112 134.159 64.3827V61.9676C133.331 62.706 132.358 63.2595 131.302 63.5915C130.292 63.9382 129.234 64.1226 128.167 64.138C126.399 64.1652 124.646 63.8176 123.02 63.1179C121.553 62.4894 120.298 61.4489 119.403 60.1207C118.521 58.8053 118.08 57.2163 118.08 55.3537C118.08 52.1888 119.162 49.7323 121.325 47.9841C123.488 46.2359 126.431 45.3618 130.152 45.3618C134.315 45.3592 137.408 46.5023 139.43 48.7911ZM127.109 52.0389C126.408 52.7479 126.056 53.7542 126.055 55.0577C126.054 56.3613 126.399 57.3676 127.09 58.0766C127.777 58.783 128.769 59.1368 130.066 59.1381C131.389 59.1381 132.402 58.7981 133.105 58.118C133.808 57.438 134.159 56.4455 134.159 55.1406C134.159 53.837 133.808 52.8169 133.105 52.0803C132.402 51.3437 131.403 50.976 130.107 50.9773C128.814 50.9773 127.815 51.3312 127.109 52.0389Z" fill="#231F20" fill-opacity="0.99"/>
</svg>
