<svg width="287" height="187" viewBox="0 0 287 187" fill="none" xmlns="http://www.w3.org/2000/svg">
<g clip-path="url(#clip0_314_176)">
<path d="M76.8737 51.303C75.7526 52.9841 74.1193 54.2219 71.974 55.0163L79.5452 69.2688H67.2736L61.2339 56.8366H57.1762V69.2688H46.2391V35.2185H67.0812C69.5221 35.2185 71.6088 35.6876 73.3414 36.6259C74.9909 37.4846 76.3509 38.8105 77.2513 40.4377C78.126 42.0381 78.5773 43.8355 78.5625 45.6593C78.5822 47.6679 77.9935 49.6354 76.8737 51.303ZM66.5301 43.8789C66.2472 43.5896 65.9082 43.3614 65.5339 43.2081C65.1596 43.0548 64.7578 42.9797 64.3534 42.9875H57.1762V49.274H64.3534C64.7599 49.2813 65.1634 49.2037 65.5382 49.0462C65.913 48.8887 66.2508 48.6547 66.5301 48.3592C66.8215 48.0624 67.0506 47.7103 67.2037 47.3235C67.3568 46.9367 67.4308 46.5232 67.4213 46.1073C67.4326 45.6947 67.3593 45.2842 67.2061 44.9009C67.0528 44.5177 66.8227 44.1699 66.5301 43.8789Z" fill="white"/>
<path d="M81.5741 35.2185H111.022V43.3956H92.5135V48.0871H108.362V55.9053H92.5135V61.1034H111.369V69.2688H81.5811L81.5741 35.2185Z" fill="white"/>
<path d="M117.479 39.103C120.663 36.1177 125.191 34.6242 131.064 34.6227C136.937 34.6211 141.472 36.1224 144.668 39.1264C147.867 42.1321 149.467 46.5045 149.467 52.2437C149.467 56.0719 148.749 59.2972 147.314 61.9197C145.907 64.5174 143.716 66.6049 141.054 67.8848L148.824 75.7524H135.816L130.569 69.8646C124.831 69.7645 120.418 68.2218 117.331 65.2365C114.245 62.2512 112.702 57.9203 112.704 52.2437C112.704 46.4716 114.295 42.0914 117.479 39.103ZM136.433 44.918C135.198 43.4981 133.408 42.7889 131.064 42.7904C128.72 42.792 126.938 43.5012 125.719 44.918C124.499 46.3364 123.889 48.2505 123.889 50.6603V53.827C123.889 56.2368 124.499 58.1509 125.719 59.5693C126.938 60.9877 128.72 61.6953 131.064 61.6922C133.41 61.6922 135.199 60.983 136.433 59.5646C137.667 58.1462 138.286 56.2321 138.291 53.8223V50.6673C138.291 48.2544 137.671 46.3379 136.433 44.918Z" fill="white"/>
<path d="M181.692 66.2006C178.755 68.6417 174.582 69.8631 169.172 69.8646C163.761 69.8662 159.579 68.6449 156.625 66.2006C153.673 63.758 152.197 60.2113 152.197 55.5605V35.2185H163.134V55.4104C163.134 57.3245 163.646 58.8508 164.668 59.9892C165.691 61.1277 167.176 61.6969 169.125 61.6969C171.071 61.6969 172.564 61.1198 173.602 59.9657C174.64 58.8117 175.16 57.2932 175.162 55.4104V35.2185H186.099V55.5605C186.097 60.2128 184.628 63.7595 181.692 66.2006Z" fill="white"/>
<path d="M190.253 35.2185H219.701V43.3956H201.192V48.0871H217.029V55.9053H201.192V61.1034H220.048V69.2688H190.26L190.253 35.2185Z" fill="white"/>
<path d="M247.858 37.271C250.664 39.0381 252.099 41.6536 252.165 45.1174V45.7109H241.92V45.5068C241.929 45.0399 241.837 44.5765 241.649 44.149C241.461 43.7215 241.182 43.3403 240.831 43.0321C240.107 42.3721 239.002 42.0422 237.517 42.0422C236.063 42.0422 234.951 42.258 234.175 42.6872C233.398 43.1165 233.002 43.6443 233.002 44.2706C233.002 45.162 233.53 45.8219 234.587 46.2504C235.644 46.6788 237.343 47.1245 239.684 47.5874C241.971 48.0297 244.227 48.6165 246.439 49.3444C248.201 49.9525 249.79 50.9797 251.067 52.3375C252.385 53.7246 253.061 55.6051 253.096 57.9789C253.096 62.0073 251.735 64.9942 249.012 66.9395C246.29 68.8849 242.653 69.8584 238.101 69.8599C232.785 69.8599 228.652 68.9686 225.703 67.1858C222.754 65.4031 221.278 62.252 221.274 57.7326H231.618C231.618 59.4528 232.063 60.5999 232.953 61.1738C233.842 61.7477 235.235 62.0378 237.13 62.044C238.292 62.0739 239.452 61.9236 240.568 61.5983C241.477 61.2997 241.93 60.689 241.929 59.7663C241.929 58.9438 241.426 58.3253 240.421 57.9109C239.415 57.4965 237.773 57.0594 235.495 56.5996C233.166 56.1269 230.869 55.5063 228.618 54.7418C226.792 54.0924 225.159 52.9956 223.866 51.5517C222.514 50.0661 221.837 48.0527 221.837 45.5115C221.837 41.7834 223.281 39.0365 226.167 37.271C229.054 35.5054 232.708 34.6227 237.13 34.6227C241.48 34.6227 245.056 35.5054 247.858 37.271Z" fill="white"/>
<path d="M274.979 43.9281V69.2618H264.042V43.9281H252.857V35.2185H286.113V43.9281H274.979Z" fill="white"/>
<path d="M38.6164 80.0732C40.2478 81.0285 41.5838 82.4157 42.4771 84.082C43.4134 85.8401 43.8895 87.8067 43.8609 89.7985V90.4412C43.8865 92.4379 43.4107 94.4091 42.4771 96.1741C41.59 97.8517 40.2531 99.2488 38.6164 100.209C36.907 101.197 34.9611 101.701 32.9872 101.668H24.8084V112.664H13.8713V78.6142H32.9754C34.9534 78.5789 36.9035 79.0833 38.6164 80.0732ZM24.8084 93.7088H29.3188C30.4728 93.7088 31.3391 93.4117 31.9176 92.8174C32.4962 92.2232 32.7847 91.4147 32.7831 90.392V89.9979C32.7831 88.9408 32.4946 88.1237 31.9176 87.5466C31.3406 86.9696 30.4743 86.6811 29.3188 86.6811H24.8154L24.8084 93.7088Z" fill="white"/>
<path d="M46.4409 78.6141H75.8816V86.7913H57.3733V91.4827H73.2101V99.3009H57.3733V104.499H76.2288V112.664H46.4409V78.6141Z" fill="white"/>
<path d="M109.633 94.6987C108.512 96.3813 106.879 97.6191 104.734 98.4119L112.305 112.664H100.033L93.9936 100.232H89.9358V112.664H78.9988V78.6141H99.8339C102.276 78.6141 104.363 79.0833 106.094 80.0216C107.744 80.8809 109.104 82.2076 110.004 83.8357C110.879 85.4361 111.33 87.2334 111.315 89.0572C111.336 91.0643 110.75 93.0309 109.633 94.6987ZM99.2897 87.2745C99.0069 86.9853 98.6679 86.757 98.2936 86.6037C97.9192 86.4504 97.5175 86.3753 97.1131 86.3831H89.9358V92.6696H97.1037C97.5102 92.6769 97.9137 92.5993 98.2885 92.4418C98.6633 92.2843 99.0011 92.0503 99.2803 91.7548C99.5718 91.458 99.8008 91.1059 99.9539 90.7191C100.107 90.3323 100.181 89.9188 100.172 89.5029C100.184 89.091 100.112 88.6809 99.9606 88.2977C99.809 87.9145 99.5807 87.5663 99.2897 87.2745Z" fill="white"/>
<path d="M139.377 80.6666C142.179 82.4337 143.614 85.0492 143.683 88.513V89.1065H133.438V88.9024C133.447 88.4356 133.355 87.9723 133.167 87.5449C132.979 87.1175 132.7 86.7362 132.35 86.4277C131.622 85.7678 130.517 85.4378 129.033 85.4378C127.582 85.4378 126.469 85.6528 125.693 86.0829C124.917 86.5129 124.527 87.0407 124.52 87.6662C124.52 88.5576 125.048 89.2175 126.103 89.646C127.159 90.0745 128.859 90.5202 131.203 90.983C133.489 91.4253 135.745 92.0122 137.958 92.74C139.719 93.3479 141.307 94.3751 142.583 95.7331C143.903 97.1202 144.58 99.0007 144.614 101.375C144.614 105.403 143.253 108.39 140.531 110.335C137.808 112.281 134.17 113.254 129.617 113.256C124.301 113.256 120.169 112.364 117.221 110.581C114.274 108.799 112.797 105.648 112.79 101.128H123.139C123.139 102.848 123.584 103.995 124.476 104.569C125.367 105.143 126.752 105.432 128.632 105.435C129.795 105.465 130.956 105.314 132.073 104.989C132.978 104.691 133.432 104.08 133.433 103.157C133.433 102.333 132.93 101.715 131.923 101.302C130.916 100.889 129.274 100.452 126.997 99.9906C124.667 99.5177 122.369 98.8972 120.118 98.1328C118.292 97.4833 116.658 96.3865 115.366 94.9426C114.015 93.457 113.338 91.4436 113.337 88.9024C113.337 85.1759 114.781 82.429 117.669 80.6619C120.557 78.8948 124.211 78.012 128.63 78.0136C132.989 78.0167 136.571 78.9011 139.377 80.6666Z" fill="white"/>
<path d="M209.305 112.664L194.998 96.1342V112.664H184.957V78.6141H194.508L208.815 95.3906V78.6141H218.861V112.664H209.305Z" fill="white"/>
<path d="M245.339 112.664L243.904 107.865H231.97L230.534 112.664H219.351L231.782 78.6141H244.502L256.933 112.664H245.339ZM234.252 100.232H241.626L238.068 88.1166H237.871L234.252 100.232Z" fill="white"/>
<path d="M257.855 78.6141H268.794V103.948H286.264V112.664H257.855V78.6141Z" fill="white"/>
<path d="M85.552 134.81C84.4309 136.491 82.7976 137.729 80.6523 138.524L88.2236 152.776H75.9519L69.9123 140.344H65.8545V152.776H54.9175V118.726H75.7596C78.2005 118.726 80.2872 119.195 82.0197 120.133C83.6693 120.992 85.0292 122.318 85.9297 123.945C86.8043 125.545 87.2556 127.343 87.2408 129.167C87.2605 131.175 86.6718 133.143 85.552 134.81ZM75.2084 127.386C74.9256 127.097 74.5866 126.869 74.2123 126.715C73.8379 126.562 73.4362 126.487 73.0318 126.495H65.8545V132.781H73.0318C73.4382 132.789 73.8418 132.711 74.2166 132.553C74.5914 132.396 74.9292 132.162 75.2084 131.866C75.4999 131.57 75.7289 131.218 75.882 130.831C76.0351 130.444 76.1091 130.03 76.0997 129.615C76.1109 129.202 76.0377 128.791 75.8844 128.408C75.7311 128.025 75.5011 127.677 75.2084 127.386Z" fill="white"/>
<path d="M90.2524 118.726H119.7V126.903H101.192V131.594H117.04V139.413H101.192V144.611H120.047V152.776H90.2595L90.2524 118.726Z" fill="white"/>
<path d="M148.916 152.776L147.48 147.977H135.553L134.118 152.776H122.935L135.366 118.726H148.083L160.514 152.776H148.916ZM137.831 140.344H145.203L141.64 128.219H141.434L137.831 140.344Z" fill="white"/>
<path d="M195.692 135.751C195.692 147.103 189.737 152.778 177.826 152.776H163.078V118.726H177.826C189.737 118.726 195.692 124.401 195.692 135.751ZM174.015 144.611H177.629C182.214 144.611 184.507 142.152 184.509 137.236V134.266C184.509 129.349 182.216 126.891 177.629 126.891H174.015V144.611Z" fill="white"/>
<path d="M198.91 152.776V118.726H209.847V152.776H198.91Z" fill="white"/>
<path d="M238.847 152.776L224.539 136.246V152.776H214.498V118.726H224.049L238.357 135.502V118.726H248.405V152.776H238.847Z" fill="white"/>
<path d="M278.488 119.615C281.095 120.605 283.165 122.065 284.699 123.997C286.233 125.928 287 128.278 287 131.048H276.558C276.558 129.631 275.932 128.485 274.681 127.609C273.43 126.733 271.912 126.296 270.126 126.298C267.554 126.298 265.608 126.982 264.288 128.35C262.969 129.719 262.309 131.658 262.309 134.168V137.334C262.309 139.836 262.969 141.775 264.288 143.149C265.608 144.524 267.554 145.209 270.126 145.204C271.909 145.204 273.427 144.784 274.681 143.942C275.935 143.101 276.561 142.02 276.558 140.7H268.839V133.771H287V152.771H281.371L280.271 149.422C277.167 152.061 273.108 153.381 268.095 153.381C262.455 153.381 258.216 151.904 255.378 148.95C252.54 145.996 251.121 141.6 251.121 135.76C251.121 129.988 252.729 125.61 255.946 122.624C259.162 119.639 263.74 118.146 269.678 118.144C272.946 118.135 275.883 118.625 278.488 119.615Z" fill="white"/>
<path d="M10.1514 9.76987L10.4844 10.1264C10.8691 10.5369 11.2537 10.9451 11.6454 11.3485C11.7315 11.4368 11.8342 11.5072 11.9475 11.5558C12.0608 11.6044 12.1825 11.6302 12.3058 11.6317C12.4291 11.6332 12.5515 11.6105 12.6659 11.5647C12.7804 11.5189 12.8847 11.4511 12.973 11.365C13.0612 11.2789 13.1317 11.1762 13.1802 11.0629C13.2288 10.9496 13.2546 10.8278 13.2561 10.7045C13.2577 10.5812 13.2349 10.4589 13.1891 10.3444C13.1434 10.2299 13.0755 10.1255 12.9894 10.0373C12.6047 9.6432 12.2295 9.24443 11.8542 8.84332L11.5188 8.48442C11.3483 8.30307 11.1128 8.19687 10.8641 8.18917C10.6153 8.18147 10.3737 8.27291 10.1924 8.44337C10.0111 8.61383 9.90488 8.84935 9.89718 9.09812C9.88948 9.34689 9.98091 9.58852 10.1514 9.76987Z" fill="white"/>
<path d="M14.5773 14.3205C15.7993 15.5356 17.1222 16.814 18.8813 18.4725C18.971 18.5572 19.0764 18.6234 19.1916 18.6674C19.3068 18.7113 19.4296 18.7321 19.5529 18.7287C19.6761 18.7252 19.7975 18.6974 19.9101 18.647C20.0226 18.5966 20.1242 18.5246 20.2089 18.4349C20.2936 18.3453 20.3598 18.2398 20.4038 18.1246C20.4477 18.0094 20.4685 17.8866 20.4651 17.7633C20.4616 17.64 20.4338 17.5186 20.3834 17.4061C20.3331 17.2935 20.261 17.192 20.1713 17.1072C18.4263 15.4653 17.1222 14.1915 15.9002 12.9905C15.805 12.8944 15.6896 12.8207 15.5624 12.7747C15.3616 12.701 15.1416 12.6982 14.9389 12.7667C14.7362 12.8351 14.563 12.9709 14.448 13.1513C14.3331 13.3317 14.2832 13.546 14.3067 13.7587C14.3302 13.9714 14.4257 14.1696 14.5773 14.3205Z" fill="white"/>
<path d="M21.785 21.1747C23.3612 22.6314 24.9467 24.074 26.5323 25.519C28.669 27.4636 30.8761 29.4762 33.0223 31.4794C33.2042 31.6493 33.4462 31.7399 33.6949 31.7313C33.9437 31.7227 34.1788 31.6157 34.3487 31.4337C34.5185 31.2517 34.6091 31.0097 34.6005 30.761C34.5919 30.5122 34.4849 30.277 34.3029 30.1072C32.1498 28.0969 29.9356 26.0819 27.7965 24.1327C26.2141 22.6908 24.634 21.2459 23.0563 19.7978C22.9685 19.7139 22.8648 19.6485 22.7513 19.6054C22.5479 19.5314 22.325 19.5299 22.1206 19.6014C21.9162 19.6729 21.7429 19.8129 21.6299 19.9977C21.517 20.1825 21.4714 20.4006 21.501 20.6151C21.5305 20.8297 21.6333 21.0274 21.792 21.1747H21.785Z" fill="white"/>
<path d="M33.1442 5.71413L34.7697 8.42343C34.8978 8.63682 35.1055 8.79055 35.347 8.85082C35.5885 8.91109 35.844 8.87295 36.0574 8.74479C36.2707 8.61663 36.4245 8.40896 36.4847 8.16745C36.545 7.92594 36.5068 7.67038 36.3787 7.457L34.7533 4.7477C34.6458 4.56667 34.4806 4.42704 34.2842 4.35128C34.102 4.28442 33.9036 4.27568 33.7163 4.32627C33.529 4.37686 33.362 4.48429 33.2382 4.63376C33.1145 4.78323 33.0401 4.96739 33.0254 5.16087C33.0107 5.35436 33.0563 5.54765 33.156 5.71413H33.1442Z" fill="white"/>
<path d="M42.0524 21.2803C42.1681 21.5008 42.3667 21.6664 42.6044 21.7405C42.8422 21.8146 43.0996 21.7913 43.3202 21.6756C43.5407 21.5598 43.7062 21.3613 43.7803 21.1235C43.8544 20.8857 43.8311 20.6282 43.7154 20.4077C42.43 17.9588 41.0462 15.4489 39.4771 12.7325C39.369 12.541 39.1959 12.3945 38.9892 12.3197C38.8083 12.253 38.6112 12.2436 38.4248 12.2929C38.2384 12.3421 38.0717 12.4476 37.9474 12.595C37.823 12.7424 37.7472 12.9246 37.73 13.1166C37.7129 13.3087 37.7554 13.5014 37.8516 13.6685C39.4044 16.3637 40.7812 18.8548 42.0524 21.2803Z" fill="white"/>
<path d="M10.0106 35.6548C10.2436 35.7179 10.4919 35.6887 10.704 35.5734C10.9161 35.4581 11.0755 35.2655 11.1492 35.0356C11.2229 34.8057 11.2052 34.5563 11.0997 34.3391C10.9942 34.122 10.8091 33.9538 10.5829 33.8697L10.5078 33.8462L8.25616 33.227C8.01635 33.1607 7.76007 33.1925 7.54366 33.3152C7.32726 33.4379 7.16846 33.6416 7.10217 33.8814" fill="white"/>
<path d="M14.3756 36.8581C16.5016 37.4351 18.6703 37.8414 20.8609 38.0732C21.0878 38.0941 21.3146 38.0317 21.4988 37.8976C21.6831 37.7636 21.8123 37.567 21.8622 37.3447C21.9122 37.1223 21.8796 36.8894 21.7704 36.6894C21.6613 36.4893 21.483 36.3359 21.269 36.2576C21.1936 36.2293 21.1147 36.2111 21.0345 36.2037C18.9441 35.9775 16.8751 35.5853 14.847 35.0308C14.606 34.9686 14.3501 35.0047 14.1357 35.1312C13.9212 35.2577 13.7658 35.4641 13.7036 35.7052C13.6414 35.9463 13.6775 36.2022 13.804 36.4166C13.9304 36.6311 14.1369 36.7865 14.3779 36.8487L14.3756 36.8581Z" fill="white"/>
<path d="M59.1653 9.76283C58.403 6.80255 57.5938 3.71559 56.7822 0.703703C56.7598 0.576182 56.7112 0.454686 56.6395 0.346859C56.5679 0.239033 56.4746 0.14721 56.3658 0.0771686C56.2569 0.00712739 56.1347 -0.0396161 56.0068 -0.0601207C55.879 -0.0806252 55.7483 -0.074447 55.623 -0.0419748C55.4976 -0.00950252 55.3804 0.0485609 55.2786 0.128562C55.1768 0.208563 55.0926 0.30877 55.0314 0.422877C54.9702 0.536985 54.9333 0.662523 54.923 0.791592C54.9127 0.920662 54.9292 1.05047 54.9715 1.17285C55.7784 4.18474 56.5782 7.25527 57.3499 10.2249C57.7314 11.698 58.1153 13.1712 58.5015 14.6443" fill="white"/>
<path d="M13.6837 186.041L14.0074 185.679C14.3826 185.26 14.7579 184.842 15.1262 184.417C15.2708 184.227 15.3371 183.988 15.3114 183.75C15.2858 183.512 15.1702 183.293 14.9883 183.137C14.8064 182.982 14.572 182.902 14.3329 182.913C14.0939 182.925 13.8683 183.027 13.7024 183.2C13.3436 183.618 12.9777 184.026 12.6118 184.434L12.2834 184.8C12.186 184.907 12.116 185.037 12.0794 185.177C12.0237 185.381 12.0386 185.598 12.1215 185.793C12.2044 185.987 12.3505 186.148 12.5362 186.249C12.7219 186.35 12.9362 186.385 13.1445 186.349C13.3528 186.313 13.5427 186.208 13.6837 186.05V186.041Z" fill="white"/>
<path d="M17.8258 181.239C18.9306 179.918 20.0916 178.485 21.5786 176.592C21.7342 176.397 21.8058 176.148 21.7779 175.9C21.75 175.652 21.6247 175.426 21.4297 175.27C21.2347 175.115 20.9859 175.043 20.738 175.071C20.4901 175.099 20.2635 175.224 20.108 175.419C18.6186 177.296 17.467 178.72 16.374 180.029C16.2943 180.134 16.2375 180.256 16.2074 180.385C16.1523 180.591 16.1687 180.809 16.2538 181.004C16.3389 181.199 16.4877 181.359 16.6759 181.458C16.864 181.557 17.0803 181.59 17.2892 181.55C17.4982 181.51 17.6874 181.4 17.8258 181.239Z" fill="white"/>
<path d="M24.0391 173.468C25.3526 171.771 26.659 170.069 27.9584 168.361C29.7105 166.065 31.5236 163.691 33.3343 161.38C33.485 161.184 33.5521 160.936 33.5211 160.691C33.49 160.445 33.3633 160.222 33.1685 160.07C32.9737 159.917 32.7265 159.848 32.4808 159.877C32.2352 159.906 32.0108 160.03 31.8566 160.224C30.0412 162.544 28.2234 164.915 26.462 167.221C25.1626 168.924 23.8593 170.623 22.552 172.318C22.4767 172.416 22.421 172.528 22.3878 172.647C22.3336 172.855 22.3526 173.075 22.4415 173.271C22.5304 173.467 22.6838 173.626 22.8762 173.722C23.0685 173.819 23.2881 173.846 23.4981 173.799C23.7081 173.753 23.8957 173.636 24.0297 173.468H24.0391Z" fill="white"/>
<path d="M7.65811 163.482L10.2171 161.619C10.3169 161.547 10.4014 161.456 10.4659 161.351C10.5304 161.246 10.5736 161.129 10.593 161.007C10.6124 160.885 10.6076 160.761 10.5789 160.641C10.5502 160.521 10.4982 160.408 10.4258 160.308C10.3534 160.208 10.2621 160.124 10.157 160.059C10.052 159.995 9.93522 159.952 9.81347 159.932C9.69172 159.913 9.56734 159.918 9.44744 159.946C9.32754 159.975 9.21447 160.027 9.11467 160.099L6.56746 161.964C6.464 162.035 6.3758 162.126 6.30807 162.232C6.24034 162.337 6.19445 162.455 6.17311 162.579C6.15177 162.702 6.15542 162.829 6.18384 162.951C6.21225 163.073 6.26487 163.188 6.33856 163.29C6.41226 163.391 6.50555 163.477 6.61291 163.542C6.72027 163.607 6.83953 163.649 6.96364 163.667C7.08774 163.685 7.21418 163.678 7.33548 163.646C7.45678 163.614 7.57047 163.558 7.66984 163.482H7.65811Z" fill="white"/>
<path d="M22.3948 153.262C22.5921 153.122 22.728 152.912 22.7744 152.675C22.8207 152.438 22.7739 152.193 22.6437 151.989C22.5135 151.786 22.3099 151.641 22.0752 151.583C21.8406 151.526 21.593 151.562 21.3839 151.683C19.0548 153.175 16.6742 154.772 14.1012 156.567C13.9147 156.716 13.7919 156.93 13.7579 157.166C13.7239 157.402 13.7811 157.643 13.918 157.838C14.0549 158.034 14.2611 158.17 14.4947 158.219C14.7283 158.267 14.9717 158.225 15.1754 158.101C17.7273 156.325 20.0892 154.742 22.3948 153.262Z" fill="white"/>
<path d="M39.4841 183.948C39.5395 183.706 39.4962 183.451 39.3638 183.24C39.2314 183.03 39.0208 182.88 38.7782 182.825C38.5355 182.769 38.2809 182.813 38.0702 182.945C37.8595 183.077 37.71 183.288 37.6547 183.531C37.6547 183.557 37.6547 183.582 37.6382 183.608L37.2137 185.907C37.1913 186.028 37.1931 186.153 37.2188 186.273C37.2445 186.394 37.2938 186.508 37.3637 186.609C37.4336 186.711 37.5228 186.798 37.6263 186.865C37.7297 186.932 37.8454 186.978 37.9666 187" fill="white"/>
<path d="M40.3027 179.496C40.693 177.327 40.9102 175.131 40.9524 172.928C40.9531 172.701 40.871 172.48 40.7214 172.309C40.5719 172.137 40.3651 172.026 40.1396 171.996C39.9141 171.965 39.6852 172.018 39.4956 172.144C39.306 172.269 39.1685 172.46 39.1089 172.679C39.0881 172.756 39.077 172.835 39.076 172.914C39.0339 175.016 38.8245 177.111 38.4498 179.179C38.409 179.425 38.4676 179.677 38.6125 179.88C38.7575 180.082 38.9769 180.219 39.2226 180.26C39.4683 180.3 39.7202 180.242 39.9227 180.097C40.1253 179.952 40.262 179.732 40.3027 179.487V179.496Z" fill="white"/>
<path d="M9.44528 137.208C6.55093 138.235 3.55573 139.295 0.619162 140.363C0.503348 140.405 0.39695 140.469 0.306041 140.552C0.215133 140.635 0.141495 140.736 0.0893319 140.847C0.0371688 140.959 0.00750223 141.08 0.0020259 141.203C-0.00345044 141.326 0.0153707 141.449 0.0574148 141.565C0.0994589 141.681 0.163903 141.787 0.247066 141.878C0.33023 141.969 0.430485 142.042 0.542107 142.095C0.65373 142.147 0.774533 142.176 0.897621 142.182C1.02071 142.187 1.14367 142.169 1.25948 142.127C4.18901 141.062 7.18187 140.001 10.0739 138.976L14.3755 137.459" fill="white"/>
<path d="M181.441 98.2172C180.954 102.006 179.221 105.526 176.515 108.222C169.678 115.057 158.497 114.961 151.543 108.006C144.588 101.051 144.492 89.8688 151.327 83.0311C154.022 80.3276 157.538 78.595 161.323 78.1051C161.178 78.2365 161.037 78.3725 160.897 78.5109C155.434 83.9764 155.502 92.9089 161.068 98.4682C166.634 104.028 175.558 104.098 181.021 98.6371C181.171 98.5198 181.307 98.3673 181.441 98.2172Z" fill="white"/>
</g>
<defs>
<clipPath id="clip0_314_176">
<rect width="287" height="187" fill="white"/>
</clipPath>
</defs>
</svg>
