<svg width="358" height="100" viewBox="0 0 358 100" fill="none" xmlns="http://www.w3.org/2000/svg">
<g clip-path="url(#clip0_313_63)">
<path d="M29.4305 11.8254V45.6587H14.8809V11.8254H0V0.197144H44.2458V11.8254H29.4305Z" fill="white"/>
<path d="M72.5592 45.6587L70.6331 39.2493H54.7815L52.8555 45.6587H37.99L54.5196 0.197144H71.4382L87.9678 45.6587H72.5592ZM57.8093 29.0745H67.6208L62.8788 12.8846H62.6168L57.8093 29.0745Z" fill="white"/>
<path d="M131.902 21.6716C130.407 23.9163 128.234 25.5683 125.384 26.6275L135.457 45.6587H119.128L111.096 29.0745H105.703V45.6587H91.142V0.197144H118.877C122.126 0.197144 124.902 0.824688 127.206 2.07978C129.398 3.22775 131.207 4.99676 132.406 7.16715C133.568 9.30014 134.168 11.695 134.151 14.1256C134.179 16.8113 133.394 19.4423 131.902 21.6716ZM118.138 11.7597C117.762 11.3735 117.31 11.0689 116.812 10.8648C116.314 10.6606 115.779 10.5613 115.241 10.5729H105.695V18.9616H115.241C115.782 18.9721 116.319 18.8688 116.818 18.6584C117.317 18.448 117.767 18.1352 118.138 17.7401C118.527 17.3446 118.833 16.8744 119.037 16.3576C119.24 15.8408 119.338 15.2881 119.324 14.7325C119.34 14.1819 119.243 13.6339 119.038 13.1226C118.834 12.6112 118.528 12.1473 118.138 11.7597Z" fill="white"/>
<path d="M212.034 11.8254V45.6587H197.481V11.8254H182.592V0.197144H226.85V11.8254H212.034Z" fill="white"/>
<path d="M44.1149 75.2242C42.6254 77.4715 40.4528 79.1235 37.5971 80.1801L47.6705 99.2075H31.3412L23.3094 82.6233H17.9164V99.2075H3.35913V53.7343H31.0946C34.3407 53.7343 37.1168 54.3619 39.423 55.617C41.6172 56.7627 43.4261 58.5323 44.6234 60.7043C45.7848 62.8373 46.3854 65.2322 46.3684 67.6627C46.3973 70.354 45.6115 72.9908 44.1149 75.2242ZM30.355 65.3317C29.9787 64.9453 29.5275 64.6404 29.0294 64.4356C28.5312 64.2309 27.9965 64.1306 27.4582 64.141H17.9087V72.5336H27.4582C27.9992 72.5438 28.5364 72.4404 29.0353 72.23C29.5341 72.0197 29.9837 71.707 30.355 71.312C30.7428 70.9157 31.0472 70.4453 31.2504 69.9287C31.4535 69.412 31.5512 68.8597 31.5376 68.3045C31.5534 67.7542 31.4566 67.2064 31.2532 66.6951C31.0498 66.1838 30.7441 65.7198 30.355 65.3317Z" fill="white"/>
<path d="M51.9116 53.7343H91.088V64.6358H66.4612V70.9139H87.5325V81.3515H66.4612V88.3099H91.5503V99.2114H51.9116V53.7343Z" fill="white"/>
<path d="M129.432 99.2075L127.526 92.7981H111.655L109.748 99.2075H94.8748L111.401 53.7343H128.323L144.841 99.2075H129.432ZM114.686 82.6233H124.502L119.764 66.4334H119.498L114.686 82.6233Z" fill="white"/>
<path d="M191.417 76.4767C191.417 91.6332 183.495 99.2101 167.65 99.2075H148.027V53.7343H167.65C183.495 53.7343 191.417 61.3151 191.417 76.4767ZM162.561 88.306H167.368C173.47 88.306 176.521 85.024 176.521 78.4599V74.4975C176.521 67.9334 173.47 64.6513 167.368 64.6513H162.561V88.306Z" fill="white"/>
<path d="M195.689 99.2075V53.7343H210.251V99.2075H195.689Z" fill="white"/>
<path d="M248.849 99.2075L229.82 77.1378V99.2075H216.453V53.7343H229.165L248.175 76.1559V53.7343H261.561V99.2075H248.849Z" fill="white"/>
<path d="M301.574 54.9366C305.041 56.2587 307.795 58.2083 309.836 60.7855C311.878 63.3627 312.899 66.5017 312.899 70.2026H299.004C299.004 68.3083 298.171 66.7775 296.504 65.61C294.718 64.408 292.602 63.7957 290.452 63.8588C287.027 63.8588 284.437 64.7724 282.683 66.5997C280.929 68.4269 280.052 71.0144 280.052 74.3622V78.5913C280.052 81.9417 280.929 84.5304 282.683 86.3577C284.437 88.1849 287.027 89.0985 290.452 89.0985C292.596 89.1643 294.708 88.5767 296.512 87.413C298.179 86.2919 299.012 84.85 299.012 83.0872H288.734V73.8364H312.899V99.2075H305.391L303.935 94.7116C299.826 98.2398 294.433 100.003 287.756 100C280.252 100 274.612 98.0297 270.837 94.0892C267.062 90.1487 265.175 84.2779 265.175 76.4767C265.175 68.7684 267.314 62.9207 271.592 58.9338C275.871 54.9469 281.957 52.956 289.851 52.9612C293.846 52.8977 297.819 53.5671 301.574 54.9366Z" fill="white"/>
<path d="M351.02 56.4906C354.751 58.8488 356.662 62.3396 356.752 66.963V67.7555H343.119V67.4926C343.137 66.8677 343.017 66.2465 342.77 65.6728C342.522 65.0991 342.152 64.5868 341.686 64.1719C340.721 63.2905 339.25 62.8498 337.275 62.8498C335.342 62.8498 333.86 63.1372 332.83 63.7119C331.798 64.2841 331.289 64.9876 331.289 65.8226C331.289 67.0133 331.992 67.8947 333.396 68.4668C334.801 69.039 337.061 69.6343 340.176 70.2528C343.218 70.8435 346.22 71.626 349.163 72.5955C351.511 73.4067 353.627 74.78 355.327 76.5966C357.083 78.4444 357.982 80.9546 358.023 84.1271C358.023 89.5031 356.213 93.49 352.592 96.0878C348.971 98.6856 344.131 99.9845 338.073 99.9845C331.005 99.9845 325.507 98.7952 321.578 96.4164C317.649 94.0377 315.685 89.8317 315.688 83.7985H329.448C329.448 86.0871 330.041 87.6179 331.228 88.3911C332.414 89.1642 334.257 89.5508 336.755 89.5508C338.291 89.5911 339.825 89.3942 341.301 88.9671C342.511 88.5805 343.111 87.7571 343.111 86.5239C343.111 85.4234 342.442 84.5961 341.105 84.0421C339.767 83.488 337.584 82.9055 334.556 82.2947C331.457 81.6605 328.4 80.8329 325.403 79.8168C322.977 78.9485 320.804 77.487 319.082 75.5644C317.284 73.5825 316.385 70.8958 316.385 67.5042C316.385 62.5251 318.305 58.8578 322.144 56.5022C325.984 54.1467 330.846 52.9663 336.732 52.9612C342.526 52.9612 347.288 54.1377 351.02 56.4906Z" fill="white"/>
<path d="M185.308 26.4381C184.643 31.3785 182.361 35.9572 178.821 39.4542C169.861 48.3223 155.323 48.0903 146.324 38.9439C137.325 29.7974 137.314 15.1925 146.274 6.32828C149.807 2.82607 154.399 0.600206 159.329 0C159.136 0.170094 158.944 0.34792 158.77 0.529612C151.609 7.61172 151.625 19.2825 158.809 26.5927C165.993 33.9029 177.611 34.0807 184.772 26.9793C184.953 26.8169 185.134 26.6314 185.308 26.4381Z" fill="#F4F4F4"/>
</g>
<defs>
<clipPath id="clip0_313_63">
<rect width="358" height="100" fill="white"/>
</clipPath>
</defs>
</svg>
